<svg xmlns="http://www.w3.org/2000/svg" xmlns:xlink="http://www.w3.org/1999/xlink" version="1.1" viewBox="0 0 3882 2765" style="background: #111111"><defs><style>@import url(https://fonts.googleapis.com/css?family=Open+Sans:400,700);</style></defs><defs joint-selector="defs"></defs><g joint-selector="layers"  transform="matrix(1,0,0,1,0,0)"><g ></g><g ><!--z-index:1--><!--z-index:2--><!--z-index:3--><!--z-index:4--><!--z-index:5--><!--z-index:6--><!--z-index:7--><!--z-index:8--><!--z-index:9--><!--z-index:10--><!--z-index:11--><!--z-index:12--><!--z-index:13--><!--z-index:14--><!--z-index:15--><!--z-index:16--><!--z-index:17--><!--z-index:18--><!--z-index:19--><!--z-index:20--><!--z-index:21--><!--z-index:22--><!--z-index:23--><!--z-index:24--><!--z-index:25--><!--z-index:26--><!--z-index:27--><!--z-index:28--><!--z-index:29--><!--z-index:30--><!--z-index:31--><!--z-index:32--><!--z-index:33--><!--z-index:34--><!--z-index:35--><!--z-index:36--><!--z-index:37--><!--z-index:38--><!--z-index:39--><!--z-index:40--><!--z-index:41--><!--z-index:42--><!--z-index:43--><!--z-index:44--><g   id="j_119"  transform="translate(20,2728.6)"><g id="v-1389"><text  id="v-1390" font-size="22px" xml:space="preserve" y="0.8em" font-weight="normal" text-anchor="start" fill="#777777" pointer-events="none" display="block" font-family="Open Sans"><tspan dy="0" >Tuesday, December 17, 2024 at 11:18 AM Central European Standard Time</tspan></text></g></g><!--z-index:45--><g   id="j_118"  transform="translate(20,2685.4)"><g id="v-1387"><text  id="v-1388" font-size="36px" xml:space="preserve" y="0.8em" font-weight="normal" text-anchor="start" fill="#bbbbbb" pointer-events="none" display="block" font-family="Open Sans"><tspan dy="0" >[Container] AgileDeadTrees System</tspan></text></g></g><!--z-index:46--><g   id="j_120"  transform="translate(2481,2065)" style=""><g  id="v-1394" style="opacity: 1;"><rect  id="v-1395" rx="1" ry="1" stroke="#dd3b56" stroke-width="2" pointer-events="visiblePainted" fill="#f54260" width="450" height="300" style="fill: rgb(245, 66, 96); stroke: rgb(221, 59, 86);"></rect><text  id="v-1396" font-size="34" xml:space="preserve" y="0.8em" font-weight="bold" text-anchor="middle" pointer-events="visible" font-family="Open Sans" fill="#000000" transform="matrix(1,0,0,1,225,102.5)" style="fill: rgb(0, 0, 0);"><tspan dy="0" >Emailed Excel Sheets</tspan></text><text  id="v-1397" font-size="17" xml:space="preserve" y="0.8em" text-anchor="middle" font-family="Open Sans" fill="#000000" transform="matrix(1,0,0,1,225,143.3)" style="fill: rgb(0, 0, 0);"><tspan dy="0" >[Software System]</tspan></text><text  id="v-1398" font-size="24" xml:space="preserve" y="0.8em" text-anchor="middle" font-family="Open Sans" fill="#000000" transform="matrix(1,0,0,1,225,173.7)" style="fill: rgb(0, 0, 0);"><tspan dy="0" >External</tspan></text><g  id="v-1399" color="#000000" transform="matrix(1,0,0,1,222.5,268)" display="none" style="fill: rgb(0, 0, 0);"><g ></g><g ></g><g ></g><g ></g></g><image  id="v-1400"></image></g></g><!--z-index:47--><g   id="j_121"  transform="translate(3231,2065)" style=""><g  id="v-1401" style="opacity: 1;"><rect  id="v-1402" rx="1" ry="1" stroke="#dd3b56" stroke-width="2" pointer-events="visiblePainted" fill="#f54260" width="450" height="300" style="fill: rgb(245, 66, 96); stroke: rgb(221, 59, 86);"></rect><text  id="v-1403" font-size="34" xml:space="preserve" y="0.8em" font-weight="bold" text-anchor="middle" pointer-events="visible" font-family="Open Sans" fill="#000000" transform="matrix(1,0,0,1,225,102.5)" style="fill: rgb(0, 0, 0);"><tspan dy="0" >Mainframe</tspan></text><text  id="v-1404" font-size="17" xml:space="preserve" y="0.8em" text-anchor="middle" font-family="Open Sans" fill="#000000" transform="matrix(1,0,0,1,225,143.3)" style="fill: rgb(0, 0, 0);"><tspan dy="0" >[Software System]</tspan></text><text  id="v-1405" font-size="24" xml:space="preserve" y="0.8em" text-anchor="middle" font-family="Open Sans" fill="#000000" transform="matrix(1,0,0,1,225,173.7)" style="fill: rgb(0, 0, 0);"><tspan dy="0" >External</tspan></text><g  id="v-1406" color="#000000" transform="matrix(1,0,0,1,222.5,268)" display="none" style="fill: rgb(0, 0, 0);"><g ></g><g ></g><g ></g><g ></g></g><image  id="v-1407"></image></g></g><!--z-index:48--><g   id="j_122"  transform="translate(2444,165)" style=""><g  id="v-1411" style="opacity: 1;"><rect  x="0" y="160" width="400" height="240" rx="70" id="v-1413" stroke="#3b7add" stroke-width="2" pointer-events="visiblePainted" fill="#4287f5" style="fill: rgb(66, 135, 245); stroke: rgb(59, 122, 221);"></rect><circle  cx="200" cy="88.88888888888889" r="88.88888888888889" id="v-1412" stroke="#3b7add" stroke-width="2" pointer-events="visiblePainted" fill="#4287f5" style="fill: rgb(66, 135, 245); stroke: rgb(59, 122, 221);"></circle><line  x1="80" y1="266.6666666666667" x2="80" y2="400" id="v-1419" stroke="#3b7add" stroke-width="2" style="stroke: rgb(59, 122, 221);"></line><line  x1="320" y1="266.6666666666667" x2="320" y2="400" id="v-1420" stroke="#3b7add" stroke-width="2" style="stroke: rgb(59, 122, 221);"></line><text  id="v-1414" font-size="34" xml:space="preserve" y="0.8em" font-weight="bold" text-anchor="middle" pointer-events="visible" font-family="Open Sans" fill="#000000" transform="matrix(1,0,0,1,200,189.3)" style="fill: rgb(0, 0, 0);"><tspan dy="0" >Publisher</tspan></text><text  id="v-1415" font-size="17" xml:space="preserve" y="0.8em" text-anchor="middle" font-family="Open Sans" fill="#000000" transform="matrix(1,0,0,1,200,230.1)" style="fill: rgb(0, 0, 0);"><tspan dy="0" >[Person]</tspan></text><text  id="v-1416" font-size="24" xml:space="preserve" y="0.8em" text-anchor="middle" font-family="Open Sans" fill="#000000" transform="matrix(1,0,0,1,200,260.5)" style="fill: rgb(0, 0, 0);"><tspan dy="0" >Publishes books and can push</tspan><tspan dy="1.2em" x="0" >authors' chapters to those</tspan><tspan dy="1.2em" x="0" >customers who bought the</tspan><tspan dy="1.2em" x="0" >'beta'</tspan></text><g  id="v-1417" font-weight="normal" text-anchor="middle" color="#000000" transform="matrix(1,0,0,1,197.5,368)" display="none" style="fill: rgb(0, 0, 0);"><g ></g><g ></g><g ></g><g ></g></g><image  id="v-1418"></image></g></g><!--z-index:49--><g   id="j_123"  transform="translate(1044,165)" style=""><g  id="v-1424" style="opacity: 1;"><rect  x="0" y="160" width="400" height="240" rx="70" id="v-1426" stroke="#3b7add" stroke-width="2" pointer-events="visiblePainted" fill="#4287f5" style="fill: rgb(66, 135, 245); stroke: rgb(59, 122, 221);"></rect><circle  cx="200" cy="88.88888888888889" r="88.88888888888889" id="v-1425" stroke="#3b7add" stroke-width="2" pointer-events="visiblePainted" fill="#4287f5" style="fill: rgb(66, 135, 245); stroke: rgb(59, 122, 221);"></circle><line  x1="80" y1="266.6666666666667" x2="80" y2="400" id="v-1432" stroke="#3b7add" stroke-width="2" style="stroke: rgb(59, 122, 221);"></line><line  x1="320" y1="266.6666666666667" x2="320" y2="400" id="v-1433" stroke="#3b7add" stroke-width="2" style="stroke: rgb(59, 122, 221);"></line><text  id="v-1427" font-size="34" xml:space="preserve" y="0.8em" font-weight="bold" text-anchor="middle" pointer-events="visible" font-family="Open Sans" fill="#000000" transform="matrix(1,0,0,1,200,218.1)" style="fill: rgb(0, 0, 0);"><tspan dy="0" >Author</tspan></text><text  id="v-1428" font-size="17" xml:space="preserve" y="0.8em" text-anchor="middle" font-family="Open Sans" fill="#000000" transform="matrix(1,0,0,1,200,258.9)" style="fill: rgb(0, 0, 0);"><tspan dy="0" >[Person]</tspan></text><text  id="v-1429" font-size="24" xml:space="preserve" y="0.8em" text-anchor="middle" font-family="Open Sans" fill="#000000" transform="matrix(1,0,0,1,200,289.3)" style="fill: rgb(0, 0, 0);"><tspan dy="0" >Publish chapters and can reject</tspan><tspan dy="1.2em" x="0" >proposed review changes</tspan></text><g  id="v-1430" font-weight="normal" text-anchor="middle" color="#000000" transform="matrix(1,0,0,1,197.5,368)" display="none" style="fill: rgb(0, 0, 0);"><g ></g><g ></g><g ></g><g ></g></g><image  id="v-1431"></image></g></g><!--z-index:50--><g   id="j_124"  transform="translate(1744,165)" style=""><g  id="v-1437" style="opacity: 1;"><rect  x="0" y="160" width="400" height="240" rx="70" id="v-1439" stroke="#3b7add" stroke-width="2" pointer-events="visiblePainted" fill="#4287f5" style="fill: rgb(66, 135, 245); stroke: rgb(59, 122, 221);"></rect><circle  cx="200" cy="88.88888888888889" r="88.88888888888889" id="v-1438" stroke="#3b7add" stroke-width="2" pointer-events="visiblePainted" fill="#4287f5" style="fill: rgb(66, 135, 245); stroke: rgb(59, 122, 221);"></circle><line  x1="80" y1="266.6666666666667" x2="80" y2="400" id="v-1445" stroke="#3b7add" stroke-width="2" style="stroke: rgb(59, 122, 221);"></line><line  x1="320" y1="266.6666666666667" x2="320" y2="400" id="v-1446" stroke="#3b7add" stroke-width="2" style="stroke: rgb(59, 122, 221);"></line><text  id="v-1440" font-size="34" xml:space="preserve" y="0.8em" font-weight="bold" text-anchor="middle" pointer-events="visible" font-family="Open Sans" fill="#000000" transform="matrix(1,0,0,1,200,203.7)" style="fill: rgb(0, 0, 0);"><tspan dy="0" >Reviewer</tspan></text><text  id="v-1441" font-size="17" xml:space="preserve" y="0.8em" text-anchor="middle" font-family="Open Sans" fill="#000000" transform="matrix(1,0,0,1,200,244.5)" style="fill: rgb(0, 0, 0);"><tspan dy="0" >[Person]</tspan></text><text  id="v-1442" font-size="24" xml:space="preserve" y="0.8em" text-anchor="middle" font-family="Open Sans" fill="#000000" transform="matrix(1,0,0,1,200,274.9)" style="fill: rgb(0, 0, 0);"><tspan dy="0" >See the chapters, make review</tspan><tspan dy="1.2em" x="0" >comments, and notify authors</tspan><tspan dy="1.2em" x="0" >on review</tspan></text><g  id="v-1443" font-weight="normal" text-anchor="middle" color="#000000" transform="matrix(1,0,0,1,197.5,368)" display="none" style="fill: rgb(0, 0, 0);"><g ></g><g ></g><g ></g><g ></g></g><image  id="v-1444"></image></g></g><!--z-index:51--><g   id="j_125"  transform="translate(294,165)" style=""><g  id="v-1450" style="opacity: 1;"><rect  x="0" y="160" width="400" height="240" rx="70" id="v-1452" stroke="#3b7add" stroke-width="2" pointer-events="visiblePainted" fill="#4287f5" style="fill: rgb(66, 135, 245); stroke: rgb(59, 122, 221);"></rect><circle  cx="200" cy="88.88888888888889" r="88.88888888888889" id="v-1451" stroke="#3b7add" stroke-width="2" pointer-events="visiblePainted" fill="#4287f5" style="fill: rgb(66, 135, 245); stroke: rgb(59, 122, 221);"></circle><line  x1="80" y1="266.6666666666667" x2="80" y2="400" id="v-1458" stroke="#3b7add" stroke-width="2" style="stroke: rgb(59, 122, 221);"></line><line  x1="320" y1="266.6666666666667" x2="320" y2="400" id="v-1459" stroke="#3b7add" stroke-width="2" style="stroke: rgb(59, 122, 221);"></line><text  id="v-1453" font-size="34" xml:space="preserve" y="0.8em" font-weight="bold" text-anchor="middle" pointer-events="visible" font-family="Open Sans" fill="#000000" transform="matrix(1,0,0,1,200,189.3)" style="fill: rgb(0, 0, 0);"><tspan dy="0" >Customer</tspan></text><text  id="v-1454" font-size="17" xml:space="preserve" y="0.8em" text-anchor="middle" font-family="Open Sans" fill="#000000" transform="matrix(1,0,0,1,200,230.1)" style="fill: rgb(0, 0, 0);"><tspan dy="0" >[Person]</tspan></text><text  id="v-1455" font-size="24" xml:space="preserve" y="0.8em" text-anchor="middle" font-family="Open Sans" fill="#000000" transform="matrix(1,0,0,1,200,260.5)" style="fill: rgb(0, 0, 0);"><tspan dy="0" >Can buy books (either e- form</tspan><tspan dy="1.2em" x="0" >or dead trees form) online,</tspan><tspan dy="1.2em" x="0" >including those available in</tspan><tspan dy="1.2em" x="0" >'beta'</tspan></text><g  id="v-1456" font-weight="normal" text-anchor="middle" color="#000000" transform="matrix(1,0,0,1,197.5,368)" display="none" style="fill: rgb(0, 0, 0);"><g ></g><g ></g><g ></g><g ></g></g><image  id="v-1457"></image></g></g><!--z-index:52--><g   id="j_127"  transform="translate(199,845)" style=""><g id="v-1467"><rect  id="v-1468" width="2010" height="1685" rx="0" ry="0" fill="#111111" stroke="#c7c7c7" stroke-width="1" stroke-dasharray="20,20" pointer-events="none"></rect><text  id="v-1469" font-size="24px" xml:space="preserve" y="1646" font-weight="normal" fill="#c7c7c7" text-anchor="start" pointer-events="visible" font-family="Open Sans" transform="matrix(1,0,0,1,15,0)"><tspan dy="0" >AgileDeadTrees System</tspan></text><text  id="v-1470" font-size="17px" xml:space="preserve" y="1670" font-weight="normal" fill="#c7c7c7" text-anchor="start" pointer-events="visible" font-family="Open Sans" transform="matrix(1,0,0,1,15,0)"><tspan dy="0" >[Software System]</tspan></text><image  id="v-1471" pointer-events="visible"></image></g></g><!--z-index:53--><g   id="j_126"  transform="translate(219,2065)" style=""><g  id="v-1460" style="opacity: 1;"><rect  id="v-1461" rx="1" ry="1" stroke="#c7c7c7" stroke-width="2" pointer-events="visiblePainted" fill="#dddddd" width="450" height="300" style="fill: rgb(221, 221, 221); stroke: rgb(199, 199, 199);"></rect><text  id="v-1462" font-size="34" xml:space="preserve" y="0.8em" font-weight="bold" text-anchor="middle" pointer-events="visible" font-family="Open Sans" fill="#000000" transform="matrix(1,0,0,1,225,102.5)" style="fill: rgb(0, 0, 0);"><tspan dy="0" >Kafka</tspan></text><text  id="v-1463" font-size="17" xml:space="preserve" y="0.8em" text-anchor="middle" font-family="Open Sans" fill="#000000" transform="matrix(1,0,0,1,225,143.3)" style="fill: rgb(0, 0, 0);"><tspan dy="0" >[Container: Kafka]</tspan></text><text  id="v-1464" font-size="24" xml:space="preserve" y="0.8em" text-anchor="middle" font-family="Open Sans" fill="#000000" transform="matrix(1,0,0,1,225,173.7)" style="fill: rgb(0, 0, 0);"><tspan dy="0" >Message broker</tspan></text><g  id="v-1465" color="#000000" transform="matrix(1,0,0,1,222.5,268)" display="none" style="fill: rgb(0, 0, 0);"><g ></g><g ></g><g ></g><g ></g></g><image  id="v-1466"></image></g></g><!--z-index:54--><g   id="j_128"  transform="translate(1673,1465)" style=""><g  id="v-1475" style="opacity: 1;"><rect  id="v-1476" rx="1" ry="1" stroke="#d7dd3b" stroke-width="2" pointer-events="visiblePainted" fill="#eff542" width="450" height="300" style="fill: rgb(239, 245, 66); stroke: rgb(215, 221, 59);"></rect><text  id="v-1477" font-size="34" xml:space="preserve" y="0.8em" font-weight="bold" text-anchor="middle" pointer-events="visible" font-family="Open Sans" fill="#000000" transform="matrix(1,0,0,1,225,88.1)" style="fill: rgb(0, 0, 0);"><tspan dy="0" >API</tspan></text><text  id="v-1478" font-size="17" xml:space="preserve" y="0.8em" text-anchor="middle" font-family="Open Sans" fill="#000000" transform="matrix(1,0,0,1,225,128.9)" style="fill: rgb(0, 0, 0);"><tspan dy="0" >[Container: API]</tspan></text><text  id="v-1479" font-size="24" xml:space="preserve" y="0.8em" text-anchor="middle" font-family="Open Sans" fill="#000000" transform="matrix(1,0,0,1,225,159.3)" style="fill: rgb(0, 0, 0);"><tspan dy="0" >CRUD operations on books,</tspan><tspan dy="1.2em" x="0" >chapters, reviews, users, orders</tspan></text><g  id="v-1480" color="#000000" transform="matrix(1,0,0,1,222.5,268)" display="none" style="fill: rgb(0, 0, 0);"><g ></g><g ></g><g ></g><g ></g></g><image  id="v-1481"></image></g></g><!--z-index:55--><g   id="j_129"  transform="translate(1719,865)" style=""><g  id="v-1485" style="opacity: 1;"><rect  id="v-1486" rx="1" ry="1" stroke="#3bdd49" stroke-width="2" pointer-events="visiblePainted" fill="#42f551" width="450" height="300" style="fill: rgb(66, 245, 81); stroke: rgb(59, 221, 73);"></rect><text  id="v-1487" font-size="34" xml:space="preserve" y="0.8em" font-weight="bold" text-anchor="middle" pointer-events="visible" font-family="Open Sans" fill="#000000" transform="matrix(1,0,0,1,225,44.9)" style="fill: rgb(0, 0, 0);"><tspan dy="0" >CMS</tspan></text><text  id="v-1488" font-size="17" xml:space="preserve" y="0.8em" text-anchor="middle" font-family="Open Sans" fill="#000000" transform="matrix(1,0,0,1,225,85.7)" style="fill: rgb(0, 0, 0);"><tspan dy="0" >[Container: CMS]</tspan></text><text  id="v-1489" font-size="24" xml:space="preserve" y="0.8em" text-anchor="middle" font-family="Open Sans" fill="#000000" transform="matrix(1,0,0,1,225,116.1)" style="fill: rgb(0, 0, 0);"><tspan dy="0" >Allows authors to publish chapters,</tspan><tspan dy="1.2em" x="0" >reviewers to review them and</tspan><tspan dy="1.2em" x="0" >publisher to publish books and</tspan><tspan dy="1.2em" x="0" >push authors' chapters to those</tspan><tspan dy="1.2em" x="0" >customers who bought the 'beta'</tspan></text><g  id="v-1490" color="#000000" transform="matrix(1,0,0,1,222.5,268)" display="none" style="fill: rgb(0, 0, 0);"><g ></g><g ></g><g ></g><g ></g></g><image  id="v-1491"></image></g></g><!--z-index:56--><g   id="j_130"  transform="translate(219,865)" style=""><g  id="v-1495" style="opacity: 1;"><rect  id="v-1496" rx="1" ry="1" stroke="#3bdd49" stroke-width="2" pointer-events="visiblePainted" fill="#42f551" width="450" height="300" style="fill: rgb(66, 245, 81); stroke: rgb(59, 221, 73);"></rect><text  id="v-1497" font-size="34" xml:space="preserve" y="0.8em" font-weight="bold" text-anchor="middle" pointer-events="visible" font-family="Open Sans" fill="#000000" transform="matrix(1,0,0,1,225,88.1)" style="fill: rgb(0, 0, 0);"><tspan dy="0" >Reader</tspan></text><text  id="v-1498" font-size="17" xml:space="preserve" y="0.8em" text-anchor="middle" font-family="Open Sans" fill="#000000" transform="matrix(1,0,0,1,225,128.9)" style="fill: rgb(0, 0, 0);"><tspan dy="0" >[Container: Reader]</tspan></text><text  id="v-1499" font-size="24" xml:space="preserve" y="0.8em" text-anchor="middle" font-family="Open Sans" fill="#000000" transform="matrix(1,0,0,1,225,159.3)" style="fill: rgb(0, 0, 0);"><tspan dy="0" >Allows customer to access books</tspan><tspan dy="1.2em" x="0" >they bought</tspan></text><g  id="v-1500" color="#000000" transform="matrix(1,0,0,1,222.5,268)" display="none" style="fill: rgb(0, 0, 0);"><g ></g><g ></g><g ></g><g ></g></g><image  id="v-1501"></image></g></g><!--z-index:57--><g   id="j_131"  transform="translate(969,865)" style=""><g  id="v-1505" style="opacity: 1;"><rect  id="v-1506" rx="1" ry="1" stroke="#3bdd49" stroke-width="2" pointer-events="visiblePainted" fill="#42f551" width="450" height="300" style="fill: rgb(66, 245, 81); stroke: rgb(59, 221, 73);"></rect><text  id="v-1507" font-size="34" xml:space="preserve" y="0.8em" font-weight="bold" text-anchor="middle" pointer-events="visible" font-family="Open Sans" fill="#000000" transform="matrix(1,0,0,1,225,88.1)" style="fill: rgb(0, 0, 0);"><tspan dy="0" >Store</tspan></text><text  id="v-1508" font-size="17" xml:space="preserve" y="0.8em" text-anchor="middle" font-family="Open Sans" fill="#000000" transform="matrix(1,0,0,1,225,128.9)" style="fill: rgb(0, 0, 0);"><tspan dy="0" >[Container: Store]</tspan></text><text  id="v-1509" font-size="24" xml:space="preserve" y="0.8em" text-anchor="middle" font-family="Open Sans" fill="#000000" transform="matrix(1,0,0,1,225,159.3)" style="fill: rgb(0, 0, 0);"><tspan dy="0" >Allows customers to buy books</tspan><tspan dy="1.2em" x="0" >online</tspan></text><g  id="v-1510" color="#000000" transform="matrix(1,0,0,1,210,268)" display="none" style="fill: rgb(0, 0, 0);"><g  transform="translate(5 0)"><svg xmlns="http://www.w3.org/2000/svg" width="20" height="20" fill="currentColor" viewBox="0 0 16 16"><path fill-rule="evenodd" d="M6.5 12a5.5 5.5 0 1 0 0-11 5.5 5.5 0 0 0 0 11zM13 6.5a6.5 6.5 0 1 1-13 0 6.5 6.5 0 0 1 13 0z"></path><path d="M10.344 11.742c.03.04.062.078.098.115l3.85 3.85a1 1 0 0 0 1.415-1.414l-3.85-3.85a1.007 1.007 0 0 0-.115-.1 6.538 6.538 0 0 1-1.398 1.4z"></path><path fill-rule="evenodd" d="M6.5 3a.5.5 0 0 1 .5.5V6h2.5a.5.5 0 0 1 0 1H7v2.5a.5.5 0 0 1-1 0V7H3.5a.5.5 0 0 1 0-1H6V3.5a.5.5 0 0 1 .5-.5z"></path></svg></g><g ></g><g ></g><g ></g></g><image  id="v-1511"></image></g></g><!--z-index:58--><g   id="j_133"  transform="translate(949,2045)" style=""><g id="v-1526"><rect  id="v-1527" width="1240" height="394" rx="0" ry="0" fill="#111111" stroke="#cccccc" stroke-width="1" stroke-dasharray="5,5" pointer-events="none"></rect><text  id="v-1528" font-size="24px" xml:space="preserve" y="379" font-weight="normal" fill="#cccccc" text-anchor="start" pointer-events="visible" font-family="Open Sans" transform="matrix(1,0,0,1,15,0)"><tspan dy="0" >Database Layer</tspan></text><text  id="v-1529" font-size="17px" xml:space="preserve" display="none" y="379" font-weight="normal" fill="#cccccc" text-anchor="start" pointer-events="visible" font-family="Open Sans" transform="matrix(1,0,0,1,15,0)"><tspan dy="0" style="fill-opacity: 0; stroke-opacity: 0;" >-</tspan></text><image  id="v-1530" pointer-events="visible"></image></g></g><!--z-index:59--><g   id="j_132"  transform="translate(1719,2065)" style=""><g  id="v-1518" style="opacity: 1;"><path  d="M 0,30 a 225,30 0,0,0 450 0 a 225,30 0,0,0 -450 0 l 0,240 a 225,30 0,0,0 450 0 l 0,-240" id="v-1519" stroke="#c7c7c7" stroke-width="2" pointer-events="visiblePainted" fill="#dddddd" style="fill: rgb(221, 221, 221); stroke: rgb(199, 199, 199);"></path><rect  id="v-1520" stroke-width="0" pointer-events="visiblePainted" fill="none" stroke="none" width="450" height="270" x="0" y="30"></rect><text  id="v-1521" font-size="34" xml:space="preserve" y="0.8em" font-weight="bold" text-anchor="middle" pointer-events="visible" font-family="Open Sans" fill="#000000" transform="matrix(1,0,0,1,225,90.2)" style="fill: rgb(0, 0, 0);"><tspan dy="0" >Book and Review</tspan><tspan dy="1.2em" x="0" >Database</tspan></text><text  id="v-1522" font-size="17" xml:space="preserve" y="0.8em" text-anchor="middle" font-family="Open Sans" fill="#000000" transform="matrix(1,0,0,1,225,171.8)" style="fill: rgb(0, 0, 0);"><tspan dy="0" >[Container: MongoDB]</tspan></text><text  id="v-1523" font-size="24" xml:space="preserve" y="0.8em" text-anchor="middle" font-family="Open Sans" fill="#000000" transform="matrix(1,0,0,1,225,202.2)" style="fill: rgb(0, 0, 0);"><tspan dy="0" >Stocke les informations sur les</tspan><tspan dy="1.2em" x="0" >livres, les reviews et chapitres</tspan></text><g  id="v-1524" font-weight="normal" text-anchor="middle" color="#000000" transform="matrix(1,0,0,1,222.5,268)" display="none" style="fill: rgb(0, 0, 0);"><g ></g><g ></g><g ></g><g ></g></g><image  id="v-1525"></image></g></g><!--z-index:60--><g   id="j_134"  transform="translate(969,2065)" style=""><g  id="v-1537" style="opacity: 1;"><path  d="M 0,30 a 225,30 0,0,0 450 0 a 225,30 0,0,0 -450 0 l 0,240 a 225,30 0,0,0 450 0 l 0,-240" id="v-1538" stroke="#c7c7c7" stroke-width="2" pointer-events="visiblePainted" fill="#dddddd" style="fill: rgb(221, 221, 221); stroke: rgb(199, 199, 199);"></path><rect  id="v-1539" stroke-width="0" pointer-events="visiblePainted" fill="none" stroke="none" width="450" height="270" x="0" y="30"></rect><text  id="v-1540" font-size="34" xml:space="preserve" y="0.8em" font-weight="bold" text-anchor="middle" pointer-events="visible" font-family="Open Sans" fill="#000000" transform="matrix(1,0,0,1,225,110.6)" style="fill: rgb(0, 0, 0);"><tspan dy="0" >User and Order Database</tspan></text><text  id="v-1541" font-size="17" xml:space="preserve" y="0.8em" text-anchor="middle" font-family="Open Sans" fill="#000000" transform="matrix(1,0,0,1,225,151.4)" style="fill: rgb(0, 0, 0);"><tspan dy="0" >[Container: PostgreSQL]</tspan></text><text  id="v-1542" font-size="24" xml:space="preserve" y="0.8em" text-anchor="middle" font-family="Open Sans" fill="#000000" transform="matrix(1,0,0,1,225,181.8)" style="fill: rgb(0, 0, 0);"><tspan dy="0" >Stocke les informations sur les</tspan><tspan dy="1.2em" x="0" >utilisateurs et les commandes</tspan></text><g  id="v-1543" font-weight="normal" text-anchor="middle" color="#000000" transform="matrix(1,0,0,1,222.5,268)" display="none" style="fill: rgb(0, 0, 0);"><g ></g><g ></g><g ></g><g ></g></g><image  id="v-1544"></image></g></g><!--z-index:61--><g   id="j_135" ><path  stroke="#aaaaaa" d="M 1444 551 L 1782 865" id="v-1557" stroke-width="2" stroke-dasharray="30 30" fill="none" style="opacity: 1;"></path><path  fill="black" stroke="black" d="M 0 0 0 0" transform="matrix(0.7327873441550872,0.6804577196609162,-0.6804577196609162,0.7327873441550872,1444,550.7100219726562)"></path><path  fill="#aaaaaa" stroke="#aaaaaa" d="M 20 0 L 0 10 L 20 20 z" id="v-1559" transform="matrix(-0.7327872988508725,-0.6804577684491832,0.6804577684491832,-0.7327872988508725,1775.655375382142,872.3278852433131)" style="opacity: 1;"></path><path  d="M 1444 551 L 1782 865" id="v-1558" fill="none" style="cursor: auto; pointer-events: visiblepainted;"></path><g ><g id="v-1551"  label-idx="0" cursor="move" transform="matrix(1,0,0,1,1613,708)" style="cursor: default; opacity: 1;"><rect joint-selector="rect" id="v-1554" fill="#111111" rx="3" ry="3" pointer-events="none" width="107.03244018554688" height="61.84781455993652" transform="matrix(1,0,0,1,-53.5,-30.9)"></rect><text joint-selector="text" id="v-1553" font-size="24px" xml:space="preserve" y="0.8em" fill="#aaaaaa" text-anchor="middle" pointer-events="none" font-family="Open Sans" font-weight="normal" transform="matrix(1,0,0,1,0,-24.4)"><tspan dy="0" >Publishes</tspan><tspan dy="1.2em" x="0" >chapters</tspan></text></g><g id="v-1552"  label-idx="1" cursor="move" transform="matrix(1,0,0,1,1603,748.7999877929688)" style="cursor: default; opacity: 1;"><rect joint-selector="rect" id="v-1556" fill="#ffffff" rx="3" ry="3"  width="0" height="0" transform="matrix(1,0,0,1,0,0)" display="none"></rect><text joint-selector="text" id="v-1555" fill="#000000" font-size="14" text-anchor="middle" pointer-events="none"></text></g></g><g  display="none" style="display: none;"></g><g  id="v-1561" display="none"><g  id="v-1549"><path  end="source" d="M 26 0 L 0 13 L 26 26 z"></path></g><g  id="v-1550"><path  end="target" d="M 26 0 L 0 13 L 26 26 z"></path></g></g><g  id="v-1560" display="none"><g  id="v-1548" transform="translate(1473.305562817114, 578.2246944514018) "><g  event="remove"><circle r="11"></circle><path transform="scale(.8) translate(-16, -16)" d="M24.778,21.419 19.276,15.917 24.777,10.415 21.949,7.585 16.447,13.087 10.945,7.585 8.117,10.415 13.618,15.917 8.116,21.419 10.946,24.248 16.447,18.746 21.948,24.248z"></path><title>Remove link.</title></g><g  event="link:options"><circle r="11" transform="translate(25)"></circle><path fill="white" transform="scale(.55) translate(29, -16)" d="M31.229,17.736c0.064-0.571,0.104-1.148,0.104-1.736s-0.04-1.166-0.104-1.737l-4.377-1.557c-0.218-0.716-0.504-1.401-0.851-2.05l1.993-4.192c-0.725-0.91-1.549-1.734-2.458-2.459l-4.193,1.994c-0.647-0.347-1.334-0.632-2.049-0.849l-1.558-4.378C17.165,0.708,16.588,0.667,16,0.667s-1.166,0.041-1.737,0.105L12.707,5.15c-0.716,0.217-1.401,0.502-2.05,0.849L6.464,4.005C5.554,4.73,4.73,5.554,4.005,6.464l1.994,4.192c-0.347,0.648-0.632,1.334-0.849,2.05l-4.378,1.557C0.708,14.834,0.667,15.412,0.667,16s0.041,1.165,0.105,1.736l4.378,1.558c0.217,0.715,0.502,1.401,0.849,2.049l-1.994,4.193c0.725,0.909,1.549,1.733,2.459,2.458l4.192-1.993c0.648,0.347,1.334,0.633,2.05,0.851l1.557,4.377c0.571,0.064,1.148,0.104,1.737,0.104c0.588,0,1.165-0.04,1.736-0.104l1.558-4.377c0.715-0.218,1.399-0.504,2.049-0.851l4.193,1.993c0.909-0.725,1.733-1.549,2.458-2.458l-1.993-4.193c0.347-0.647,0.633-1.334,0.851-2.049L31.229,17.736zM16,20.871c-2.69,0-4.872-2.182-4.872-4.871c0-2.69,2.182-4.872,4.872-4.872c2.689,0,4.871,2.182,4.871,4.872C20.871,18.689,18.689,20.871,16,20.871z"></path><title>Link options.</title></g></g></g></g><!--z-index:62--><g   id="j_136" ><path  stroke="#aaaaaa" d="M 1944 565 L 1944 865" id="v-1574" stroke-width="2" stroke-dasharray="30 30" fill="none" style="opacity: 1;"></path><path  fill="black" stroke="black" d="M 0 0 0 0" transform="matrix(6.123233995736766e-17,1,-1,6.123233995736766e-17,1944,565)"></path><path  fill="#aaaaaa" stroke="#aaaaaa" d="M 20 0 L 0 10 L 20 20 z" id="v-1576" transform="matrix(-1.8369701987210297e-16,-1,1,-1.8369701987210297e-16,1934,865)" style="opacity: 1;"></path><path  d="M 1944 565 L 1944 865" id="v-1575" fill="none" style="cursor: auto; pointer-events: visiblepainted;"></path><g ><g id="v-1568"  label-idx="0" cursor="move" transform="matrix(1,0,0,1,1944,715)" style="cursor: default; opacity: 1;"><rect joint-selector="rect" id="v-1571" fill="#111111" rx="3" ry="3" pointer-events="none" width="193.58212280273438" height="33.04780960083008" transform="matrix(1,0,0,1,-96.8,-16.5)"></rect><text joint-selector="text" id="v-1570" font-size="24px" xml:space="preserve" y="0.8em" fill="#aaaaaa" text-anchor="middle" pointer-events="none" font-family="Open Sans" font-weight="normal" transform="matrix(1,0,0,1,0,-10)"><tspan dy="0" >Reviews chapters</tspan></text></g><g id="v-1569"  label-idx="1" cursor="move" transform="matrix(1,0,0,1,1934,741.4000244140625)" style="cursor: default; opacity: 1;"><rect joint-selector="rect" id="v-1573" fill="#ffffff" rx="3" ry="3"  width="0" height="0" transform="matrix(1,0,0,1,0,0)" display="none"></rect><text joint-selector="text" id="v-1572" fill="#000000" font-size="14" text-anchor="middle" pointer-events="none"></text></g></g><g  display="none" style="display: none;"></g><g  id="v-1578" display="none"><g  id="v-1566"><path  end="source" d="M 26 0 L 0 13 L 26 26 z"></path></g><g  id="v-1567"><path  end="target" d="M 26 0 L 0 13 L 26 26 z"></path></g></g><g  id="v-1577" display="none"><g  id="v-1565" transform="translate(1944, 605) "><g  event="remove"><circle r="11"></circle><path transform="scale(.8) translate(-16, -16)" d="M24.778,21.419 19.276,15.917 24.777,10.415 21.949,7.585 16.447,13.087 10.945,7.585 8.117,10.415 13.618,15.917 8.116,21.419 10.946,24.248 16.447,18.746 21.948,24.248z"></path><title>Remove link.</title></g><g  event="link:options"><circle r="11" transform="translate(25)"></circle><path fill="white" transform="scale(.55) translate(29, -16)" d="M31.229,17.736c0.064-0.571,0.104-1.148,0.104-1.736s-0.04-1.166-0.104-1.737l-4.377-1.557c-0.218-0.716-0.504-1.401-0.851-2.05l1.993-4.192c-0.725-0.91-1.549-1.734-2.458-2.459l-4.193,1.994c-0.647-0.347-1.334-0.632-2.049-0.849l-1.558-4.378C17.165,0.708,16.588,0.667,16,0.667s-1.166,0.041-1.737,0.105L12.707,5.15c-0.716,0.217-1.401,0.502-2.05,0.849L6.464,4.005C5.554,4.73,4.73,5.554,4.005,6.464l1.994,4.192c-0.347,0.648-0.632,1.334-0.849,2.05l-4.378,1.557C0.708,14.834,0.667,15.412,0.667,16s0.041,1.165,0.105,1.736l4.378,1.558c0.217,0.715,0.502,1.401,0.849,2.049l-1.994,4.193c0.725,0.909,1.549,1.733,2.459,2.458l4.192-1.993c0.648,0.347,1.334,0.633,2.05,0.851l1.557,4.377c0.571,0.064,1.148,0.104,1.737,0.104c0.588,0,1.165-0.04,1.736-0.104l1.558-4.377c0.715-0.218,1.399-0.504,2.049-0.851l4.193,1.993c0.909-0.725,1.733-1.549,2.458-2.458l-1.993-4.193c0.347-0.647,0.633-1.334,0.851-2.049L31.229,17.736zM16,20.871c-2.69,0-4.872-2.182-4.872-4.871c0-2.69,2.182-4.872,4.872-4.872c2.689,0,4.871,2.182,4.871,4.872C20.871,18.689,18.689,20.871,16,20.871z"></path><title>Link options.</title></g></g></g></g><!--z-index:63--><g   id="j_137" ><path  stroke="#aaaaaa" d="M 2444 551 L 2106 865" id="v-1591" stroke-width="2" stroke-dasharray="30 30" fill="none" style="opacity: 1;"></path><path  fill="black" stroke="black" d="M 0 0 0 0" transform="matrix(-0.7327872988508723,0.6804577684491833,-0.6804577684491833,-0.7327872988508723,2444,550.7100219726562)"></path><path  fill="#aaaaaa" stroke="#aaaaaa" d="M 20 0 L 0 10 L 20 20 z" id="v-1593" transform="matrix(0.7327872988508726,-0.680457768449183,0.680457768449183,0.7327872988508726,2098.7354692488743,857.6721392662956)" style="opacity: 1;"></path><path  d="M 2444 551 L 2106 865" id="v-1592" fill="none" style="cursor: auto; pointer-events: visiblepainted;"></path><g ><g id="v-1585"  label-idx="0" cursor="move" transform="matrix(1,0,0,1,2275,708)" style="cursor: default; opacity: 1;"><rect joint-selector="rect" id="v-1588" fill="#111111" rx="3" ry="3" pointer-events="none" width="180.84495544433594" height="33.04780960083008" transform="matrix(1,0,0,1,-90.4,-16.5)"></rect><text joint-selector="text" id="v-1587" font-size="24px" xml:space="preserve" y="0.8em" fill="#aaaaaa" text-anchor="middle" pointer-events="none" font-family="Open Sans" font-weight="normal" transform="matrix(1,0,0,1,0,-10)"><tspan dy="0" >Publishes books</tspan></text></g><g id="v-1586"  label-idx="1" cursor="move" transform="matrix(1,0,0,1,2265,734.4000244140625)" style="cursor: default; opacity: 1;"><rect joint-selector="rect" id="v-1590" fill="#ffffff" rx="3" ry="3"  width="0" height="0" transform="matrix(1,0,0,1,0,0)" display="none"></rect><text joint-selector="text" id="v-1589" fill="#000000" font-size="14" text-anchor="middle" pointer-events="none"></text></g></g><g  display="none" style="display: none;"></g><g  id="v-1595" display="none"><g  id="v-1583"><path  end="source" d="M 26 0 L 0 13 L 26 26 z"></path></g><g  id="v-1584"><path  end="target" d="M 26 0 L 0 13 L 26 26 z"></path></g></g><g  id="v-1594" display="none"><g  id="v-1582" transform="translate(2414.6944371828863, 578.2246944514018) "><g  event="remove"><circle r="11"></circle><path transform="scale(.8) translate(-16, -16)" d="M24.778,21.419 19.276,15.917 24.777,10.415 21.949,7.585 16.447,13.087 10.945,7.585 8.117,10.415 13.618,15.917 8.116,21.419 10.946,24.248 16.447,18.746 21.948,24.248z"></path><title>Remove link.</title></g><g  event="link:options"><circle r="11" transform="translate(25)"></circle><path fill="white" transform="scale(.55) translate(29, -16)" d="M31.229,17.736c0.064-0.571,0.104-1.148,0.104-1.736s-0.04-1.166-0.104-1.737l-4.377-1.557c-0.218-0.716-0.504-1.401-0.851-2.05l1.993-4.192c-0.725-0.91-1.549-1.734-2.458-2.459l-4.193,1.994c-0.647-0.347-1.334-0.632-2.049-0.849l-1.558-4.378C17.165,0.708,16.588,0.667,16,0.667s-1.166,0.041-1.737,0.105L12.707,5.15c-0.716,0.217-1.401,0.502-2.05,0.849L6.464,4.005C5.554,4.73,4.73,5.554,4.005,6.464l1.994,4.192c-0.347,0.648-0.632,1.334-0.849,2.05l-4.378,1.557C0.708,14.834,0.667,15.412,0.667,16s0.041,1.165,0.105,1.736l4.378,1.558c0.217,0.715,0.502,1.401,0.849,2.049l-1.994,4.193c0.725,0.909,1.549,1.733,2.459,2.458l4.192-1.993c0.648,0.347,1.334,0.633,2.05,0.851l1.557,4.377c0.571,0.064,1.148,0.104,1.737,0.104c0.588,0,1.165-0.04,1.736-0.104l1.558-4.377c0.715-0.218,1.399-0.504,2.049-0.851l4.193,1.993c0.909-0.725,1.733-1.549,2.458-2.458l-1.993-4.193c0.347-0.647,0.633-1.334,0.851-2.049L31.229,17.736zM16,20.871c-2.69,0-4.872-2.182-4.872-4.871c0-2.69,2.182-4.872,4.872-4.872c2.689,0,4.871,2.182,4.871,4.872C20.871,18.689,18.689,20.871,16,20.871z"></path><title>Link options.</title></g></g></g></g><!--z-index:64--><g   id="j_138" ><path  stroke="#aaaaaa" d="M 694 551 L 1032 865" id="v-1605" stroke-width="2" stroke-dasharray="30 30" fill="none" style="opacity: 1;"></path><path  fill="black" stroke="black" d="M 0 0 0 0" transform="matrix(0.7327873441550872,0.6804577196609162,-0.6804577196609162,0.7327873441550872,694,550.7100219726562)"></path><path  fill="#aaaaaa" stroke="#aaaaaa" d="M 20 0 L 0 10 L 20 20 z" id="v-1607" transform="matrix(-0.7327872988508725,-0.6804577684491832,0.6804577684491832,-0.7327872988508725,1025.655375382142,872.3278852433131)" style="opacity: 1;"></path><path  d="M 694 551 L 1032 865" id="v-1606" fill="none" style="cursor: auto; pointer-events: visiblepainted;"></path><g ><g id="v-1599"  label-idx="0" cursor="move" transform="matrix(1,0,0,1,863,708)" style="cursor: default; opacity: 1;"><rect joint-selector="rect" id="v-1602" fill="#111111" rx="3" ry="3" pointer-events="none" width="127.51519775390625" height="33.04780960083008" transform="matrix(1,0,0,1,-63.8,-16.5)"></rect><text joint-selector="text" id="v-1601" font-size="24px" xml:space="preserve" y="0.8em" fill="#aaaaaa" text-anchor="middle" pointer-events="none" font-family="Open Sans" font-weight="normal" transform="matrix(1,0,0,1,0,-10)"><tspan dy="0" >Buys books</tspan></text></g><g id="v-1600"  label-idx="1" cursor="move" transform="matrix(1,0,0,1,853,734.4000244140625)" style="cursor: default; opacity: 1;"><rect joint-selector="rect" id="v-1604" fill="#ffffff" rx="3" ry="3"  width="0" height="0" transform="matrix(1,0,0,1,0,0)" display="none"></rect><text joint-selector="text" id="v-1603" fill="#000000" font-size="14" text-anchor="middle" pointer-events="none"></text></g></g><g  display="none" style="display: none;"></g><g  id="v-1609" display="none"><g  id="v-1597"><path  end="source" d="M 26 0 L 0 13 L 26 26 z"></path></g><g  id="v-1598"><path  end="target" d="M 26 0 L 0 13 L 26 26 z"></path></g></g><g  id="v-1608" display="none"><g  id="v-1596" transform="translate(723.305562817114, 578.2246944514018) "><g  event="remove"><circle r="11"></circle><path transform="scale(.8) translate(-16, -16)" d="M24.778,21.419 19.276,15.917 24.777,10.415 21.949,7.585 16.447,13.087 10.945,7.585 8.117,10.415 13.618,15.917 8.116,21.419 10.946,24.248 16.447,18.746 21.948,24.248z"></path><title>Remove link.</title></g><g  event="link:options"><circle r="11" transform="translate(25)"></circle><path fill="white" transform="scale(.55) translate(29, -16)" d="M31.229,17.736c0.064-0.571,0.104-1.148,0.104-1.736s-0.04-1.166-0.104-1.737l-4.377-1.557c-0.218-0.716-0.504-1.401-0.851-2.05l1.993-4.192c-0.725-0.91-1.549-1.734-2.458-2.459l-4.193,1.994c-0.647-0.347-1.334-0.632-2.049-0.849l-1.558-4.378C17.165,0.708,16.588,0.667,16,0.667s-1.166,0.041-1.737,0.105L12.707,5.15c-0.716,0.217-1.401,0.502-2.05,0.849L6.464,4.005C5.554,4.73,4.73,5.554,4.005,6.464l1.994,4.192c-0.347,0.648-0.632,1.334-0.849,2.05l-4.378,1.557C0.708,14.834,0.667,15.412,0.667,16s0.041,1.165,0.105,1.736l4.378,1.558c0.217,0.715,0.502,1.401,0.849,2.049l-1.994,4.193c0.725,0.909,1.549,1.733,2.459,2.458l4.192-1.993c0.648,0.347,1.334,0.633,2.05,0.851l1.557,4.377c0.571,0.064,1.148,0.104,1.737,0.104c0.588,0,1.165-0.04,1.736-0.104l1.558-4.377c0.715-0.218,1.399-0.504,2.049-0.851l4.193,1.993c0.909-0.725,1.733-1.549,2.458-2.458l-1.993-4.193c0.347-0.647,0.633-1.334,0.851-2.049L31.229,17.736zM16,20.871c-2.69,0-4.872-2.182-4.872-4.871c0-2.69,2.182-4.872,4.872-4.872c2.689,0,4.871,2.182,4.871,4.872C20.871,18.689,18.689,20.871,16,20.871z"></path><title>Link options.</title></g></g></g></g><!--z-index:65--><g   id="j_139" ><path  stroke="#aaaaaa" d="M 479 565 L 456 865" id="v-1619" stroke-width="2" stroke-dasharray="30 30" fill="none" style="opacity: 1;"></path><path  fill="black" stroke="black" d="M 0 0 0 0" transform="matrix(-0.07670670747284322,0.9970537001730025,-0.9970537001730025,-0.07670670747284322,478.6199951171875,565)"></path><path  fill="#aaaaaa" stroke="#aaaaaa" d="M 20 0 L 0 10 L 20 20 z" id="v-1621" transform="matrix(0.07670670747284332,-0.9970537001730025,0.9970537001730025,0.07670670747284332,445.5694637946353,864.2329499074704)" style="opacity: 1;"></path><path  d="M 479 565 L 456 865" id="v-1620" fill="none" style="cursor: auto; pointer-events: visiblepainted;"></path><g ><g id="v-1613"  label-idx="0" cursor="move" transform="matrix(1,0,0,1,467.5,715)" style="cursor: default; opacity: 1;"><rect joint-selector="rect" id="v-1616" fill="#111111" rx="3" ry="3" pointer-events="none" width="141.57199096679688" height="33.04780960083008" transform="matrix(1,0,0,1,-70.8,-16.5)"></rect><text joint-selector="text" id="v-1615" font-size="24px" xml:space="preserve" y="0.8em" fill="#aaaaaa" text-anchor="middle" pointer-events="none" font-family="Open Sans" font-weight="normal" transform="matrix(1,0,0,1,0,-10)"><tspan dy="0" >Reads books</tspan></text></g><g id="v-1614"  label-idx="1" cursor="move" transform="matrix(1,0,0,1,457.5,741.4000244140625)" style="cursor: default; opacity: 1;"><rect joint-selector="rect" id="v-1618" fill="#ffffff" rx="3" ry="3"  width="0" height="0" transform="matrix(1,0,0,1,0,0)" display="none"></rect><text joint-selector="text" id="v-1617" fill="#000000" font-size="14" text-anchor="middle" pointer-events="none"></text></g></g><g  display="none" style="display: none;"></g><g  id="v-1623" display="none"><g  id="v-1611"><path  end="source" d="M 26 0 L 0 13 L 26 26 z"></path></g><g  id="v-1612"><path  end="target" d="M 26 0 L 0 13 L 26 26 z"></path></g></g><g  id="v-1622" display="none"><g  id="v-1610" transform="translate(475.9423063890239, 604.8829601431663) "><g  event="remove"><circle r="11"></circle><path transform="scale(.8) translate(-16, -16)" d="M24.778,21.419 19.276,15.917 24.777,10.415 21.949,7.585 16.447,13.087 10.945,7.585 8.117,10.415 13.618,15.917 8.116,21.419 10.946,24.248 16.447,18.746 21.948,24.248z"></path><title>Remove link.</title></g><g  event="link:options"><circle r="11" transform="translate(25)"></circle><path fill="white" transform="scale(.55) translate(29, -16)" d="M31.229,17.736c0.064-0.571,0.104-1.148,0.104-1.736s-0.04-1.166-0.104-1.737l-4.377-1.557c-0.218-0.716-0.504-1.401-0.851-2.05l1.993-4.192c-0.725-0.91-1.549-1.734-2.458-2.459l-4.193,1.994c-0.647-0.347-1.334-0.632-2.049-0.849l-1.558-4.378C17.165,0.708,16.588,0.667,16,0.667s-1.166,0.041-1.737,0.105L12.707,5.15c-0.716,0.217-1.401,0.502-2.05,0.849L6.464,4.005C5.554,4.73,4.73,5.554,4.005,6.464l1.994,4.192c-0.347,0.648-0.632,1.334-0.849,2.05l-4.378,1.557C0.708,14.834,0.667,15.412,0.667,16s0.041,1.165,0.105,1.736l4.378,1.558c0.217,0.715,0.502,1.401,0.849,2.049l-1.994,4.193c0.725,0.909,1.549,1.733,2.459,2.458l4.192-1.993c0.648,0.347,1.334,0.633,2.05,0.851l1.557,4.377c0.571,0.064,1.148,0.104,1.737,0.104c0.588,0,1.165-0.04,1.736-0.104l1.558-4.377c0.715-0.218,1.399-0.504,2.049-0.851l4.193,1.993c0.909-0.725,1.733-1.549,2.458-2.458l-1.993-4.193c0.347-0.647,0.633-1.334,0.851-2.049L31.229,17.736zM16,20.871c-2.69,0-4.872-2.182-4.872-4.871c0-2.69,2.182-4.872,4.872-4.872c2.689,0,4.871,2.182,4.871,4.872C20.871,18.689,18.689,20.871,16,20.871z"></path><title>Link options.</title></g></g></g></g><!--z-index:66--><g   id="j_140" ><path  stroke="#aaaaaa" d="M 1933 1165 L 1910 1465" id="v-1633" stroke-width="2" stroke-dasharray="30 30" fill="none" style="opacity: 1;"></path><path  fill="black" stroke="black" d="M 0 0 0 0" transform="matrix(-0.07644236820985932,0.9970740014374401,-0.9970740014374401,-0.07644236820985932,1932.5,1165)"></path><path  fill="#aaaaaa" stroke="#aaaaaa" d="M 20 0 L 0 10 L 20 20 z" id="v-1635" transform="matrix(0.07644223544142399,-0.9970740116163483,0.9970740116163483,0.07644223544142399,1899.5292418262973,1464.2356146367492)" style="opacity: 1;"></path><path  d="M 1933 1165 L 1910 1465" id="v-1634" fill="none" style="cursor: auto; pointer-events: visiblepainted;"></path><g ><g id="v-1627"  label-idx="0" cursor="move" transform="matrix(1,0,0,1,1921.5,1315)" style="cursor: default; opacity: 1;"><rect joint-selector="rect" id="v-1630" fill="#111111" rx="3" ry="3" pointer-events="none" width="53.846126556396484" height="33.04780960083008" transform="matrix(1,0,0,1,-26.9,-16.5)"></rect><text joint-selector="text" id="v-1629" font-size="24px" xml:space="preserve" y="0.8em" fill="#aaaaaa" text-anchor="middle" pointer-events="none" font-family="Open Sans" font-weight="normal" transform="matrix(1,0,0,1,0,-10)"><tspan dy="0" >Uses</tspan></text></g><g id="v-1628"  label-idx="1" cursor="move" transform="matrix(1,0,0,1,1911.5,1341.4000244140625)" style="cursor: default; opacity: 1;"><rect joint-selector="rect" id="v-1632" fill="#ffffff" rx="3" ry="3"  width="0" height="0" transform="matrix(1,0,0,1,0,0)" display="none"></rect><text joint-selector="text" id="v-1631" fill="#000000" font-size="14" text-anchor="middle" pointer-events="none"></text></g></g><g  display="none" style="display: none;"></g><g  id="v-1637" display="none"><g  id="v-1625"><path  end="source" d="M 26 0 L 0 13 L 26 26 z"></path></g><g  id="v-1626"><path  end="target" d="M 26 0 L 0 13 L 26 26 z"></path></g></g><g  id="v-1636" display="none"><g  id="v-1624" transform="translate(1929.942306389024, 1204.8829601431662) "><g  event="remove"><circle r="11"></circle><path transform="scale(.8) translate(-16, -16)" d="M24.778,21.419 19.276,15.917 24.777,10.415 21.949,7.585 16.447,13.087 10.945,7.585 8.117,10.415 13.618,15.917 8.116,21.419 10.946,24.248 16.447,18.746 21.948,24.248z"></path><title>Remove link.</title></g><g  event="link:options"><circle r="11" transform="translate(25)"></circle><path fill="white" transform="scale(.55) translate(29, -16)" d="M31.229,17.736c0.064-0.571,0.104-1.148,0.104-1.736s-0.04-1.166-0.104-1.737l-4.377-1.557c-0.218-0.716-0.504-1.401-0.851-2.05l1.993-4.192c-0.725-0.91-1.549-1.734-2.458-2.459l-4.193,1.994c-0.647-0.347-1.334-0.632-2.049-0.849l-1.558-4.378C17.165,0.708,16.588,0.667,16,0.667s-1.166,0.041-1.737,0.105L12.707,5.15c-0.716,0.217-1.401,0.502-2.05,0.849L6.464,4.005C5.554,4.73,4.73,5.554,4.005,6.464l1.994,4.192c-0.347,0.648-0.632,1.334-0.849,2.05l-4.378,1.557C0.708,14.834,0.667,15.412,0.667,16s0.041,1.165,0.105,1.736l4.378,1.558c0.217,0.715,0.502,1.401,0.849,2.049l-1.994,4.193c0.725,0.909,1.549,1.733,2.459,2.458l4.192-1.993c0.648,0.347,1.334,0.633,2.05,0.851l1.557,4.377c0.571,0.064,1.148,0.104,1.737,0.104c0.588,0,1.165-0.04,1.736-0.104l1.558-4.377c0.715-0.218,1.399-0.504,2.049-0.851l4.193,1.993c0.909-0.725,1.733-1.549,2.458-2.458l-1.993-4.193c0.347-0.647,0.633-1.334,0.851-2.049L31.229,17.736zM16,20.871c-2.69,0-4.872-2.182-4.872-4.871c0-2.69,2.182-4.872,4.872-4.872c2.689,0,4.871,2.182,4.871,4.872C20.871,18.689,18.689,20.871,16,20.871z"></path><title>Link options.</title></g></g></g></g><!--z-index:67--><g   id="j_141" ><path  stroke="#aaaaaa" d="M 1370 1165 L 1722 1465" id="v-1647" stroke-width="2" stroke-dasharray="30 30" fill="none" style="opacity: 1;"></path><path  fill="black" stroke="black" d="M 0 0 0 0" transform="matrix(0.7610851030637531,0.6486520376090993,-0.6486520376090993,0.7610851030637531,1370,1165)"></path><path  fill="#aaaaaa" stroke="#aaaaaa" d="M 20 0 L 0 10 L 20 20 z" id="v-1649" transform="matrix(-0.7610851030637532,-0.6486520376090991,0.6486520376090991,-0.7610851030637532,1715.5134908107966,1472.6107991411036)" style="opacity: 1;"></path><path  d="M 1370 1165 L 1722 1465" id="v-1648" fill="none" style="cursor: auto; pointer-events: visiblepainted;"></path><g ><g id="v-1641"  label-idx="0" cursor="move" transform="matrix(1,0,0,1,1546,1315)" style="cursor: default; opacity: 1;"><rect joint-selector="rect" id="v-1644" fill="#111111" rx="3" ry="3" pointer-events="none" width="53.846126556396484" height="33.04780960083008" transform="matrix(1,0,0,1,-26.9,-16.5)"></rect><text joint-selector="text" id="v-1643" font-size="24px" xml:space="preserve" y="0.8em" fill="#aaaaaa" text-anchor="middle" pointer-events="none" font-family="Open Sans" font-weight="normal" transform="matrix(1,0,0,1,0,-10)"><tspan dy="0" >Uses</tspan></text></g><g id="v-1642"  label-idx="1" cursor="move" transform="matrix(1,0,0,1,1536,1341.4000244140625)" style="cursor: default; opacity: 1;"><rect joint-selector="rect" id="v-1646" fill="#ffffff" rx="3" ry="3"  width="0" height="0" transform="matrix(1,0,0,1,0,0)" display="none"></rect><text joint-selector="text" id="v-1645" fill="#000000" font-size="14" text-anchor="middle" pointer-events="none"></text></g></g><g  display="none" style="display: none;"></g><g  id="v-1651" display="none"><g  id="v-1639"><path  end="source" d="M 26 0 L 0 13 L 26 26 z"></path></g><g  id="v-1640"><path  end="target" d="M 26 0 L 0 13 L 26 26 z"></path></g></g><g  id="v-1650" display="none"><g  id="v-1638" transform="translate(1400.4434033550624, 1190.9460824048829) "><g  event="remove"><circle r="11"></circle><path transform="scale(.8) translate(-16, -16)" d="M24.778,21.419 19.276,15.917 24.777,10.415 21.949,7.585 16.447,13.087 10.945,7.585 8.117,10.415 13.618,15.917 8.116,21.419 10.946,24.248 16.447,18.746 21.948,24.248z"></path><title>Remove link.</title></g><g  event="link:options"><circle r="11" transform="translate(25)"></circle><path fill="white" transform="scale(.55) translate(29, -16)" d="M31.229,17.736c0.064-0.571,0.104-1.148,0.104-1.736s-0.04-1.166-0.104-1.737l-4.377-1.557c-0.218-0.716-0.504-1.401-0.851-2.05l1.993-4.192c-0.725-0.91-1.549-1.734-2.458-2.459l-4.193,1.994c-0.647-0.347-1.334-0.632-2.049-0.849l-1.558-4.378C17.165,0.708,16.588,0.667,16,0.667s-1.166,0.041-1.737,0.105L12.707,5.15c-0.716,0.217-1.401,0.502-2.05,0.849L6.464,4.005C5.554,4.73,4.73,5.554,4.005,6.464l1.994,4.192c-0.347,0.648-0.632,1.334-0.849,2.05l-4.378,1.557C0.708,14.834,0.667,15.412,0.667,16s0.041,1.165,0.105,1.736l4.378,1.558c0.217,0.715,0.502,1.401,0.849,2.049l-1.994,4.193c0.725,0.909,1.549,1.733,2.459,2.458l4.192-1.993c0.648,0.347,1.334,0.633,2.05,0.851l1.557,4.377c0.571,0.064,1.148,0.104,1.737,0.104c0.588,0,1.165-0.04,1.736-0.104l1.558-4.377c0.715-0.218,1.399-0.504,2.049-0.851l4.193,1.993c0.909-0.725,1.733-1.549,2.458-2.458l-1.993-4.193c0.347-0.647,0.633-1.334,0.851-2.049L31.229,17.736zM16,20.871c-2.69,0-4.872-2.182-4.872-4.871c0-2.69,2.182-4.872,4.872-4.872c2.689,0,4.871,2.182,4.871,4.872C20.871,18.689,18.689,20.871,16,20.871z"></path><title>Link options.</title></g></g></g></g><!--z-index:68--><g   id="j_142" ><path  stroke="#aaaaaa" d="M 669 1108 L 1673 1522" id="v-1661" stroke-width="2" stroke-dasharray="30 30" fill="none" style="opacity: 1;"></path><path  fill="black" stroke="black" d="M 0 0 0 0" transform="matrix(0.9243899124900778,0.381448934572619,-0.381448934572619,0.9243899124900778,669,1107.8499755859375)"></path><path  fill="#aaaaaa" stroke="#aaaaaa" d="M 20 0 L 0 10 L 20 20 z" id="v-1663" transform="matrix(-0.9243899124900778,-0.3814489345726191,0.3814489345726191,-0.9243899124900778,1669.1855132947996,1531.3939597596896)" style="opacity: 1;"></path><path  d="M 669 1108 L 1673 1522" id="v-1662" fill="none" style="cursor: auto; pointer-events: visiblepainted;"></path><g ><g id="v-1655"  label-idx="0" cursor="move" transform="matrix(1,0,0,1,1171,1315)" style="cursor: default; opacity: 1;"><rect joint-selector="rect" id="v-1658" fill="#111111" rx="3" ry="3" pointer-events="none" width="53.846126556396484" height="33.04780960083008" transform="matrix(1,0,0,1,-26.9,-16.5)"></rect><text joint-selector="text" id="v-1657" font-size="24px" xml:space="preserve" y="0.8em" fill="#aaaaaa" text-anchor="middle" pointer-events="none" font-family="Open Sans" font-weight="normal" transform="matrix(1,0,0,1,0,-10)"><tspan dy="0" >Uses</tspan></text></g><g id="v-1656"  label-idx="1" cursor="move" transform="matrix(1,0,0,1,1161,1341.4000244140625)" style="cursor: default; opacity: 1;"><rect joint-selector="rect" id="v-1660" fill="#ffffff" rx="3" ry="3"  width="0" height="0" transform="matrix(1,0,0,1,0,0)" display="none"></rect><text joint-selector="text" id="v-1659" fill="#000000" font-size="14" text-anchor="middle" pointer-events="none"></text></g></g><g  display="none" style="display: none;"></g><g  id="v-1665" display="none"><g  id="v-1653"><path  end="source" d="M 26 0 L 0 13 L 26 26 z"></path></g><g  id="v-1654"><path  end="target" d="M 26 0 L 0 13 L 26 26 z"></path></g></g><g  id="v-1664" display="none"><g  id="v-1652" transform="translate(705.9794913371527, 1123.2485153521725) "><g  event="remove"><circle r="11"></circle><path transform="scale(.8) translate(-16, -16)" d="M24.778,21.419 19.276,15.917 24.777,10.415 21.949,7.585 16.447,13.087 10.945,7.585 8.117,10.415 13.618,15.917 8.116,21.419 10.946,24.248 16.447,18.746 21.948,24.248z"></path><title>Remove link.</title></g><g  event="link:options"><circle r="11" transform="translate(25)"></circle><path fill="white" transform="scale(.55) translate(29, -16)" d="M31.229,17.736c0.064-0.571,0.104-1.148,0.104-1.736s-0.04-1.166-0.104-1.737l-4.377-1.557c-0.218-0.716-0.504-1.401-0.851-2.05l1.993-4.192c-0.725-0.91-1.549-1.734-2.458-2.459l-4.193,1.994c-0.647-0.347-1.334-0.632-2.049-0.849l-1.558-4.378C17.165,0.708,16.588,0.667,16,0.667s-1.166,0.041-1.737,0.105L12.707,5.15c-0.716,0.217-1.401,0.502-2.05,0.849L6.464,4.005C5.554,4.73,4.73,5.554,4.005,6.464l1.994,4.192c-0.347,0.648-0.632,1.334-0.849,2.05l-4.378,1.557C0.708,14.834,0.667,15.412,0.667,16s0.041,1.165,0.105,1.736l4.378,1.558c0.217,0.715,0.502,1.401,0.849,2.049l-1.994,4.193c0.725,0.909,1.549,1.733,2.459,2.458l4.192-1.993c0.648,0.347,1.334,0.633,2.05,0.851l1.557,4.377c0.571,0.064,1.148,0.104,1.737,0.104c0.588,0,1.165-0.04,1.736-0.104l1.558-4.377c0.715-0.218,1.399-0.504,2.049-0.851l4.193,1.993c0.909-0.725,1.733-1.549,2.458-2.458l-1.993-4.193c0.347-0.647,0.633-1.334,0.851-2.049L31.229,17.736zM16,20.871c-2.69,0-4.872-2.182-4.872-4.871c0-2.69,2.182-4.872,4.872-4.872c2.689,0,4.871,2.182,4.871,4.872C20.871,18.689,18.689,20.871,16,20.871z"></path><title>Link options.</title></g></g></g></g><!--z-index:69--><g   id="j_143" ><path  stroke="#aaaaaa" d="M 1757 1165 L 632 2065" id="v-1678" stroke-width="2" stroke-dasharray="30 30" fill="none" style="opacity: 1;"></path><path  fill="black" stroke="black" d="M 0 0 0 0" transform="matrix(-0.7808688416748546,0.6246950072646418,-0.6246950072646418,-0.7808688416748546,1756.5,1165)"></path><path  fill="#aaaaaa" stroke="#aaaaaa" d="M 20 0 L 0 10 L 20 20 z" id="v-1680" transform="matrix(0.7808686753084834,-0.6246952152225711,0.6246952152225711,0.7808686753084834,625.253076915002,2057.191195086641)" style="opacity: 1;"></path><path  d="M 1757 1165 L 632 2065" id="v-1679" fill="none" style="cursor: auto; pointer-events: visiblepainted;"></path><g ><g id="v-1672"  label-idx="0" cursor="move" transform="matrix(1,0,0,1,1194.5,1615)" style="cursor: default; opacity: 1;"><rect joint-selector="rect" id="v-1675" fill="#111111" rx="3" ry="3" pointer-events="none" width="198.6884765625" height="61.84781455993652" transform="matrix(1,0,0,1,-99.3,-30.9)"></rect><text joint-selector="text" id="v-1674" font-size="24px" xml:space="preserve" y="0.8em" fill="#aaaaaa" text-anchor="middle" pointer-events="none" font-family="Open Sans" font-weight="normal" transform="matrix(1,0,0,1,0,-24.4)"><tspan dy="0" >Reads</tspan><tspan dy="1.2em" x="0" >notifications from</tspan></text></g><g id="v-1673"  label-idx="1" cursor="move" transform="matrix(1,0,0,1,1184.5,1655.800048828125)" style="cursor: default; opacity: 1;"><rect joint-selector="rect" id="v-1677" fill="#ffffff" rx="3" ry="3"  width="0" height="0" transform="matrix(1,0,0,1,0,0)" display="none"></rect><text joint-selector="text" id="v-1676" fill="#000000" font-size="14" text-anchor="middle" pointer-events="none"></text></g></g><g  display="none" style="display: none;"></g><g  id="v-1682" display="none"><g  id="v-1670"><path  end="source" d="M 26 0 L 0 13 L 26 26 z"></path></g><g  id="v-1671"><path  end="target" d="M 26 0 L 0 13 L 26 26 z"></path></g></g><g  id="v-1681" display="none"><g  id="v-1669" transform="translate(1725.7652476222788, 1189.987801902177) "><g  event="remove"><circle r="11"></circle><path transform="scale(.8) translate(-16, -16)" d="M24.778,21.419 19.276,15.917 24.777,10.415 21.949,7.585 16.447,13.087 10.945,7.585 8.117,10.415 13.618,15.917 8.116,21.419 10.946,24.248 16.447,18.746 21.948,24.248z"></path><title>Remove link.</title></g><g  event="link:options"><circle r="11" transform="translate(25)"></circle><path fill="white" transform="scale(.55) translate(29, -16)" d="M31.229,17.736c0.064-0.571,0.104-1.148,0.104-1.736s-0.04-1.166-0.104-1.737l-4.377-1.557c-0.218-0.716-0.504-1.401-0.851-2.05l1.993-4.192c-0.725-0.91-1.549-1.734-2.458-2.459l-4.193,1.994c-0.647-0.347-1.334-0.632-2.049-0.849l-1.558-4.378C17.165,0.708,16.588,0.667,16,0.667s-1.166,0.041-1.737,0.105L12.707,5.15c-0.716,0.217-1.401,0.502-2.05,0.849L6.464,4.005C5.554,4.73,4.73,5.554,4.005,6.464l1.994,4.192c-0.347,0.648-0.632,1.334-0.849,2.05l-4.378,1.557C0.708,14.834,0.667,15.412,0.667,16s0.041,1.165,0.105,1.736l4.378,1.558c0.217,0.715,0.502,1.401,0.849,2.049l-1.994,4.193c0.725,0.909,1.549,1.733,2.459,2.458l4.192-1.993c0.648,0.347,1.334,0.633,2.05,0.851l1.557,4.377c0.571,0.064,1.148,0.104,1.737,0.104c0.588,0,1.165-0.04,1.736-0.104l1.558-4.377c0.715-0.218,1.399-0.504,2.049-0.851l4.193,1.993c0.909-0.725,1.733-1.549,2.458-2.458l-1.993-4.193c0.347-0.647,0.633-1.334,0.851-2.049L31.229,17.736zM16,20.871c-2.69,0-4.872-2.182-4.872-4.871c0-2.69,2.182-4.872,4.872-4.872c2.689,0,4.871,2.182,4.871,4.872C20.871,18.689,18.689,20.871,16,20.871z"></path><title>Link options.</title></g></g></g></g><!--z-index:70--><g   id="j_144" ><path  stroke="#aaaaaa" d="M 1100 1165 L 538 2065" id="v-1695" stroke-width="2" stroke-dasharray="30 30" fill="none" style="opacity: 1;"></path><path  fill="black" stroke="black" d="M 0 0 0 0" transform="matrix(-0.5299989865422612,0.8479982749181605,-0.8479982749181605,-0.5299989865422612,1100.25,1165)"></path><path  fill="#aaaaaa" stroke="#aaaaaa" d="M 20 0 L 0 10 L 20 20 z" id="v-1697" transform="matrix(0.5299987607066415,-0.8479984160653982,0.8479984160653982,0.5299987607066415,529.2700160252483,2059.7000160848374)" style="opacity: 1;"></path><path  d="M 1100 1165 L 538 2065" id="v-1696" fill="none" style="cursor: auto; pointer-events: visiblepainted;"></path><g ><g id="v-1689"  label-idx="0" cursor="move" transform="matrix(1,0,0,1,819,1615)" style="cursor: default; opacity: 1;"><rect joint-selector="rect" id="v-1692" fill="#111111" rx="3" ry="3" pointer-events="none" width="198.6884765625" height="61.84781455993652" transform="matrix(1,0,0,1,-99.3,-30.9)"></rect><text joint-selector="text" id="v-1691" font-size="24px" xml:space="preserve" y="0.8em" fill="#aaaaaa" text-anchor="middle" pointer-events="none" font-family="Open Sans" font-weight="normal" transform="matrix(1,0,0,1,0,-24.4)"><tspan dy="0" >Reads</tspan><tspan dy="1.2em" x="0" >notifications from</tspan></text></g><g id="v-1690"  label-idx="1" cursor="move" transform="matrix(1,0,0,1,809,1655.800048828125)" style="cursor: default; opacity: 1;"><rect joint-selector="rect" id="v-1694" fill="#ffffff" rx="3" ry="3"  width="0" height="0" transform="matrix(1,0,0,1,0,0)" display="none"></rect><text joint-selector="text" id="v-1693" fill="#000000" font-size="14" text-anchor="middle" pointer-events="none"></text></g></g><g  display="none" style="display: none;"></g><g  id="v-1699" display="none"><g  id="v-1687"><path  end="source" d="M 26 0 L 0 13 L 26 26 z"></path></g><g  id="v-1688"><path  end="target" d="M 26 0 L 0 13 L 26 26 z"></path></g></g><g  id="v-1698" display="none"><g  id="v-1686" transform="translate(1078.8135985098456, 1198.9284009628805) "><g  event="remove"><circle r="11"></circle><path transform="scale(.8) translate(-16, -16)" d="M24.778,21.419 19.276,15.917 24.777,10.415 21.949,7.585 16.447,13.087 10.945,7.585 8.117,10.415 13.618,15.917 8.116,21.419 10.946,24.248 16.447,18.746 21.948,24.248z"></path><title>Remove link.</title></g><g  event="link:options"><circle r="11" transform="translate(25)"></circle><path fill="white" transform="scale(.55) translate(29, -16)" d="M31.229,17.736c0.064-0.571,0.104-1.148,0.104-1.736s-0.04-1.166-0.104-1.737l-4.377-1.557c-0.218-0.716-0.504-1.401-0.851-2.05l1.993-4.192c-0.725-0.91-1.549-1.734-2.458-2.459l-4.193,1.994c-0.647-0.347-1.334-0.632-2.049-0.849l-1.558-4.378C17.165,0.708,16.588,0.667,16,0.667s-1.166,0.041-1.737,0.105L12.707,5.15c-0.716,0.217-1.401,0.502-2.05,0.849L6.464,4.005C5.554,4.73,4.73,5.554,4.005,6.464l1.994,4.192c-0.347,0.648-0.632,1.334-0.849,2.05l-4.378,1.557C0.708,14.834,0.667,15.412,0.667,16s0.041,1.165,0.105,1.736l4.378,1.558c0.217,0.715,0.502,1.401,0.849,2.049l-1.994,4.193c0.725,0.909,1.549,1.733,2.459,2.458l4.192-1.993c0.648,0.347,1.334,0.633,2.05,0.851l1.557,4.377c0.571,0.064,1.148,0.104,1.737,0.104c0.588,0,1.165-0.04,1.736-0.104l1.558-4.377c0.715-0.218,1.399-0.504,2.049-0.851l4.193,1.993c0.909-0.725,1.733-1.549,2.458-2.458l-1.993-4.193c0.347-0.647,0.633-1.334,0.851-2.049L31.229,17.736zM16,20.871c-2.69,0-4.872-2.182-4.872-4.871c0-2.69,2.182-4.872,4.872-4.872c2.689,0,4.871,2.182,4.871,4.872C20.871,18.689,18.689,20.871,16,20.871z"></path><title>Link options.</title></g></g></g></g><!--z-index:71--><g   id="j_145" ><path  stroke="#aaaaaa" d="M 444 1165 L 444 2065" id="v-1712" stroke-width="2" stroke-dasharray="30 30" fill="none" style="opacity: 1;"></path><path  fill="black" stroke="black" d="M 0 0 0 0" transform="matrix(6.123233995736766e-17,1,-1,6.123233995736766e-17,444,1165)"></path><path  fill="#aaaaaa" stroke="#aaaaaa" d="M 20 0 L 0 10 L 20 20 z" id="v-1714" transform="matrix(-1.8369701987210297e-16,-1,1,-1.8369701987210297e-16,434,2065)" style="opacity: 1;"></path><path  d="M 444 1165 L 444 2065" id="v-1713" fill="none" style="cursor: auto; pointer-events: visiblepainted;"></path><g ><g id="v-1706"  label-idx="0" cursor="move" transform="matrix(1,0,0,1,444,1615)" style="cursor: default; opacity: 1;"><rect joint-selector="rect" id="v-1709" fill="#111111" rx="3" ry="3" pointer-events="none" width="198.6884765625" height="61.84781455993652" transform="matrix(1,0,0,1,-99.3,-30.9)"></rect><text joint-selector="text" id="v-1708" font-size="24px" xml:space="preserve" y="0.8em" fill="#aaaaaa" text-anchor="middle" pointer-events="none" font-family="Open Sans" font-weight="normal" transform="matrix(1,0,0,1,0,-24.4)"><tspan dy="0" >Reads</tspan><tspan dy="1.2em" x="0" >notifications from</tspan></text></g><g id="v-1707"  label-idx="1" cursor="move" transform="matrix(1,0,0,1,434,1655.800048828125)" style="cursor: default; opacity: 1;"><rect joint-selector="rect" id="v-1711" fill="#ffffff" rx="3" ry="3"  width="0" height="0" transform="matrix(1,0,0,1,0,0)" display="none"></rect><text joint-selector="text" id="v-1710" fill="#000000" font-size="14" text-anchor="middle" pointer-events="none"></text></g></g><g  display="none" style="display: none;"></g><g  id="v-1716" display="none"><g  id="v-1704"><path  end="source" d="M 26 0 L 0 13 L 26 26 z"></path></g><g  id="v-1705"><path  end="target" d="M 26 0 L 0 13 L 26 26 z"></path></g></g><g  id="v-1715" display="none"><g  id="v-1703" transform="translate(444.00000000000006, 1205) "><g  event="remove"><circle r="11"></circle><path transform="scale(.8) translate(-16, -16)" d="M24.778,21.419 19.276,15.917 24.777,10.415 21.949,7.585 16.447,13.087 10.945,7.585 8.117,10.415 13.618,15.917 8.116,21.419 10.946,24.248 16.447,18.746 21.948,24.248z"></path><title>Remove link.</title></g><g  event="link:options"><circle r="11" transform="translate(25)"></circle><path fill="white" transform="scale(.55) translate(29, -16)" d="M31.229,17.736c0.064-0.571,0.104-1.148,0.104-1.736s-0.04-1.166-0.104-1.737l-4.377-1.557c-0.218-0.716-0.504-1.401-0.851-2.05l1.993-4.192c-0.725-0.91-1.549-1.734-2.458-2.459l-4.193,1.994c-0.647-0.347-1.334-0.632-2.049-0.849l-1.558-4.378C17.165,0.708,16.588,0.667,16,0.667s-1.166,0.041-1.737,0.105L12.707,5.15c-0.716,0.217-1.401,0.502-2.05,0.849L6.464,4.005C5.554,4.73,4.73,5.554,4.005,6.464l1.994,4.192c-0.347,0.648-0.632,1.334-0.849,2.05l-4.378,1.557C0.708,14.834,0.667,15.412,0.667,16s0.041,1.165,0.105,1.736l4.378,1.558c0.217,0.715,0.502,1.401,0.849,2.049l-1.994,4.193c0.725,0.909,1.549,1.733,2.459,2.458l4.192-1.993c0.648,0.347,1.334,0.633,2.05,0.851l1.557,4.377c0.571,0.064,1.148,0.104,1.737,0.104c0.588,0,1.165-0.04,1.736-0.104l1.558-4.377c0.715-0.218,1.399-0.504,2.049-0.851l4.193,1.993c0.909-0.725,1.733-1.549,2.458-2.458l-1.993-4.193c0.347-0.647,0.633-1.334,0.851-2.049L31.229,17.736zM16,20.871c-2.69,0-4.872-2.182-4.872-4.871c0-2.69,2.182-4.872,4.872-4.872c2.689,0,4.871,2.182,4.871,4.872C20.871,18.689,18.689,20.871,16,20.871z"></path><title>Link options.</title></g></g></g></g><!--z-index:72--><g   id="j_146" ><path  stroke="#aaaaaa" d="M 1673 1685 L 800 1958 C 793.3333333333333 1960 787.3333333333333 1963 782 1967 L 648 2065" id="v-1730" stroke-width="2" stroke-dasharray="30 30" fill="none" style="opacity: 1;"></path><path  fill="black" stroke="black" d="M 0 0 0 0" transform="matrix(-0.9545407547981535,0.2980804378508784,-0.2980804378508784,-0.9545407547981535,1673,1685.260009765625)"></path><path  fill="#aaaaaa" stroke="#aaaaaa" d="M 20 0 L 0 10 L 20 20 z" id="v-1732" transform="matrix(0.8061099977630221,-0.5917657234974839,0.5917657234974839,0.8061099977630221,642.412356068645,2056.93883264797)" style="opacity: 1;"></path><path  d="M 1673 1685 L 800 1958 C 793.3333333333333 1960 787.3333333333333 1963 782 1967 L 648 2065" id="v-1731" fill="none" style="cursor: auto; pointer-events: visiblepainted;"></path><g ><g id="v-1724"  label-idx="0" cursor="move" transform="matrix(1,0,0,1,1147.6263427734375,1849.2921142578125)" style="cursor: default; opacity: 1;"><rect joint-selector="rect" id="v-1727" fill="#111111" rx="3" ry="3" pointer-events="none" width="177.48854064941406" height="61.84781455993652" transform="matrix(1,0,0,1,-88.7,-30.9)"></rect><text joint-selector="text" id="v-1726" font-size="24px" xml:space="preserve" y="0.8em" fill="#aaaaaa" text-anchor="middle" pointer-events="none" font-family="Open Sans" font-weight="normal" transform="matrix(1,0,0,1,0,-24.4)"><tspan dy="0" >Reads from and</tspan><tspan dy="1.2em" x="0" >writes to</tspan></text></g><g id="v-1725"  label-idx="1" cursor="move" transform="matrix(1,0,0,1,1137.6263427734375,1890.0921630859375)" style="cursor: default; opacity: 1;"><rect joint-selector="rect" id="v-1729" fill="#ffffff" rx="3" ry="3"  width="0" height="0" transform="matrix(1,0,0,1,0,0)" display="none"></rect><text joint-selector="text" id="v-1728" fill="#000000" font-size="14" text-anchor="middle" pointer-events="none"></text></g></g><g  display="none" style="display: none;"><g  transform="translate(790, 1961)" id="v-1721"><circle  idx="0" r="10"></circle><path  idx="0" d="M16,5.333c-7.732,0-14,4.701-14,10.5c0,1.982,0.741,3.833,2.016,5.414L2,25.667l5.613-1.441c2.339,1.317,5.237,2.107,8.387,2.107c7.732,0,14-4.701,14-10.5C30,10.034,23.732,5.333,16,5.333z" transform="translate(5, -33)"></path><path  idx="0" transform="scale(.8) translate(9.5, -37)" d="M24.778,21.419 19.276,15.917 24.777,10.415 21.949,7.585 16.447,13.087 10.945,7.585 8.117,10.415 13.618,15.917 8.116,21.419 10.946,24.248 16.447,18.746 21.948,24.248z"><title>Remove vertex.</title></path></g></g><g  id="v-1734" display="none"><g  id="v-1722"><path  end="source" d="M 26 0 L 0 13 L 26 26 z"></path></g><g  id="v-1723"><path  end="target" d="M 26 0 L 0 13 L 26 26 z"></path></g></g><g  id="v-1733" display="none"><g  id="v-1720" transform="translate(1634.8231359861122, 1696.938469502625) "><g  event="remove"><circle r="11"></circle><path transform="scale(.8) translate(-16, -16)" d="M24.778,21.419 19.276,15.917 24.777,10.415 21.949,7.585 16.447,13.087 10.945,7.585 8.117,10.415 13.618,15.917 8.116,21.419 10.946,24.248 16.447,18.746 21.948,24.248z"></path><title>Remove link.</title></g><g  event="link:options"><circle r="11" transform="translate(25)"></circle><path fill="white" transform="scale(.55) translate(29, -16)" d="M31.229,17.736c0.064-0.571,0.104-1.148,0.104-1.736s-0.04-1.166-0.104-1.737l-4.377-1.557c-0.218-0.716-0.504-1.401-0.851-2.05l1.993-4.192c-0.725-0.91-1.549-1.734-2.458-2.459l-4.193,1.994c-0.647-0.347-1.334-0.632-2.049-0.849l-1.558-4.378C17.165,0.708,16.588,0.667,16,0.667s-1.166,0.041-1.737,0.105L12.707,5.15c-0.716,0.217-1.401,0.502-2.05,0.849L6.464,4.005C5.554,4.73,4.73,5.554,4.005,6.464l1.994,4.192c-0.347,0.648-0.632,1.334-0.849,2.05l-4.378,1.557C0.708,14.834,0.667,15.412,0.667,16s0.041,1.165,0.105,1.736l4.378,1.558c0.217,0.715,0.502,1.401,0.849,2.049l-1.994,4.193c0.725,0.909,1.549,1.733,2.459,2.458l4.192-1.993c0.648,0.347,1.334,0.633,2.05,0.851l1.557,4.377c0.571,0.064,1.148,0.104,1.737,0.104c0.588,0,1.165-0.04,1.736-0.104l1.558-4.377c0.715-0.218,1.399-0.504,2.049-0.851l4.193,1.993c0.909-0.725,1.733-1.549,2.458-2.458l-1.993-4.193c0.347-0.647,0.633-1.334,0.851-2.049L31.229,17.736zM16,20.871c-2.69,0-4.872-2.182-4.872-4.871c0-2.69,2.182-4.872,4.872-4.872c2.689,0,4.871,2.182,4.871,4.872C20.871,18.689,18.689,20.871,16,20.871z"></path><title>Link options.</title></g></g></g></g><!--z-index:73--><g   id="j_147" ><path  stroke="#aaaaaa" d="M 2100 1765 L 2504 2065" id="v-1744" stroke-width="2" stroke-dasharray="30 30" fill="none" style="opacity: 1;"></path><path  fill="black" stroke="black" d="M 0 0 0 0" transform="matrix(0.8028525413126767,0.5961776554918649,-0.5961776554918649,0.8028525413126767,2100,1765)"></path><path  fill="#aaaaaa" stroke="#aaaaaa" d="M 20 0 L 0 10 L 20 20 z" id="v-1746" transform="matrix(-0.8028525016197465,-0.5961777089450048,0.5961777089450048,-0.8028525016197465,2498.038183473622,2073.0286321837725)" style="opacity: 1;"></path><path  d="M 2100 1765 L 2504 2065" id="v-1745" fill="none" style="cursor: auto; pointer-events: visiblepainted;"></path><g ><g id="v-1738"  label-idx="0" cursor="move" transform="matrix(1,0,0,1,2302,1915)" style="cursor: default; opacity: 1;"><rect joint-selector="rect" id="v-1741" fill="#111111" rx="3" ry="3" pointer-events="none" width="128.51925659179688" height="33.04780960083008" transform="matrix(1,0,0,1,-64.3,-16.5)"></rect><text joint-selector="text" id="v-1740" font-size="24px" xml:space="preserve" y="0.8em" fill="#aaaaaa" text-anchor="middle" pointer-events="none" font-family="Open Sans" font-weight="normal" transform="matrix(1,0,0,1,0,-10)"><tspan dy="0" >Reads from</tspan></text></g><g id="v-1739"  label-idx="1" cursor="move" transform="matrix(1,0,0,1,2292,1941.4000244140625)" style="cursor: default; opacity: 1;"><rect joint-selector="rect" id="v-1743" fill="#ffffff" rx="3" ry="3"  width="0" height="0" transform="matrix(1,0,0,1,0,0)" display="none"></rect><text joint-selector="text" id="v-1742" fill="#000000" font-size="14" text-anchor="middle" pointer-events="none"></text></g></g><g  display="none" style="display: none;"></g><g  id="v-1748" display="none"><g  id="v-1736"><path  end="source" d="M 26 0 L 0 13 L 26 26 z"></path></g><g  id="v-1737"><path  end="target" d="M 26 0 L 0 13 L 26 26 z"></path></g></g><g  id="v-1747" display="none"><g  id="v-1735" transform="translate(2132.1141021465473, 1788.8471055543669) "><g  event="remove"><circle r="11"></circle><path transform="scale(.8) translate(-16, -16)" d="M24.778,21.419 19.276,15.917 24.777,10.415 21.949,7.585 16.447,13.087 10.945,7.585 8.117,10.415 13.618,15.917 8.116,21.419 10.946,24.248 16.447,18.746 21.948,24.248z"></path><title>Remove link.</title></g><g  event="link:options"><circle r="11" transform="translate(25)"></circle><path fill="white" transform="scale(.55) translate(29, -16)" d="M31.229,17.736c0.064-0.571,0.104-1.148,0.104-1.736s-0.04-1.166-0.104-1.737l-4.377-1.557c-0.218-0.716-0.504-1.401-0.851-2.05l1.993-4.192c-0.725-0.91-1.549-1.734-2.458-2.459l-4.193,1.994c-0.647-0.347-1.334-0.632-2.049-0.849l-1.558-4.378C17.165,0.708,16.588,0.667,16,0.667s-1.166,0.041-1.737,0.105L12.707,5.15c-0.716,0.217-1.401,0.502-2.05,0.849L6.464,4.005C5.554,4.73,4.73,5.554,4.005,6.464l1.994,4.192c-0.347,0.648-0.632,1.334-0.849,2.05l-4.378,1.557C0.708,14.834,0.667,15.412,0.667,16s0.041,1.165,0.105,1.736l4.378,1.558c0.217,0.715,0.502,1.401,0.849,2.049l-1.994,4.193c0.725,0.909,1.549,1.733,2.459,2.458l4.192-1.993c0.648,0.347,1.334,0.633,2.05,0.851l1.557,4.377c0.571,0.064,1.148,0.104,1.737,0.104c0.588,0,1.165-0.04,1.736-0.104l1.558-4.377c0.715-0.218,1.399-0.504,2.049-0.851l4.193,1.993c0.909-0.725,1.733-1.549,2.458-2.458l-1.993-4.193c0.347-0.647,0.633-1.334,0.851-2.049L31.229,17.736zM16,20.871c-2.69,0-4.872-2.182-4.872-4.871c0-2.69,2.182-4.872,4.872-4.872c2.689,0,4.871,2.182,4.871,4.872C20.871,18.689,18.689,20.871,16,20.871z"></path><title>Link options.</title></g></g></g></g><!--z-index:74--><g   id="j_148" ><path  stroke="#aaaaaa" d="M 2123 1681 L 3071 1958 C 3077.6666666666665 1960 3083.6666666666665 1963 3089 1967 L 3235 2065" id="v-1759" stroke-width="2" stroke-dasharray="30 30" fill="none" style="opacity: 1;"></path><path  fill="black" stroke="black" d="M 0 0 0 0" transform="matrix(0.9597914758708674,0.28071395199672955,-0.28071395199672955,0.9597914758708674,2123,1680.81005859375)"></path><path  fill="#aaaaaa" stroke="#aaaaaa" d="M 20 0 L 0 10 L 20 20 z" id="v-1761" transform="matrix(-0.8279461870449122,-0.5608075528715634,0.5608075528715634,-0.8279461870449122,3228.9318843886085,2073.2793831022896)" style="opacity: 1;"></path><path  d="M 2123 1681 L 3071 1958 C 3077.6666666666665 1960 3083.6666666666665 1963 3089 1967 L 3235 2065" id="v-1760" fill="none" style="cursor: auto; pointer-events: visiblepainted;"></path><g ><g id="v-1753"  label-idx="0" cursor="move" transform="matrix(1,0,0,1,2691.09765625,1846.9947509765625)" style="cursor: default; opacity: 1;"><rect joint-selector="rect" id="v-1756" fill="#111111" rx="3" ry="3" pointer-events="none" width="128.51925659179688" height="33.04780960083008" transform="matrix(1,0,0,1,-64.3,-16.5)"></rect><text joint-selector="text" id="v-1755" font-size="24px" xml:space="preserve" y="0.8em" fill="#aaaaaa" text-anchor="middle" pointer-events="none" font-family="Open Sans" font-weight="normal" transform="matrix(1,0,0,1,0,-10)"><tspan dy="0" >Reads from</tspan></text></g><g id="v-1754"  label-idx="1" cursor="move" transform="matrix(1,0,0,1,2681.09765625,1873.394775390625)" style="cursor: default; opacity: 1;"><rect joint-selector="rect" id="v-1758" fill="#ffffff" rx="3" ry="3"  width="0" height="0" transform="matrix(1,0,0,1,0,0)" display="none"></rect><text joint-selector="text" id="v-1757" fill="#000000" font-size="14" text-anchor="middle" pointer-events="none"></text></g></g><g  display="none" style="display: none;"><g  transform="translate(3081, 1961)" id="v-1750"><circle  idx="0" r="10"></circle><path  idx="0" d="M16,5.333c-7.732,0-14,4.701-14,10.5c0,1.982,0.741,3.833,2.016,5.414L2,25.667l5.613-1.441c2.339,1.317,5.237,2.107,8.387,2.107c7.732,0,14-4.701,14-10.5C30,10.034,23.732,5.333,16,5.333z" transform="translate(5, -33)"></path><path  idx="0" transform="scale(.8) translate(9.5, -37)" d="M24.778,21.419 19.276,15.917 24.777,10.415 21.949,7.585 16.447,13.087 10.945,7.585 8.117,10.415 13.618,15.917 8.116,21.419 10.946,24.248 16.447,18.746 21.948,24.248z"><title>Remove vertex.</title></path></g></g><g  id="v-1763" display="none"><g  id="v-1751"><path  end="source" d="M 26 0 L 0 13 L 26 26 z"></path></g><g  id="v-1752"><path  end="target" d="M 26 0 L 0 13 L 26 26 z"></path></g></g><g  id="v-1762" display="none"><g  id="v-1749" transform="translate(2161.3945521866212, 1692.218661345669) "><g  event="remove"><circle r="11"></circle><path transform="scale(.8) translate(-16, -16)" d="M24.778,21.419 19.276,15.917 24.777,10.415 21.949,7.585 16.447,13.087 10.945,7.585 8.117,10.415 13.618,15.917 8.116,21.419 10.946,24.248 16.447,18.746 21.948,24.248z"></path><title>Remove link.</title></g><g  event="link:options"><circle r="11" transform="translate(25)"></circle><path fill="white" transform="scale(.55) translate(29, -16)" d="M31.229,17.736c0.064-0.571,0.104-1.148,0.104-1.736s-0.04-1.166-0.104-1.737l-4.377-1.557c-0.218-0.716-0.504-1.401-0.851-2.05l1.993-4.192c-0.725-0.91-1.549-1.734-2.458-2.459l-4.193,1.994c-0.647-0.347-1.334-0.632-2.049-0.849l-1.558-4.378C17.165,0.708,16.588,0.667,16,0.667s-1.166,0.041-1.737,0.105L12.707,5.15c-0.716,0.217-1.401,0.502-2.05,0.849L6.464,4.005C5.554,4.73,4.73,5.554,4.005,6.464l1.994,4.192c-0.347,0.648-0.632,1.334-0.849,2.05l-4.378,1.557C0.708,14.834,0.667,15.412,0.667,16s0.041,1.165,0.105,1.736l4.378,1.558c0.217,0.715,0.502,1.401,0.849,2.049l-1.994,4.193c0.725,0.909,1.549,1.733,2.459,2.458l4.192-1.993c0.648,0.347,1.334,0.633,2.05,0.851l1.557,4.377c0.571,0.064,1.148,0.104,1.737,0.104c0.588,0,1.165-0.04,1.736-0.104l1.558-4.377c0.715-0.218,1.399-0.504,2.049-0.851l4.193,1.993c0.909-0.725,1.733-1.549,2.458-2.458l-1.993-4.193c0.347-0.647,0.633-1.334,0.851-2.049L31.229,17.736zM16,20.871c-2.69,0-4.872-2.182-4.872-4.871c0-2.69,2.182-4.872,4.872-4.872c2.689,0,4.871,2.182,4.871,4.872C20.871,18.689,18.689,20.871,16,20.871z"></path><title>Link options.</title></g></g></g></g><!--z-index:75--><g   id="j_149" ><path  stroke="#aaaaaa" d="M 1910 1765 L 1933 2065" id="v-1776" stroke-width="2" stroke-dasharray="30 30" fill="none" style="opacity: 1;"></path><path  fill="black" stroke="black" d="M 0 0 0 0" transform="matrix(0.07644236820985921,0.9970740014374401,-0.9970740014374401,0.07644236820985921,1909.5,1765)"></path><path  fill="#aaaaaa" stroke="#aaaaaa" d="M 20 0 L 0 10 L 20 20 z" id="v-1778" transform="matrix(-0.07644223544142435,-0.9970740116163483,0.9970740116163483,-0.07644223544142435,1922.5292779413758,2065.7644593455775)" style="opacity: 1;"></path><path  d="M 1910 1765 L 1933 2065" id="v-1777" fill="none" style="cursor: auto; pointer-events: visiblepainted;"></path><g ><g id="v-1770"  label-idx="0" cursor="move" transform="matrix(1,0,0,1,1921.5,1915)" style="cursor: default; opacity: 1;"><rect joint-selector="rect" id="v-1773" fill="#111111" rx="3" ry="3" pointer-events="none" width="177.48854064941406" height="61.84781455993652" transform="matrix(1,0,0,1,-88.7,-30.9)"></rect><text joint-selector="text" id="v-1772" font-size="24px" xml:space="preserve" y="0.8em" fill="#aaaaaa" text-anchor="middle" pointer-events="none" font-family="Open Sans" font-weight="normal" transform="matrix(1,0,0,1,0,-24.4)"><tspan dy="0" >Reads from and</tspan><tspan dy="1.2em" x="0" >writes to</tspan></text></g><g id="v-1771"  label-idx="1" cursor="move" transform="matrix(1,0,0,1,1911.5,1955.800048828125)" style="cursor: default; opacity: 1;"><rect joint-selector="rect" id="v-1775" fill="#ffffff" rx="3" ry="3"  width="0" height="0" transform="matrix(1,0,0,1,0,0)" display="none"></rect><text joint-selector="text" id="v-1774" fill="#000000" font-size="14" text-anchor="middle" pointer-events="none"></text></g></g><g  display="none" style="display: none;"></g><g  id="v-1780" display="none"><g  id="v-1768"><path  end="source" d="M 26 0 L 0 13 L 26 26 z"></path></g><g  id="v-1769"><path  end="target" d="M 26 0 L 0 13 L 26 26 z"></path></g></g><g  id="v-1779" display="none"><g  id="v-1767" transform="translate(1913.057693610976, 1804.8829601431662) "><g  event="remove"><circle r="11"></circle><path transform="scale(.8) translate(-16, -16)" d="M24.778,21.419 19.276,15.917 24.777,10.415 21.949,7.585 16.447,13.087 10.945,7.585 8.117,10.415 13.618,15.917 8.116,21.419 10.946,24.248 16.447,18.746 21.948,24.248z"></path><title>Remove link.</title></g><g  event="link:options"><circle r="11" transform="translate(25)"></circle><path fill="white" transform="scale(.55) translate(29, -16)" d="M31.229,17.736c0.064-0.571,0.104-1.148,0.104-1.736s-0.04-1.166-0.104-1.737l-4.377-1.557c-0.218-0.716-0.504-1.401-0.851-2.05l1.993-4.192c-0.725-0.91-1.549-1.734-2.458-2.459l-4.193,1.994c-0.647-0.347-1.334-0.632-2.049-0.849l-1.558-4.378C17.165,0.708,16.588,0.667,16,0.667s-1.166,0.041-1.737,0.105L12.707,5.15c-0.716,0.217-1.401,0.502-2.05,0.849L6.464,4.005C5.554,4.73,4.73,5.554,4.005,6.464l1.994,4.192c-0.347,0.648-0.632,1.334-0.849,2.05l-4.378,1.557C0.708,14.834,0.667,15.412,0.667,16s0.041,1.165,0.105,1.736l4.378,1.558c0.217,0.715,0.502,1.401,0.849,2.049l-1.994,4.193c0.725,0.909,1.549,1.733,2.459,2.458l4.192-1.993c0.648,0.347,1.334,0.633,2.05,0.851l1.557,4.377c0.571,0.064,1.148,0.104,1.737,0.104c0.588,0,1.165-0.04,1.736-0.104l1.558-4.377c0.715-0.218,1.399-0.504,2.049-0.851l4.193,1.993c0.909-0.725,1.733-1.549,2.458-2.458l-1.993-4.193c0.347-0.647,0.633-1.334,0.851-2.049L31.229,17.736zM16,20.871c-2.69,0-4.872-2.182-4.872-4.871c0-2.69,2.182-4.872,4.872-4.872c2.689,0,4.871,2.182,4.871,4.872C20.871,18.689,18.689,20.871,16,20.871z"></path><title>Link options.</title></g></g></g></g><!--z-index:76--><g   id="j_150" ><path  stroke="#aaaaaa" d="M 1722 1765 L 1370 2065" id="v-1793" stroke-width="2" stroke-dasharray="30 30" fill="none" style="opacity: 1;"></path><path  fill="black" stroke="black" d="M 0 0 0 0" transform="matrix(-0.7610851030637531,0.6486520376090993,-0.6486520376090993,-0.7610851030637531,1722,1765)"></path><path  fill="#aaaaaa" stroke="#aaaaaa" d="M 20 0 L 0 10 L 20 20 z" id="v-1795" transform="matrix(0.7610849303172391,-0.6486522402982997,0.6486522402982997,0.7610849303172391,1363.5134681375946,2057.3891008341857)" style="opacity: 1;"></path><path  d="M 1722 1765 L 1370 2065" id="v-1794" fill="none" style="cursor: auto; pointer-events: visiblepainted;"></path><g ><g id="v-1787"  label-idx="0" cursor="move" transform="matrix(1,0,0,1,1546,1915)" style="cursor: default; opacity: 1;"><rect joint-selector="rect" id="v-1790" fill="#111111" rx="3" ry="3" pointer-events="none" width="177.48854064941406" height="61.84781455993652" transform="matrix(1,0,0,1,-88.7,-30.9)"></rect><text joint-selector="text" id="v-1789" font-size="24px" xml:space="preserve" y="0.8em" fill="#aaaaaa" text-anchor="middle" pointer-events="none" font-family="Open Sans" font-weight="normal" transform="matrix(1,0,0,1,0,-24.4)"><tspan dy="0" >Reads from and</tspan><tspan dy="1.2em" x="0" >writes to</tspan></text></g><g id="v-1788"  label-idx="1" cursor="move" transform="matrix(1,0,0,1,1536,1955.800048828125)" style="cursor: default; opacity: 1;"><rect joint-selector="rect" id="v-1792" fill="#ffffff" rx="3" ry="3"  width="0" height="0" transform="matrix(1,0,0,1,0,0)" display="none"></rect><text joint-selector="text" id="v-1791" fill="#000000" font-size="14" text-anchor="middle" pointer-events="none"></text></g></g><g  display="none" style="display: none;"></g><g  id="v-1797" display="none"><g  id="v-1785"><path  end="source" d="M 26 0 L 0 13 L 26 26 z"></path></g><g  id="v-1786"><path  end="target" d="M 26 0 L 0 13 L 26 26 z"></path></g></g><g  id="v-1796" display="none"><g  id="v-1784" transform="translate(1691.5565966449376, 1790.9460824048829) "><g  event="remove"><circle r="11"></circle><path transform="scale(.8) translate(-16, -16)" d="M24.778,21.419 19.276,15.917 24.777,10.415 21.949,7.585 16.447,13.087 10.945,7.585 8.117,10.415 13.618,15.917 8.116,21.419 10.946,24.248 16.447,18.746 21.948,24.248z"></path><title>Remove link.</title></g><g  event="link:options"><circle r="11" transform="translate(25)"></circle><path fill="white" transform="scale(.55) translate(29, -16)" d="M31.229,17.736c0.064-0.571,0.104-1.148,0.104-1.736s-0.04-1.166-0.104-1.737l-4.377-1.557c-0.218-0.716-0.504-1.401-0.851-2.05l1.993-4.192c-0.725-0.91-1.549-1.734-2.458-2.459l-4.193,1.994c-0.647-0.347-1.334-0.632-2.049-0.849l-1.558-4.378C17.165,0.708,16.588,0.667,16,0.667s-1.166,0.041-1.737,0.105L12.707,5.15c-0.716,0.217-1.401,0.502-2.05,0.849L6.464,4.005C5.554,4.73,4.73,5.554,4.005,6.464l1.994,4.192c-0.347,0.648-0.632,1.334-0.849,2.05l-4.378,1.557C0.708,14.834,0.667,15.412,0.667,16s0.041,1.165,0.105,1.736l4.378,1.558c0.217,0.715,0.502,1.401,0.849,2.049l-1.994,4.193c0.725,0.909,1.549,1.733,2.459,2.458l4.192-1.993c0.648,0.347,1.334,0.633,2.05,0.851l1.557,4.377c0.571,0.064,1.148,0.104,1.737,0.104c0.588,0,1.165-0.04,1.736-0.104l1.558-4.377c0.715-0.218,1.399-0.504,2.049-0.851l4.193,1.993c0.909-0.725,1.733-1.549,2.458-2.458l-1.993-4.193c0.347-0.647,0.633-1.334,0.851-2.049L31.229,17.736zM16,20.871c-2.69,0-4.872-2.182-4.872-4.871c0-2.69,2.182-4.872,4.872-4.872c2.689,0,4.871,2.182,4.871,4.872C20.871,18.689,18.689,20.871,16,20.871z"></path><title>Link options.</title></g></g></g></g><!--z-index:77--></g><g ></g><g ></g><g ></g></g></svg>