<svg xmlns="http://www.w3.org/2000/svg" xmlns:xlink="http://www.w3.org/1999/xlink" version="1.1" viewBox="0 0 2390 2600" style="background: #111111"><defs><style>@import url(https://fonts.googleapis.com/css?family=Open+Sans:400,700);</style></defs><defs joint-selector="defs"></defs><g joint-selector="layers"  transform="matrix(1,0,0,1,0,0)"><g ></g><g ><!--z-index:1--><!--z-index:2--><!--z-index:3--><!--z-index:4--><!--z-index:5--><!--z-index:6--><!--z-index:7--><!--z-index:8--><!--z-index:9--><!--z-index:10--><!--z-index:11--><!--z-index:12--><!--z-index:13--><!--z-index:14--><!--z-index:15--><!--z-index:16--><!--z-index:17--><!--z-index:18--><!--z-index:19--><g   id="j_152"  transform="translate(20,2563.6)"><g id="v-1800"><text  id="v-1801" font-size="22px" xml:space="preserve" y="0.8em" font-weight="normal" text-anchor="start" fill="#777777" pointer-events="none" display="block" font-family="Open Sans"><tspan dy="0" >Tuesday, December 17, 2024 at 11:18 AM Central European Standard Time</tspan></text></g></g><!--z-index:20--><g   id="j_151"  transform="translate(20,2520.4)"><g id="v-1798"><text  id="v-1799" font-size="36px" xml:space="preserve" y="0.8em" font-weight="normal" text-anchor="start" fill="#bbbbbb" pointer-events="none" display="block" font-family="Open Sans"><tspan dy="0" >[Component] AgileDeadTrees System - Store</tspan></text></g></g><!--z-index:21--><g   id="j_153"  transform="translate(994,165)" style=""><g  id="v-1805" style="opacity: 1;"><rect  x="0" y="160" width="400" height="240" rx="70" id="v-1807" stroke="#3b7add" stroke-width="2" pointer-events="visiblePainted" fill="#4287f5" style="fill: rgb(66, 135, 245); stroke: rgb(59, 122, 221);"></rect><circle  cx="200" cy="88.88888888888889" r="88.88888888888889" id="v-1806" stroke="#3b7add" stroke-width="2" pointer-events="visiblePainted" fill="#4287f5" style="fill: rgb(66, 135, 245); stroke: rgb(59, 122, 221);"></circle><line  x1="80" y1="266.6666666666667" x2="80" y2="400" id="v-1813" stroke="#3b7add" stroke-width="2" style="stroke: rgb(59, 122, 221);"></line><line  x1="320" y1="266.6666666666667" x2="320" y2="400" id="v-1814" stroke="#3b7add" stroke-width="2" style="stroke: rgb(59, 122, 221);"></line><text  id="v-1808" font-size="34" xml:space="preserve" y="0.8em" font-weight="bold" text-anchor="middle" pointer-events="visible" font-family="Open Sans" fill="#000000" transform="matrix(1,0,0,1,200,189.3)" style="fill: rgb(0, 0, 0);"><tspan dy="0" >Customer</tspan></text><text  id="v-1809" font-size="17" xml:space="preserve" y="0.8em" text-anchor="middle" font-family="Open Sans" fill="#000000" transform="matrix(1,0,0,1,200,230.1)" style="fill: rgb(0, 0, 0);"><tspan dy="0" >[Person]</tspan></text><text  id="v-1810" font-size="24" xml:space="preserve" y="0.8em" text-anchor="middle" font-family="Open Sans" fill="#000000" transform="matrix(1,0,0,1,200,260.5)" style="fill: rgb(0, 0, 0);"><tspan dy="0" >Can buy books (either e- form</tspan><tspan dy="1.2em" x="0" >or dead trees form) online,</tspan><tspan dy="1.2em" x="0" >including those available in</tspan><tspan dy="1.2em" x="0" >'beta'</tspan></text><g  id="v-1811" font-weight="normal" text-anchor="middle" color="#000000" transform="matrix(1,0,0,1,197.5,368)" display="none" style="fill: rgb(0, 0, 0);"><g ></g><g ></g><g ></g><g ></g></g><image  id="v-1812"></image></g></g><!--z-index:22--><g   id="j_154"  transform="translate(1340,2065)" style=""><g  id="v-1815" style="opacity: 1;"><rect  id="v-1816" rx="1" ry="1" stroke="#c7c7c7" stroke-width="2" pointer-events="visiblePainted" fill="#dddddd" width="450" height="300" style="fill: rgb(221, 221, 221); stroke: rgb(199, 199, 199);"></rect><text  id="v-1817" font-size="34" xml:space="preserve" y="0.8em" font-weight="bold" text-anchor="middle" pointer-events="visible" font-family="Open Sans" fill="#000000" transform="matrix(1,0,0,1,225,102.5)" style="fill: rgb(0, 0, 0);"><tspan dy="0" >Kafka</tspan></text><text  id="v-1818" font-size="17" xml:space="preserve" y="0.8em" text-anchor="middle" font-family="Open Sans" fill="#000000" transform="matrix(1,0,0,1,225,143.3)" style="fill: rgb(0, 0, 0);"><tspan dy="0" >[Container: Kafka]</tspan></text><text  id="v-1819" font-size="24" xml:space="preserve" y="0.8em" text-anchor="middle" font-family="Open Sans" fill="#000000" transform="matrix(1,0,0,1,225,173.7)" style="fill: rgb(0, 0, 0);"><tspan dy="0" >Message broker</tspan></text><g  id="v-1820" color="#000000" transform="matrix(1,0,0,1,222.5,268)" display="none" style="fill: rgb(0, 0, 0);"><g ></g><g ></g><g ></g><g ></g></g><image  id="v-1821"></image></g></g><!--z-index:23--><g   id="j_155"  transform="translate(1002,1465)" style=""><g  id="v-1825" style="opacity: 1;"><rect  id="v-1826" rx="1" ry="1" stroke="#d7dd3b" stroke-width="2" pointer-events="visiblePainted" fill="#eff542" width="450" height="300" style="fill: rgb(239, 245, 66); stroke: rgb(215, 221, 59);"></rect><text  id="v-1827" font-size="34" xml:space="preserve" y="0.8em" font-weight="bold" text-anchor="middle" pointer-events="visible" font-family="Open Sans" fill="#000000" transform="matrix(1,0,0,1,225,88.1)" style="fill: rgb(0, 0, 0);"><tspan dy="0" >API</tspan></text><text  id="v-1828" font-size="17" xml:space="preserve" y="0.8em" text-anchor="middle" font-family="Open Sans" fill="#000000" transform="matrix(1,0,0,1,225,128.9)" style="fill: rgb(0, 0, 0);"><tspan dy="0" >[Container: API]</tspan></text><text  id="v-1829" font-size="24" xml:space="preserve" y="0.8em" text-anchor="middle" font-family="Open Sans" fill="#000000" transform="matrix(1,0,0,1,225,159.3)" style="fill: rgb(0, 0, 0);"><tspan dy="0" >CRUD operations on books,</tspan><tspan dy="1.2em" x="0" >chapters, reviews, users, orders</tspan></text><g  id="v-1830" color="#000000" transform="matrix(1,0,0,1,222.5,268)" display="none" style="fill: rgb(0, 0, 0);"><g ></g><g ></g><g ></g><g ></g></g><image  id="v-1831"></image></g></g><!--z-index:24--><g   id="j_157"  transform="translate(199,845)" style=""><g id="v-1842"><rect  id="v-1843" width="1990" height="411" rx="0" ry="0" fill="#111111" stroke="#3bdd49" stroke-width="1" stroke-dasharray="20,20" pointer-events="none"></rect><text  id="v-1844" font-size="24px" xml:space="preserve" y="372" font-weight="normal" fill="#3bdd49" text-anchor="start" pointer-events="visible" font-family="Open Sans" transform="matrix(1,0,0,1,15,0)"><tspan dy="0" >Store</tspan></text><text  id="v-1845" font-size="17px" xml:space="preserve" y="396" font-weight="normal" fill="#3bdd49" text-anchor="start" pointer-events="visible" font-family="Open Sans" transform="matrix(1,0,0,1,15,0)"><tspan dy="0" >[Container]</tspan></text><image  id="v-1846" pointer-events="visible"></image></g></g><!--z-index:25--><g   id="j_156"  transform="translate(969,865)" style=""><g  id="v-1835" style="opacity: 1;"><rect  id="v-1836" rx="1" ry="1" stroke="#dd943b" stroke-width="2" pointer-events="visiblePainted" fill="#f5a442" width="450" height="300" style="fill: rgb(245, 164, 66); stroke: rgb(221, 148, 59);"></rect><text  id="v-1837" font-size="34" xml:space="preserve" y="0.8em" font-weight="bold" text-anchor="middle" pointer-events="visible" font-family="Open Sans" fill="#000000" transform="matrix(1,0,0,1,225,92.3)" style="fill: rgb(0, 0, 0);"><tspan dy="0" >Books Service</tspan></text><text  id="v-1838" font-size="17" xml:space="preserve" y="0.8em" text-anchor="middle" font-family="Open Sans" fill="#000000" transform="matrix(1,0,0,1,225,133.1)" style="fill: rgb(0, 0, 0);"><tspan dy="0" >[Component: Shows reader link for books they</tspan><tspan dy="1.2em" x="0" >bought]</tspan></text><text  id="v-1839" font-size="24" xml:space="preserve" y="0.8em" text-anchor="middle" font-family="Open Sans" fill="#000000" transform="matrix(1,0,0,1,225,183.9)" style="fill: rgb(0, 0, 0);"><tspan dy="0" >Manages books</tspan></text><g  id="v-1840" color="#000000" transform="matrix(1,0,0,1,222.5,268)" display="none" style="fill: rgb(0, 0, 0);"><g ></g><g ></g><g ></g><g ></g></g><image  id="v-1841"></image></g></g><!--z-index:26--><g   id="j_158"  transform="translate(219,865)" style=""><g  id="v-1850" style="opacity: 1;"><rect  id="v-1851" rx="1" ry="1" stroke="#dd943b" stroke-width="2" pointer-events="visiblePainted" fill="#f5a442" width="450" height="300" style="fill: rgb(245, 164, 66); stroke: rgb(221, 148, 59);"></rect><text  id="v-1852" font-size="34" xml:space="preserve" y="0.8em" font-weight="bold" text-anchor="middle" pointer-events="visible" font-family="Open Sans" fill="#000000" transform="matrix(1,0,0,1,225,102.5)" style="fill: rgb(0, 0, 0);"><tspan dy="0" >Payment Service</tspan></text><text  id="v-1853" font-size="17" xml:space="preserve" y="0.8em" text-anchor="middle" font-family="Open Sans" fill="#000000" transform="matrix(1,0,0,1,225,143.3)" style="fill: rgb(0, 0, 0);"><tspan dy="0" >[Component: Makes sure payments are done]</tspan></text><text  id="v-1854" font-size="24" xml:space="preserve" y="0.8em" text-anchor="middle" font-family="Open Sans" fill="#000000" transform="matrix(1,0,0,1,225,173.7)" style="fill: rgb(0, 0, 0);"><tspan dy="0" >Manages payments</tspan></text><g  id="v-1855" color="#000000" transform="matrix(1,0,0,1,222.5,268)" display="none" style="fill: rgb(0, 0, 0);"><g ></g><g ></g><g ></g><g ></g></g><image  id="v-1856"></image></g></g><!--z-index:27--><g   id="j_159"  transform="translate(1719,865)" style=""><g  id="v-1863" style="opacity: 1;"><rect  id="v-1864" rx="1" ry="1" stroke="#dd943b" stroke-width="2" pointer-events="visiblePainted" fill="#f5a442" width="450" height="300" style="fill: rgb(245, 164, 66); stroke: rgb(221, 148, 59);"></rect><text  id="v-1865" font-size="34" xml:space="preserve" y="0.8em" font-weight="bold" text-anchor="middle" pointer-events="visible" font-family="Open Sans" fill="#000000" transform="matrix(1,0,0,1,225,92.3)" style="fill: rgb(0, 0, 0);"><tspan dy="0" >Notification Service</tspan></text><text  id="v-1866" font-size="17" xml:space="preserve" y="0.8em" text-anchor="middle" font-family="Open Sans" fill="#000000" transform="matrix(1,0,0,1,225,133.1)" style="fill: rgb(0, 0, 0);"><tspan dy="0" >[Component: Sends notification to the Reader via</tspan><tspan dy="1.2em" x="0" >Kafka]</tspan></text><text  id="v-1867" font-size="24" xml:space="preserve" y="0.8em" text-anchor="middle" font-family="Open Sans" fill="#000000" transform="matrix(1,0,0,1,225,183.9)" style="fill: rgb(0, 0, 0);"><tspan dy="0" >Manages notifications</tspan></text><g  id="v-1868" color="#000000" transform="matrix(1,0,0,1,222.5,268)" display="none" style="fill: rgb(0, 0, 0);"><g ></g><g ></g><g ></g><g ></g></g><image  id="v-1869"></image></g></g><!--z-index:28--><g   id="j_160" ><path  stroke="#aaaaaa" d="M 1312 1765 L 1481 2065" id="v-1882" stroke-width="2" stroke-dasharray="30 30" fill="none" style="opacity: 1;"></path><path  fill="black" stroke="black" d="M 0 0 0 0" transform="matrix(0.49081270696473833,0.8712651070035721,-0.8712651070035721,0.49081270696473833,1311.5,1765)"></path><path  fill="#aaaaaa" stroke="#aaaaaa" d="M 20 0 L 0 10 L 20 20 z" id="v-1884" transform="matrix(-0.490812706964738,-0.8712651070035723,0.8712651070035723,-0.490812706964738,1471.787394944924,2069.908131655308)" style="opacity: 1;"></path><path  d="M 1312 1765 L 1481 2065" id="v-1883" fill="none" style="cursor: auto; pointer-events: visiblepainted;"></path><g ><g id="v-1876"  label-idx="0" cursor="move" transform="matrix(1,0,0,1,1396.5,1915)" style="cursor: default; opacity: 1;"><rect joint-selector="rect" id="v-1879" fill="#111111" rx="3" ry="3" pointer-events="none" width="177.49832153320312" height="61.602121353149414" transform="matrix(1,0,0,1,-88.7,-30.8)"></rect><text joint-selector="text" id="v-1878" font-size="24px" xml:space="preserve" y="0.8em" fill="#aaaaaa" text-anchor="middle" pointer-events="none" font-family="Open Sans" font-weight="normal" transform="matrix(1,0,0,1,0,-24.1)"><tspan dy="0" >Reads from and</tspan><tspan dy="1.2em" x="0" >writes to</tspan></text></g><g id="v-1877"  label-idx="1" cursor="move" transform="matrix(1,0,0,1,1386.5,1955.800048828125)" style="cursor: default; opacity: 1;"><rect joint-selector="rect" id="v-1881" fill="#ffffff" rx="3" ry="3"  width="0" height="0" transform="matrix(1,0,0,1,0,0)" display="none"></rect><text joint-selector="text" id="v-1880" fill="#000000" font-size="14" text-anchor="middle" pointer-events="none"></text></g></g><g  display="none" style="display: none;"></g><g  id="v-1886" display="none"><g  id="v-1874"><path  end="source" d="M 26 0 L 0 13 L 26 26 z"></path></g><g  id="v-1875"><path  end="target" d="M 26 0 L 0 13 L 26 26 z"></path></g></g><g  id="v-1885" display="none"><g  id="v-1873" transform="translate(1331.6325073670773, 1799.8506047936282) "><g  event="remove"><circle r="11"></circle><path transform="scale(.8) translate(-16, -16)" d="M24.778,21.419 19.276,15.917 24.777,10.415 21.949,7.585 16.447,13.087 10.945,7.585 8.117,10.415 13.618,15.917 8.116,21.419 10.946,24.248 16.447,18.746 21.948,24.248z"></path><title>Remove link.</title></g><g  event="link:options"><circle r="11" transform="translate(25)"></circle><path fill="white" transform="scale(.55) translate(29, -16)" d="M31.229,17.736c0.064-0.571,0.104-1.148,0.104-1.736s-0.04-1.166-0.104-1.737l-4.377-1.557c-0.218-0.716-0.504-1.401-0.851-2.05l1.993-4.192c-0.725-0.91-1.549-1.734-2.458-2.459l-4.193,1.994c-0.647-0.347-1.334-0.632-2.049-0.849l-1.558-4.378C17.165,0.708,16.588,0.667,16,0.667s-1.166,0.041-1.737,0.105L12.707,5.15c-0.716,0.217-1.401,0.502-2.05,0.849L6.464,4.005C5.554,4.73,4.73,5.554,4.005,6.464l1.994,4.192c-0.347,0.648-0.632,1.334-0.849,2.05l-4.378,1.557C0.708,14.834,0.667,15.412,0.667,16s0.041,1.165,0.105,1.736l4.378,1.558c0.217,0.715,0.502,1.401,0.849,2.049l-1.994,4.193c0.725,0.909,1.549,1.733,2.459,2.458l4.192-1.993c0.648,0.347,1.334,0.633,2.05,0.851l1.557,4.377c0.571,0.064,1.148,0.104,1.737,0.104c0.588,0,1.165-0.04,1.736-0.104l1.558-4.377c0.715-0.218,1.399-0.504,2.049-0.851l4.193,1.993c0.909-0.725,1.733-1.549,2.458-2.458l-1.993-4.193c0.347-0.647,0.633-1.334,0.851-2.049L31.229,17.736zM16,20.871c-2.69,0-4.872-2.182-4.872-4.871c0-2.69,2.182-4.872,4.872-4.872c2.689,0,4.871,2.182,4.871,4.872C20.871,18.689,18.689,20.871,16,20.871z"></path><title>Link options.</title></g></g></g></g><!--z-index:29--><g   id="j_161" ><path  stroke="#aaaaaa" d="M 994 538 L 617 865" id="v-1896" stroke-width="2" stroke-dasharray="30 30" fill="none" style="opacity: 1;"></path><path  fill="black" stroke="black" d="M 0 0 0 0" transform="matrix(-0.7556831557910288,0.6549373772000737,-0.6549373772000737,-0.7556831557910288,994,538.3300170898438)"></path><path  fill="#aaaaaa" stroke="#aaaaaa" d="M 20 0 L 0 10 L 20 20 z" id="v-1898" transform="matrix(0.755682981370628,-0.6549375784506484,0.6549375784506484,0.755682981370628,610.5306352220999,857.4431685293938)" style="opacity: 1;"></path><path  d="M 994 538 L 617 865" id="v-1897" fill="none" style="cursor: auto; pointer-events: visiblepainted;"></path><g ><g id="v-1890"  label-idx="0" cursor="move" transform="matrix(1,0,0,1,805.5,701.5)" style="cursor: default; opacity: 1;"><rect joint-selector="rect" id="v-1893" fill="#111111" rx="3" ry="3" pointer-events="none" width="53.84295654296875" height="32.80212211608887" transform="matrix(1,0,0,1,-26.9,-16.4)"></rect><text joint-selector="text" id="v-1892" font-size="24px" xml:space="preserve" y="0.8em" fill="#aaaaaa" text-anchor="middle" pointer-events="none" font-family="Open Sans" font-weight="normal" transform="matrix(1,0,0,1,0,-9.7)"><tspan dy="0" >Uses</tspan></text></g><g id="v-1891"  label-idx="1" cursor="move" transform="matrix(1,0,0,1,795.5,727.9000244140625)" style="cursor: default; opacity: 1;"><rect joint-selector="rect" id="v-1895" fill="#ffffff" rx="3" ry="3"  width="0" height="0" transform="matrix(1,0,0,1,0,0)" display="none"></rect><text joint-selector="text" id="v-1894" fill="#000000" font-size="14" text-anchor="middle" pointer-events="none"></text></g></g><g  display="none" style="display: none;"></g><g  id="v-1900" display="none"><g  id="v-1888"><path  end="source" d="M 26 0 L 0 13 L 26 26 z"></path></g><g  id="v-1889"><path  end="target" d="M 26 0 L 0 13 L 26 26 z"></path></g></g><g  id="v-1899" display="none"><g  id="v-1887" transform="translate(963.7830174767296, 564.2094251594415) "><g  event="remove"><circle r="11"></circle><path transform="scale(.8) translate(-16, -16)" d="M24.778,21.419 19.276,15.917 24.777,10.415 21.949,7.585 16.447,13.087 10.945,7.585 8.117,10.415 13.618,15.917 8.116,21.419 10.946,24.248 16.447,18.746 21.948,24.248z"></path><title>Remove link.</title></g><g  event="link:options"><circle r="11" transform="translate(25)"></circle><path fill="white" transform="scale(.55) translate(29, -16)" d="M31.229,17.736c0.064-0.571,0.104-1.148,0.104-1.736s-0.04-1.166-0.104-1.737l-4.377-1.557c-0.218-0.716-0.504-1.401-0.851-2.05l1.993-4.192c-0.725-0.91-1.549-1.734-2.458-2.459l-4.193,1.994c-0.647-0.347-1.334-0.632-2.049-0.849l-1.558-4.378C17.165,0.708,16.588,0.667,16,0.667s-1.166,0.041-1.737,0.105L12.707,5.15c-0.716,0.217-1.401,0.502-2.05,0.849L6.464,4.005C5.554,4.73,4.73,5.554,4.005,6.464l1.994,4.192c-0.347,0.648-0.632,1.334-0.849,2.05l-4.378,1.557C0.708,14.834,0.667,15.412,0.667,16s0.041,1.165,0.105,1.736l4.378,1.558c0.217,0.715,0.502,1.401,0.849,2.049l-1.994,4.193c0.725,0.909,1.549,1.733,2.459,2.458l4.192-1.993c0.648,0.347,1.334,0.633,2.05,0.851l1.557,4.377c0.571,0.064,1.148,0.104,1.737,0.104c0.588,0,1.165-0.04,1.736-0.104l1.558-4.377c0.715-0.218,1.399-0.504,2.049-0.851l4.193,1.993c0.909-0.725,1.733-1.549,2.458-2.458l-1.993-4.193c0.347-0.647,0.633-1.334,0.851-2.049L31.229,17.736zM16,20.871c-2.69,0-4.872-2.182-4.872-4.871c0-2.69,2.182-4.872,4.872-4.872c2.689,0,4.871,2.182,4.871,4.872C20.871,18.689,18.689,20.871,16,20.871z"></path><title>Link options.</title></g></g></g></g><!--z-index:30--><g   id="j_162" ><path  stroke="#aaaaaa" d="M 1194 565 L 1194 865" id="v-1910" stroke-width="2" stroke-dasharray="30 30" fill="none" style="opacity: 1;"></path><path  fill="black" stroke="black" d="M 0 0 0 0" transform="matrix(6.123233995736766e-17,1,-1,6.123233995736766e-17,1194,565)"></path><path  fill="#aaaaaa" stroke="#aaaaaa" d="M 20 0 L 0 10 L 20 20 z" id="v-1912" transform="matrix(-1.8369701987210297e-16,-1,1,-1.8369701987210297e-16,1184,864.9999999999998)" style="opacity: 1;"></path><path  d="M 1194 565 L 1194 865" id="v-1911" fill="none" style="cursor: auto; pointer-events: visiblepainted;"></path><g ><g id="v-1904"  label-idx="0" cursor="move" transform="matrix(1,0,0,1,1194,715)" style="cursor: default; opacity: 1;"><rect joint-selector="rect" id="v-1907" fill="#111111" rx="3" ry="3" pointer-events="none" width="53.84295654296875" height="32.80212211608887" transform="matrix(1,0,0,1,-26.9,-16.4)"></rect><text joint-selector="text" id="v-1906" font-size="24px" xml:space="preserve" y="0.8em" fill="#aaaaaa" text-anchor="middle" pointer-events="none" font-family="Open Sans" font-weight="normal" transform="matrix(1,0,0,1,0,-9.7)"><tspan dy="0" >Uses</tspan></text></g><g id="v-1905"  label-idx="1" cursor="move" transform="matrix(1,0,0,1,1184,741.4000244140625)" style="cursor: default; opacity: 1;"><rect joint-selector="rect" id="v-1909" fill="#ffffff" rx="3" ry="3"  width="0" height="0" transform="matrix(1,0,0,1,0,0)" display="none"></rect><text joint-selector="text" id="v-1908" fill="#000000" font-size="14" text-anchor="middle" pointer-events="none"></text></g></g><g  display="none" style="display: none;"></g><g  id="v-1914" display="none"><g  id="v-1902"><path  end="source" d="M 26 0 L 0 13 L 26 26 z"></path></g><g  id="v-1903"><path  end="target" d="M 26 0 L 0 13 L 26 26 z"></path></g></g><g  id="v-1913" display="none"><g  id="v-1901" transform="translate(1194, 605) "><g  event="remove"><circle r="11"></circle><path transform="scale(.8) translate(-16, -16)" d="M24.778,21.419 19.276,15.917 24.777,10.415 21.949,7.585 16.447,13.087 10.945,7.585 8.117,10.415 13.618,15.917 8.116,21.419 10.946,24.248 16.447,18.746 21.948,24.248z"></path><title>Remove link.</title></g><g  event="link:options"><circle r="11" transform="translate(25)"></circle><path fill="white" transform="scale(.55) translate(29, -16)" d="M31.229,17.736c0.064-0.571,0.104-1.148,0.104-1.736s-0.04-1.166-0.104-1.737l-4.377-1.557c-0.218-0.716-0.504-1.401-0.851-2.05l1.993-4.192c-0.725-0.91-1.549-1.734-2.458-2.459l-4.193,1.994c-0.647-0.347-1.334-0.632-2.049-0.849l-1.558-4.378C17.165,0.708,16.588,0.667,16,0.667s-1.166,0.041-1.737,0.105L12.707,5.15c-0.716,0.217-1.401,0.502-2.05,0.849L6.464,4.005C5.554,4.73,4.73,5.554,4.005,6.464l1.994,4.192c-0.347,0.648-0.632,1.334-0.849,2.05l-4.378,1.557C0.708,14.834,0.667,15.412,0.667,16s0.041,1.165,0.105,1.736l4.378,1.558c0.217,0.715,0.502,1.401,0.849,2.049l-1.994,4.193c0.725,0.909,1.549,1.733,2.459,2.458l4.192-1.993c0.648,0.347,1.334,0.633,2.05,0.851l1.557,4.377c0.571,0.064,1.148,0.104,1.737,0.104c0.588,0,1.165-0.04,1.736-0.104l1.558-4.377c0.715-0.218,1.399-0.504,2.049-0.851l4.193,1.993c0.909-0.725,1.733-1.549,2.458-2.458l-1.993-4.193c0.347-0.647,0.633-1.334,0.851-2.049L31.229,17.736zM16,20.871c-2.69,0-4.872-2.182-4.872-4.871c0-2.69,2.182-4.872,4.872-4.872c2.689,0,4.871,2.182,4.871,4.872C20.871,18.689,18.689,20.871,16,20.871z"></path><title>Link options.</title></g></g></g></g><!--z-index:31--><g   id="j_163" ><path  stroke="#aaaaaa" d="M 1394 538 L 1771 865" id="v-1924" stroke-width="2" stroke-dasharray="30 30" fill="none" style="opacity: 1;"></path><path  fill="black" stroke="black" d="M 0 0 0 0" transform="matrix(0.7556831121859338,0.6549374275127215,-0.6549374275127215,0.7556831121859338,1394,538.3300170898438)"></path><path  fill="#aaaaaa" stroke="#aaaaaa" d="M 20 0 L 0 10 L 20 20 z" id="v-1926" transform="matrix(-0.755683155791029,-0.6549373772000735,0.6549373772000735,-0.755683155791029,1764.3706169655968,872.5568278885046)" style="opacity: 1;"></path><path  d="M 1394 538 L 1771 865" id="v-1925" fill="none" style="cursor: auto; pointer-events: visiblepainted;"></path><g ><g id="v-1918"  label-idx="0" cursor="move" transform="matrix(1,0,0,1,1582.5,701.5)" style="cursor: default; opacity: 1;"><rect joint-selector="rect" id="v-1921" fill="#111111" rx="3" ry="3" pointer-events="none" width="53.84295654296875" height="32.80212211608887" transform="matrix(1,0,0,1,-26.9,-16.4)"></rect><text joint-selector="text" id="v-1920" font-size="24px" xml:space="preserve" y="0.8em" fill="#aaaaaa" text-anchor="middle" pointer-events="none" font-family="Open Sans" font-weight="normal" transform="matrix(1,0,0,1,0,-9.7)"><tspan dy="0" >Uses</tspan></text></g><g id="v-1919"  label-idx="1" cursor="move" transform="matrix(1,0,0,1,1572.5,727.9000244140625)" style="cursor: default; opacity: 1;"><rect joint-selector="rect" id="v-1923" fill="#ffffff" rx="3" ry="3"  width="0" height="0" transform="matrix(1,0,0,1,0,0)" display="none"></rect><text joint-selector="text" id="v-1922" fill="#000000" font-size="14" text-anchor="middle" pointer-events="none"></text></g></g><g  display="none" style="display: none;"></g><g  id="v-1928" display="none"><g  id="v-1916"><path  end="source" d="M 26 0 L 0 13 L 26 26 z"></path></g><g  id="v-1917"><path  end="target" d="M 26 0 L 0 13 L 26 26 z"></path></g></g><g  id="v-1927" display="none"><g  id="v-1915" transform="translate(1424.2169825232704, 564.2094251594415) "><g  event="remove"><circle r="11"></circle><path transform="scale(.8) translate(-16, -16)" d="M24.778,21.419 19.276,15.917 24.777,10.415 21.949,7.585 16.447,13.087 10.945,7.585 8.117,10.415 13.618,15.917 8.116,21.419 10.946,24.248 16.447,18.746 21.948,24.248z"></path><title>Remove link.</title></g><g  event="link:options"><circle r="11" transform="translate(25)"></circle><path fill="white" transform="scale(.55) translate(29, -16)" d="M31.229,17.736c0.064-0.571,0.104-1.148,0.104-1.736s-0.04-1.166-0.104-1.737l-4.377-1.557c-0.218-0.716-0.504-1.401-0.851-2.05l1.993-4.192c-0.725-0.91-1.549-1.734-2.458-2.459l-4.193,1.994c-0.647-0.347-1.334-0.632-2.049-0.849l-1.558-4.378C17.165,0.708,16.588,0.667,16,0.667s-1.166,0.041-1.737,0.105L12.707,5.15c-0.716,0.217-1.401,0.502-2.05,0.849L6.464,4.005C5.554,4.73,4.73,5.554,4.005,6.464l1.994,4.192c-0.347,0.648-0.632,1.334-0.849,2.05l-4.378,1.557C0.708,14.834,0.667,15.412,0.667,16s0.041,1.165,0.105,1.736l4.378,1.558c0.217,0.715,0.502,1.401,0.849,2.049l-1.994,4.193c0.725,0.909,1.549,1.733,2.459,2.458l4.192-1.993c0.648,0.347,1.334,0.633,2.05,0.851l1.557,4.377c0.571,0.064,1.148,0.104,1.737,0.104c0.588,0,1.165-0.04,1.736-0.104l1.558-4.377c0.715-0.218,1.399-0.504,2.049-0.851l4.193,1.993c0.909-0.725,1.733-1.549,2.458-2.458l-1.993-4.193c0.347-0.647,0.633-1.334,0.851-2.049L31.229,17.736zM16,20.871c-2.69,0-4.872-2.182-4.872-4.871c0-2.69,2.182-4.872,4.872-4.872c2.689,0,4.871,2.182,4.871,4.872C20.871,18.689,18.689,20.871,16,20.871z"></path><title>Link options.</title></g></g></g></g><!--z-index:32--><g   id="j_164" ><path  stroke="#aaaaaa" d="M 640 1165 L 1031 1465" id="v-1938" stroke-width="2" stroke-dasharray="30 30" fill="none" style="opacity: 1;"></path><path  fill="black" stroke="black" d="M 0 0 0 0" transform="matrix(0.7937531669119915,0.6082400102074709,-0.6082400102074709,0.7937531669119915,639.75,1165)"></path><path  fill="#aaaaaa" stroke="#aaaaaa" d="M 20 0 L 0 10 L 20 20 z" id="v-1940" transform="matrix(-0.7937531264159614,-0.6082400630547834,0.6082400630547834,-0.7937531264159614,1025.1675695984554,1472.9375344337698)" style="opacity: 1;"></path><path  d="M 640 1165 L 1031 1465" id="v-1939" fill="none" style="cursor: auto; pointer-events: visiblepainted;"></path><g ><g id="v-1932"  label-idx="0" cursor="move" transform="matrix(1,0,0,1,835.5,1315)" style="cursor: default; opacity: 1;"><rect joint-selector="rect" id="v-1935" fill="#111111" rx="3" ry="3" pointer-events="none" width="53.84295654296875" height="32.80212211608887" transform="matrix(1,0,0,1,-26.9,-16.4)"></rect><text joint-selector="text" id="v-1934" font-size="24px" xml:space="preserve" y="0.8em" fill="#aaaaaa" text-anchor="middle" pointer-events="none" font-family="Open Sans" font-weight="normal" transform="matrix(1,0,0,1,0,-9.7)"><tspan dy="0" >Uses</tspan></text></g><g id="v-1933"  label-idx="1" cursor="move" transform="matrix(1,0,0,1,825.5,1341.4000244140625)" style="cursor: default; opacity: 1;"><rect joint-selector="rect" id="v-1937" fill="#ffffff" rx="3" ry="3"  width="0" height="0" transform="matrix(1,0,0,1,0,0)" display="none"></rect><text joint-selector="text" id="v-1936" fill="#000000" font-size="14" text-anchor="middle" pointer-events="none"></text></g></g><g  display="none" style="display: none;"></g><g  id="v-1942" display="none"><g  id="v-1930"><path  end="source" d="M 26 0 L 0 13 L 26 26 z"></path></g><g  id="v-1931"><path  end="target" d="M 26 0 L 0 13 L 26 26 z"></path></g></g><g  id="v-1941" display="none"><g  id="v-1929" transform="translate(671.7351077760712, 1189.3491875519728) "><g  event="remove"><circle r="11"></circle><path transform="scale(.8) translate(-16, -16)" d="M24.778,21.419 19.276,15.917 24.777,10.415 21.949,7.585 16.447,13.087 10.945,7.585 8.117,10.415 13.618,15.917 8.116,21.419 10.946,24.248 16.447,18.746 21.948,24.248z"></path><title>Remove link.</title></g><g  event="link:options"><circle r="11" transform="translate(25)"></circle><path fill="white" transform="scale(.55) translate(29, -16)" d="M31.229,17.736c0.064-0.571,0.104-1.148,0.104-1.736s-0.04-1.166-0.104-1.737l-4.377-1.557c-0.218-0.716-0.504-1.401-0.851-2.05l1.993-4.192c-0.725-0.91-1.549-1.734-2.458-2.459l-4.193,1.994c-0.647-0.347-1.334-0.632-2.049-0.849l-1.558-4.378C17.165,0.708,16.588,0.667,16,0.667s-1.166,0.041-1.737,0.105L12.707,5.15c-0.716,0.217-1.401,0.502-2.05,0.849L6.464,4.005C5.554,4.73,4.73,5.554,4.005,6.464l1.994,4.192c-0.347,0.648-0.632,1.334-0.849,2.05l-4.378,1.557C0.708,14.834,0.667,15.412,0.667,16s0.041,1.165,0.105,1.736l4.378,1.558c0.217,0.715,0.502,1.401,0.849,2.049l-1.994,4.193c0.725,0.909,1.549,1.733,2.459,2.458l4.192-1.993c0.648,0.347,1.334,0.633,2.05,0.851l1.557,4.377c0.571,0.064,1.148,0.104,1.737,0.104c0.588,0,1.165-0.04,1.736-0.104l1.558-4.377c0.715-0.218,1.399-0.504,2.049-0.851l4.193,1.993c0.909-0.725,1.733-1.549,2.458-2.458l-1.993-4.193c0.347-0.647,0.633-1.334,0.851-2.049L31.229,17.736zM16,20.871c-2.69,0-4.872-2.182-4.872-4.871c0-2.69,2.182-4.872,4.872-4.872c2.689,0,4.871,2.182,4.871,4.872C20.871,18.689,18.689,20.871,16,20.871z"></path><title>Link options.</title></g></g></g></g><!--z-index:33--><g   id="j_165" ><path  stroke="#aaaaaa" d="M 1202 1165 L 1219 1465" id="v-1952" stroke-width="2" stroke-dasharray="30 30" fill="none" style="opacity: 1;"></path><path  fill="black" stroke="black" d="M 0 0 0 0" transform="matrix(0.05491696725701112,0.998490924699515,-0.998490924699515,0.05491696725701112,1202.25,1165)"></path><path  fill="#aaaaaa" stroke="#aaaaaa" d="M 20 0 L 0 10 L 20 20 z" id="v-1954" transform="matrix(-0.0549171002141198,-0.9984909173868696,0.9984909173868696,-0.0549171002141198,1208.765067492335,1465.5492168947596)" style="opacity: 1;"></path><path  d="M 1202 1165 L 1219 1465" id="v-1953" fill="none" style="cursor: auto; pointer-events: visiblepainted;"></path><g ><g id="v-1946"  label-idx="0" cursor="move" transform="matrix(1,0,0,1,1210.5,1315)" style="cursor: default; opacity: 1;"><rect joint-selector="rect" id="v-1949" fill="#111111" rx="3" ry="3" pointer-events="none" width="53.84295654296875" height="32.80212211608887" transform="matrix(1,0,0,1,-26.9,-16.4)"></rect><text joint-selector="text" id="v-1948" font-size="24px" xml:space="preserve" y="0.8em" fill="#aaaaaa" text-anchor="middle" pointer-events="none" font-family="Open Sans" font-weight="normal" transform="matrix(1,0,0,1,0,-9.7)"><tspan dy="0" >Uses</tspan></text></g><g id="v-1947"  label-idx="1" cursor="move" transform="matrix(1,0,0,1,1200.5,1341.4000244140625)" style="cursor: default; opacity: 1;"><rect joint-selector="rect" id="v-1951" fill="#ffffff" rx="3" ry="3"  width="0" height="0" transform="matrix(1,0,0,1,0,0)" display="none"></rect><text joint-selector="text" id="v-1950" fill="#000000" font-size="14" text-anchor="middle" pointer-events="none"></text></g></g><g  display="none" style="display: none;"></g><g  id="v-1956" display="none"><g  id="v-1944"><path  end="source" d="M 26 0 L 0 13 L 26 26 z"></path></g><g  id="v-1945"><path  end="target" d="M 26 0 L 0 13 L 26 26 z"></path></g></g><g  id="v-1955" display="none"><g  id="v-1943" transform="translate(1204.2630361485692, 1204.9359320335743) "><g  event="remove"><circle r="11"></circle><path transform="scale(.8) translate(-16, -16)" d="M24.778,21.419 19.276,15.917 24.777,10.415 21.949,7.585 16.447,13.087 10.945,7.585 8.117,10.415 13.618,15.917 8.116,21.419 10.946,24.248 16.447,18.746 21.948,24.248z"></path><title>Remove link.</title></g><g  event="link:options"><circle r="11" transform="translate(25)"></circle><path fill="white" transform="scale(.55) translate(29, -16)" d="M31.229,17.736c0.064-0.571,0.104-1.148,0.104-1.736s-0.04-1.166-0.104-1.737l-4.377-1.557c-0.218-0.716-0.504-1.401-0.851-2.05l1.993-4.192c-0.725-0.91-1.549-1.734-2.458-2.459l-4.193,1.994c-0.647-0.347-1.334-0.632-2.049-0.849l-1.558-4.378C17.165,0.708,16.588,0.667,16,0.667s-1.166,0.041-1.737,0.105L12.707,5.15c-0.716,0.217-1.401,0.502-2.05,0.849L6.464,4.005C5.554,4.73,4.73,5.554,4.005,6.464l1.994,4.192c-0.347,0.648-0.632,1.334-0.849,2.05l-4.378,1.557C0.708,14.834,0.667,15.412,0.667,16s0.041,1.165,0.105,1.736l4.378,1.558c0.217,0.715,0.502,1.401,0.849,2.049l-1.994,4.193c0.725,0.909,1.549,1.733,2.459,2.458l4.192-1.993c0.648,0.347,1.334,0.633,2.05,0.851l1.557,4.377c0.571,0.064,1.148,0.104,1.737,0.104c0.588,0,1.165-0.04,1.736-0.104l1.558-4.377c0.715-0.218,1.399-0.504,2.049-0.851l4.193,1.993c0.909-0.725,1.733-1.549,2.458-2.458l-1.993-4.193c0.347-0.647,0.633-1.334,0.851-2.049L31.229,17.736zM16,20.871c-2.69,0-4.872-2.182-4.872-4.871c0-2.69,2.182-4.872,4.872-4.872c2.689,0,4.871,2.182,4.871,4.872C20.871,18.689,18.689,20.871,16,20.871z"></path><title>Link options.</title></g></g></g></g><!--z-index:34--><g   id="j_166" ><path  stroke="#aaaaaa" d="M 1765 1165 L 1406 1465" id="v-1966" stroke-width="2" stroke-dasharray="30 30" fill="none" style="opacity: 1;"></path><path  fill="black" stroke="black" d="M 0 0 0 0" transform="matrix(-0.7669046436533756,0.6417610673318295,-0.6417610673318295,-0.7669046436533756,1764.75,1165)"></path><path  fill="#aaaaaa" stroke="#aaaaaa" d="M 20 0 L 0 10 L 20 20 z" id="v-1968" transform="matrix(0.7669044727420382,-0.6417612715708673,0.6417612715708673,0.7669044727420382,1399.8324099396837,1457.3309654492257)" style="opacity: 1;"></path><path  d="M 1765 1165 L 1406 1465" id="v-1967" fill="none" style="cursor: auto; pointer-events: visiblepainted;"></path><g ><g id="v-1960"  label-idx="0" cursor="move" transform="matrix(1,0,0,1,1585.5,1315)" style="cursor: default; opacity: 1;"><rect joint-selector="rect" id="v-1963" fill="#111111" rx="3" ry="3" pointer-events="none" width="53.84295654296875" height="32.80212211608887" transform="matrix(1,0,0,1,-26.9,-16.4)"></rect><text joint-selector="text" id="v-1962" font-size="24px" xml:space="preserve" y="0.8em" fill="#aaaaaa" text-anchor="middle" pointer-events="none" font-family="Open Sans" font-weight="normal" transform="matrix(1,0,0,1,0,-9.7)"><tspan dy="0" >Uses</tspan></text></g><g id="v-1961"  label-idx="1" cursor="move" transform="matrix(1,0,0,1,1575.5,1341.4000244140625)" style="cursor: default; opacity: 1;"><rect joint-selector="rect" id="v-1965" fill="#ffffff" rx="3" ry="3"  width="0" height="0" transform="matrix(1,0,0,1,0,0)" display="none"></rect><text joint-selector="text" id="v-1964" fill="#000000" font-size="14" text-anchor="middle" pointer-events="none"></text></g></g><g  display="none" style="display: none;"></g><g  id="v-1970" display="none"><g  id="v-1958"><path  end="source" d="M 26 0 L 0 13 L 26 26 z"></path></g><g  id="v-1959"><path  end="target" d="M 26 0 L 0 13 L 26 26 z"></path></g></g><g  id="v-1969" display="none"><g  id="v-1957" transform="translate(1734.3062177489203, 1190.649400209816) "><g  event="remove"><circle r="11"></circle><path transform="scale(.8) translate(-16, -16)" d="M24.778,21.419 19.276,15.917 24.777,10.415 21.949,7.585 16.447,13.087 10.945,7.585 8.117,10.415 13.618,15.917 8.116,21.419 10.946,24.248 16.447,18.746 21.948,24.248z"></path><title>Remove link.</title></g><g  event="link:options"><circle r="11" transform="translate(25)"></circle><path fill="white" transform="scale(.55) translate(29, -16)" d="M31.229,17.736c0.064-0.571,0.104-1.148,0.104-1.736s-0.04-1.166-0.104-1.737l-4.377-1.557c-0.218-0.716-0.504-1.401-0.851-2.05l1.993-4.192c-0.725-0.91-1.549-1.734-2.458-2.459l-4.193,1.994c-0.647-0.347-1.334-0.632-2.049-0.849l-1.558-4.378C17.165,0.708,16.588,0.667,16,0.667s-1.166,0.041-1.737,0.105L12.707,5.15c-0.716,0.217-1.401,0.502-2.05,0.849L6.464,4.005C5.554,4.73,4.73,5.554,4.005,6.464l1.994,4.192c-0.347,0.648-0.632,1.334-0.849,2.05l-4.378,1.557C0.708,14.834,0.667,15.412,0.667,16s0.041,1.165,0.105,1.736l4.378,1.558c0.217,0.715,0.502,1.401,0.849,2.049l-1.994,4.193c0.725,0.909,1.549,1.733,2.459,2.458l4.192-1.993c0.648,0.347,1.334,0.633,2.05,0.851l1.557,4.377c0.571,0.064,1.148,0.104,1.737,0.104c0.588,0,1.165-0.04,1.736-0.104l1.558-4.377c0.715-0.218,1.399-0.504,2.049-0.851l4.193,1.993c0.909-0.725,1.733-1.549,2.458-2.458l-1.993-4.193c0.347-0.647,0.633-1.334,0.851-2.049L31.229,17.736zM16,20.871c-2.69,0-4.872-2.182-4.872-4.871c0-2.69,2.182-4.872,4.872-4.872c2.689,0,4.871,2.182,4.871,4.872C20.871,18.689,18.689,20.871,16,20.871z"></path><title>Link options.</title></g></g></g></g><!--z-index:35--><g   id="j_167" ><path  stroke="#aaaaaa" d="M 1897 1165 L 1612 2065" id="v-1983" stroke-width="2" stroke-dasharray="30 30" fill="none" style="opacity: 1;"></path><path  fill="black" stroke="black" d="M 0 0 0 0" transform="matrix(-0.3011694230369926,0.9535706468990984,-0.9535706468990984,-0.3011694230369926,1896.6300048828125,1165)"></path><path  fill="#aaaaaa" stroke="#aaaaaa" d="M 20 0 L 0 10 L 20 20 z" id="v-1985" transform="matrix(0.3011695500126023,-0.9535706067959554,0.9535706067959554,0.3011695500126023,1602.844322064727,2061.988366036583)" style="opacity: 1;"></path><path  d="M 1897 1165 L 1612 2065" id="v-1984" fill="none" style="cursor: auto; pointer-events: visiblepainted;"></path><g ><g id="v-1977"  label-idx="0" cursor="move" transform="matrix(1,0,0,1,1754.5,1615)" style="cursor: default; opacity: 1;"><rect joint-selector="rect" id="v-1980" fill="#111111" rx="3" ry="3" pointer-events="none" width="198.7010040283203" height="61.602121353149414" transform="matrix(1,0,0,1,-99.4,-30.8)"></rect><text joint-selector="text" id="v-1979" font-size="24px" xml:space="preserve" y="0.8em" fill="#aaaaaa" text-anchor="middle" pointer-events="none" font-family="Open Sans" font-weight="normal" transform="matrix(1,0,0,1,0,-24.1)"><tspan dy="0" >Reads</tspan><tspan dy="1.2em" x="0" >notifications from</tspan></text></g><g id="v-1978"  label-idx="1" cursor="move" transform="matrix(1,0,0,1,1744.5,1655.800048828125)" style="cursor: default; opacity: 1;"><rect joint-selector="rect" id="v-1982" fill="#ffffff" rx="3" ry="3"  width="0" height="0" transform="matrix(1,0,0,1,0,0)" display="none"></rect><text joint-selector="text" id="v-1981" fill="#000000" font-size="14" text-anchor="middle" pointer-events="none"></text></g></g><g  display="none" style="display: none;"></g><g  id="v-1987" display="none"><g  id="v-1975"><path  end="source" d="M 26 0 L 0 13 L 26 26 z"></path></g><g  id="v-1976"><path  end="target" d="M 26 0 L 0 13 L 26 26 z"></path></g></g><g  id="v-1986" display="none"><g  id="v-1974" transform="translate(1884.9243318122237, 1203.1336890140296) "><g  event="remove"><circle r="11"></circle><path transform="scale(.8) translate(-16, -16)" d="M24.778,21.419 19.276,15.917 24.777,10.415 21.949,7.585 16.447,13.087 10.945,7.585 8.117,10.415 13.618,15.917 8.116,21.419 10.946,24.248 16.447,18.746 21.948,24.248z"></path><title>Remove link.</title></g><g  event="link:options"><circle r="11" transform="translate(25)"></circle><path fill="white" transform="scale(.55) translate(29, -16)" d="M31.229,17.736c0.064-0.571,0.104-1.148,0.104-1.736s-0.04-1.166-0.104-1.737l-4.377-1.557c-0.218-0.716-0.504-1.401-0.851-2.05l1.993-4.192c-0.725-0.91-1.549-1.734-2.458-2.459l-4.193,1.994c-0.647-0.347-1.334-0.632-2.049-0.849l-1.558-4.378C17.165,0.708,16.588,0.667,16,0.667s-1.166,0.041-1.737,0.105L12.707,5.15c-0.716,0.217-1.401,0.502-2.05,0.849L6.464,4.005C5.554,4.73,4.73,5.554,4.005,6.464l1.994,4.192c-0.347,0.648-0.632,1.334-0.849,2.05l-4.378,1.557C0.708,14.834,0.667,15.412,0.667,16s0.041,1.165,0.105,1.736l4.378,1.558c0.217,0.715,0.502,1.401,0.849,2.049l-1.994,4.193c0.725,0.909,1.549,1.733,2.459,2.458l4.192-1.993c0.648,0.347,1.334,0.633,2.05,0.851l1.557,4.377c0.571,0.064,1.148,0.104,1.737,0.104c0.588,0,1.165-0.04,1.736-0.104l1.558-4.377c0.715-0.218,1.399-0.504,2.049-0.851l4.193,1.993c0.909-0.725,1.733-1.549,2.458-2.458l-1.993-4.193c0.347-0.647,0.633-1.334,0.851-2.049L31.229,17.736zM16,20.871c-2.69,0-4.872-2.182-4.872-4.871c0-2.69,2.182-4.872,4.872-4.872c2.689,0,4.871,2.182,4.871,4.872C20.871,18.689,18.689,20.871,16,20.871z"></path><title>Link options.</title></g></g></g></g><!--z-index:36--><!--z-index:37--><!--z-index:38--><!--z-index:39--><!--z-index:40--><!--z-index:41--><!--z-index:42--><!--z-index:43--><!--z-index:44--><!--z-index:45--><!--z-index:46--><!--z-index:47--><!--z-index:48--><!--z-index:49--><!--z-index:50--><!--z-index:51--><!--z-index:52--><!--z-index:53--><!--z-index:54--><!--z-index:55--><!--z-index:56--><!--z-index:57--><!--z-index:58--><!--z-index:59--><!--z-index:60--><!--z-index:61--><!--z-index:62--><!--z-index:63--><!--z-index:64--><!--z-index:65--><!--z-index:66--><!--z-index:67--><!--z-index:68--><!--z-index:69--><!--z-index:70--><!--z-index:71--><!--z-index:72--><!--z-index:73--><!--z-index:74--><!--z-index:75--><!--z-index:76--><!--z-index:77--></g><g ></g><g ></g><g ></g></g></svg>