<svg xmlns="http://www.w3.org/2000/svg" xmlns:xlink="http://www.w3.org/1999/xlink" version="1.1" viewBox="0 0 2980 2040" style="background: #111111"><defs><style>@import url(https://fonts.googleapis.com/css?family=Open+Sans:400,700);</style></defs><defs joint-selector="defs"></defs><g joint-selector="layers"  transform="matrix(1,0,0,1,0,0)"><g ></g><g ><!--z-index:1--><!--z-index:2--><!--z-index:3--><!--z-index:4--><!--z-index:5--><!--z-index:6--><!--z-index:7--><!--z-index:8--><!--z-index:9--><!--z-index:10--><!--z-index:11--><!--z-index:12--><!--z-index:13--><!--z-index:14--><!--z-index:15--><!--z-index:16--><!--z-index:17--><!--z-index:18--><g   id="j_102"  transform="translate(20,2003.6)"><g id="v-1205"><text  id="v-1206" font-size="22px" xml:space="preserve" y="0.8em" font-weight="normal" text-anchor="start" fill="#777777" pointer-events="none" display="block" font-family="Open Sans"><tspan dy="0" >Tuesday, December 17, 2024 at 11:18 AM Central European Standard Time</tspan></text></g></g><!--z-index:19--><g   id="j_101"  transform="translate(20,1960.3999999999999)"><g id="v-1203"><text  id="v-1204" font-size="36px" xml:space="preserve" y="0.8em" font-weight="normal" text-anchor="start" fill="#bbbbbb" pointer-events="none" display="block" font-family="Open Sans"><tspan dy="0" >[System Context] AgileDeadTrees System</tspan></text></g></g><!--z-index:20--><g   id="j_103"  transform="translate(889,1505)" style=""><g  id="v-1210" style="opacity: 1;"><rect  id="v-1211" rx="1" ry="1" stroke="#dd3b56" stroke-width="2" pointer-events="visiblePainted" fill="#f54260" width="450" height="300" style="fill: rgb(245, 66, 96); stroke: rgb(221, 59, 86);"></rect><text  id="v-1212" font-size="34" xml:space="preserve" y="0.8em" font-weight="bold" text-anchor="middle" pointer-events="visible" font-family="Open Sans" fill="#000000" transform="matrix(1,0,0,1,225,102.5)" style="fill: rgb(0, 0, 0);"><tspan dy="0" >Emailed Excel Sheets</tspan></text><text  id="v-1213" font-size="17" xml:space="preserve" y="0.8em" text-anchor="middle" font-family="Open Sans" fill="#000000" transform="matrix(1,0,0,1,225,143.3)" style="fill: rgb(0, 0, 0);"><tspan dy="0" >[Software System]</tspan></text><text  id="v-1214" font-size="24" xml:space="preserve" y="0.8em" text-anchor="middle" font-family="Open Sans" fill="#000000" transform="matrix(1,0,0,1,225,173.7)" style="fill: rgb(0, 0, 0);"><tspan dy="0" >External</tspan></text><g  id="v-1215" color="#000000" transform="matrix(1,0,0,1,222.5,268)" display="none" style="fill: rgb(0, 0, 0);"><g ></g><g ></g><g ></g><g ></g></g><image  id="v-1216"></image></g></g><!--z-index:21--><g   id="j_104"  transform="translate(1639,1505)" style=""><g  id="v-1217" style="opacity: 1;"><rect  id="v-1218" rx="1" ry="1" stroke="#dd3b56" stroke-width="2" pointer-events="visiblePainted" fill="#f54260" width="450" height="300" style="fill: rgb(245, 66, 96); stroke: rgb(221, 59, 86);"></rect><text  id="v-1219" font-size="34" xml:space="preserve" y="0.8em" font-weight="bold" text-anchor="middle" pointer-events="visible" font-family="Open Sans" fill="#000000" transform="matrix(1,0,0,1,225,102.5)" style="fill: rgb(0, 0, 0);"><tspan dy="0" >Mainframe</tspan></text><text  id="v-1220" font-size="17" xml:space="preserve" y="0.8em" text-anchor="middle" font-family="Open Sans" fill="#000000" transform="matrix(1,0,0,1,225,143.3)" style="fill: rgb(0, 0, 0);"><tspan dy="0" >[Software System]</tspan></text><text  id="v-1221" font-size="24" xml:space="preserve" y="0.8em" text-anchor="middle" font-family="Open Sans" fill="#000000" transform="matrix(1,0,0,1,225,173.7)" style="fill: rgb(0, 0, 0);"><tspan dy="0" >External</tspan></text><g  id="v-1222" color="#000000" transform="matrix(1,0,0,1,222.5,268)" display="none" style="fill: rgb(0, 0, 0);"><g ></g><g ></g><g ></g><g ></g></g><image  id="v-1223"></image></g></g><!--z-index:22--><g   id="j_106"  transform="translate(199,165)" style=""><g id="v-1237"><rect  id="v-1238" width="2580" height="1114" rx="0" ry="0" fill="#111111" stroke="#cccccc" stroke-width="1" stroke-dasharray="5,5" pointer-events="none"></rect><text  id="v-1239" font-size="24px" xml:space="preserve" y="1099" font-weight="normal" fill="#cccccc" text-anchor="start" pointer-events="visible" font-family="Open Sans" transform="matrix(1,0,0,1,15,0)"><tspan dy="0" >Enterprise</tspan></text><text  id="v-1240" font-size="17px" xml:space="preserve" display="none" y="1099" font-weight="normal" fill="#cccccc" text-anchor="start" pointer-events="visible" font-family="Open Sans" transform="matrix(1,0,0,1,15,0)"><tspan dy="0" style="fill-opacity: 0; stroke-opacity: 0;" >-</tspan></text><image  id="v-1241" pointer-events="visible"></image></g></g><!--z-index:23--><g   id="j_107"  transform="translate(219,185)" style=""><g id="v-1242"><rect  id="v-1243" width="2540" height="494" rx="0" ry="0" fill="#111111" stroke="#cccccc" stroke-width="1" stroke-dasharray="5,5" pointer-events="none"></rect><text  id="v-1244" font-size="24px" xml:space="preserve" y="479" font-weight="normal" fill="#cccccc" text-anchor="start" pointer-events="visible" font-family="Open Sans" transform="matrix(1,0,0,1,15,0)"><tspan dy="0" >User Layer</tspan></text><text  id="v-1245" font-size="17px" xml:space="preserve" display="none" y="479" font-weight="normal" fill="#cccccc" text-anchor="start" pointer-events="visible" font-family="Open Sans" transform="matrix(1,0,0,1,15,0)"><tspan dy="0" style="fill-opacity: 0; stroke-opacity: 0;" >-</tspan></text><image  id="v-1246" pointer-events="visible"></image></g></g><!--z-index:24--><g   id="j_111"  transform="translate(1264,905)" style=""><g  id="v-1292" style="opacity: 1;"><rect  id="v-1293" rx="1" ry="1" stroke="#c7c7c7" stroke-width="2" pointer-events="visiblePainted" fill="#dddddd" width="450" height="300" style="fill: rgb(221, 221, 221); stroke: rgb(199, 199, 199);"></rect><text  id="v-1294" font-size="34" xml:space="preserve" y="0.8em" font-weight="bold" text-anchor="middle" pointer-events="visible" font-family="Open Sans" fill="#000000" transform="matrix(1,0,0,1,225,88.1)" style="fill: rgb(0, 0, 0);"><tspan dy="0" >AgileDeadTrees System</tspan></text><text  id="v-1295" font-size="17" xml:space="preserve" y="0.8em" text-anchor="middle" font-family="Open Sans" fill="#000000" transform="matrix(1,0,0,1,225,128.9)" style="fill: rgb(0, 0, 0);"><tspan dy="0" >[Software System]</tspan></text><text  id="v-1296" font-size="24" xml:space="preserve" y="0.8em" text-anchor="middle" font-family="Open Sans" fill="#000000" transform="matrix(1,0,0,1,225,159.3)" style="fill: rgb(0, 0, 0);"><tspan dy="0" >Système de gestion de contenu et</tspan><tspan dy="1.2em" x="0" >de vente</tspan></text><g  id="v-1297" color="#000000" transform="matrix(1,0,0,1,210,268)" display="none" style="fill: rgb(0, 0, 0);"><g  transform="translate(5 0)"><svg xmlns="http://www.w3.org/2000/svg" width="20" height="20" fill="currentColor" viewBox="0 0 16 16"><path fill-rule="evenodd" d="M6.5 12a5.5 5.5 0 1 0 0-11 5.5 5.5 0 0 0 0 11zM13 6.5a6.5 6.5 0 1 1-13 0 6.5 6.5 0 0 1 13 0z"></path><path d="M10.344 11.742c.03.04.062.078.098.115l3.85 3.85a1 1 0 0 0 1.415-1.414l-3.85-3.85a1.007 1.007 0 0 0-.115-.1 6.538 6.538 0 0 1-1.398 1.4z"></path><path fill-rule="evenodd" d="M6.5 3a.5.5 0 0 1 .5.5V6h2.5a.5.5 0 0 1 0 1H7v2.5a.5.5 0 0 1-1 0V7H3.5a.5.5 0 0 1 0-1H6V3.5a.5.5 0 0 1 .5-.5z"></path></svg></g><g ></g><g ></g><g ></g></g><image  id="v-1298"></image></g></g><!--z-index:25--><g   id="j_105"  transform="translate(2339,205)" style=""><g  id="v-1227" style="opacity: 1;"><rect  x="0" y="160" width="400" height="240" rx="70" id="v-1229" stroke="#3b7add" stroke-width="2" pointer-events="visiblePainted" fill="#4287f5" style="fill: rgb(66, 135, 245); stroke: rgb(59, 122, 221);"></rect><circle  cx="200" cy="88.88888888888889" r="88.88888888888889" id="v-1228" stroke="#3b7add" stroke-width="2" pointer-events="visiblePainted" fill="#4287f5" style="fill: rgb(66, 135, 245); stroke: rgb(59, 122, 221);"></circle><line  x1="80" y1="266.6666666666667" x2="80" y2="400" id="v-1235" stroke="#3b7add" stroke-width="2" style="stroke: rgb(59, 122, 221);"></line><line  x1="320" y1="266.6666666666667" x2="320" y2="400" id="v-1236" stroke="#3b7add" stroke-width="2" style="stroke: rgb(59, 122, 221);"></line><text  id="v-1230" font-size="34" xml:space="preserve" y="0.8em" font-weight="bold" text-anchor="middle" pointer-events="visible" font-family="Open Sans" fill="#000000" transform="matrix(1,0,0,1,200,189.3)" style="fill: rgb(0, 0, 0);"><tspan dy="0" >Publisher</tspan></text><text  id="v-1231" font-size="17" xml:space="preserve" y="0.8em" text-anchor="middle" font-family="Open Sans" fill="#000000" transform="matrix(1,0,0,1,200,230.1)" style="fill: rgb(0, 0, 0);"><tspan dy="0" >[Person]</tspan></text><text  id="v-1232" font-size="24" xml:space="preserve" y="0.8em" text-anchor="middle" font-family="Open Sans" fill="#000000" transform="matrix(1,0,0,1,200,260.5)" style="fill: rgb(0, 0, 0);"><tspan dy="0" >Publishes books and can push</tspan><tspan dy="1.2em" x="0" >authors' chapters to those</tspan><tspan dy="1.2em" x="0" >customers who bought the</tspan><tspan dy="1.2em" x="0" >'beta'</tspan></text><g  id="v-1233" font-weight="normal" text-anchor="middle" color="#000000" transform="matrix(1,0,0,1,197.5,368)" display="none" style="fill: rgb(0, 0, 0);"><g ></g><g ></g><g ></g><g ></g></g><image  id="v-1234"></image></g></g><!--z-index:26--><g   id="j_108"  transform="translate(1639,205)" style=""><g  id="v-1250" style="opacity: 1;"><rect  x="0" y="160" width="400" height="240" rx="70" id="v-1252" stroke="#3b7add" stroke-width="2" pointer-events="visiblePainted" fill="#4287f5" style="fill: rgb(66, 135, 245); stroke: rgb(59, 122, 221);"></rect><circle  cx="200" cy="88.88888888888889" r="88.88888888888889" id="v-1251" stroke="#3b7add" stroke-width="2" pointer-events="visiblePainted" fill="#4287f5" style="fill: rgb(66, 135, 245); stroke: rgb(59, 122, 221);"></circle><line  x1="80" y1="266.6666666666667" x2="80" y2="400" id="v-1258" stroke="#3b7add" stroke-width="2" style="stroke: rgb(59, 122, 221);"></line><line  x1="320" y1="266.6666666666667" x2="320" y2="400" id="v-1259" stroke="#3b7add" stroke-width="2" style="stroke: rgb(59, 122, 221);"></line><text  id="v-1253" font-size="34" xml:space="preserve" y="0.8em" font-weight="bold" text-anchor="middle" pointer-events="visible" font-family="Open Sans" fill="#000000" transform="matrix(1,0,0,1,200,218.1)" style="fill: rgb(0, 0, 0);"><tspan dy="0" >Author</tspan></text><text  id="v-1254" font-size="17" xml:space="preserve" y="0.8em" text-anchor="middle" font-family="Open Sans" fill="#000000" transform="matrix(1,0,0,1,200,258.9)" style="fill: rgb(0, 0, 0);"><tspan dy="0" >[Person]</tspan></text><text  id="v-1255" font-size="24" xml:space="preserve" y="0.8em" text-anchor="middle" font-family="Open Sans" fill="#000000" transform="matrix(1,0,0,1,200,289.3)" style="fill: rgb(0, 0, 0);"><tspan dy="0" >Publish chapters and can reject</tspan><tspan dy="1.2em" x="0" >proposed review changes</tspan></text><g  id="v-1256" font-weight="normal" text-anchor="middle" color="#000000" transform="matrix(1,0,0,1,197.5,368)" display="none" style="fill: rgb(0, 0, 0);"><g ></g><g ></g><g ></g><g ></g></g><image  id="v-1257"></image></g></g><!--z-index:27--><g   id="j_109"  transform="translate(939,205)" style=""><g  id="v-1263" style="opacity: 1;"><rect  x="0" y="160" width="400" height="240" rx="70" id="v-1265" stroke="#3b7add" stroke-width="2" pointer-events="visiblePainted" fill="#4287f5" style="fill: rgb(66, 135, 245); stroke: rgb(59, 122, 221);"></rect><circle  cx="200" cy="88.88888888888889" r="88.88888888888889" id="v-1264" stroke="#3b7add" stroke-width="2" pointer-events="visiblePainted" fill="#4287f5" style="fill: rgb(66, 135, 245); stroke: rgb(59, 122, 221);"></circle><line  x1="80" y1="266.6666666666667" x2="80" y2="400" id="v-1271" stroke="#3b7add" stroke-width="2" style="stroke: rgb(59, 122, 221);"></line><line  x1="320" y1="266.6666666666667" x2="320" y2="400" id="v-1272" stroke="#3b7add" stroke-width="2" style="stroke: rgb(59, 122, 221);"></line><text  id="v-1266" font-size="34" xml:space="preserve" y="0.8em" font-weight="bold" text-anchor="middle" pointer-events="visible" font-family="Open Sans" fill="#000000" transform="matrix(1,0,0,1,200,203.7)" style="fill: rgb(0, 0, 0);"><tspan dy="0" >Reviewer</tspan></text><text  id="v-1267" font-size="17" xml:space="preserve" y="0.8em" text-anchor="middle" font-family="Open Sans" fill="#000000" transform="matrix(1,0,0,1,200,244.5)" style="fill: rgb(0, 0, 0);"><tspan dy="0" >[Person]</tspan></text><text  id="v-1268" font-size="24" xml:space="preserve" y="0.8em" text-anchor="middle" font-family="Open Sans" fill="#000000" transform="matrix(1,0,0,1,200,274.9)" style="fill: rgb(0, 0, 0);"><tspan dy="0" >See the chapters, make review</tspan><tspan dy="1.2em" x="0" >comments, and notify authors</tspan><tspan dy="1.2em" x="0" >on review</tspan></text><g  id="v-1269" font-weight="normal" text-anchor="middle" color="#000000" transform="matrix(1,0,0,1,197.5,368)" display="none" style="fill: rgb(0, 0, 0);"><g ></g><g ></g><g ></g><g ></g></g><image  id="v-1270"></image></g></g><!--z-index:28--><g   id="j_110"  transform="translate(239,205)" style=""><g  id="v-1276" style="opacity: 1;"><rect  x="0" y="160" width="400" height="240" rx="70" id="v-1278" stroke="#3b7add" stroke-width="2" pointer-events="visiblePainted" fill="#4287f5" style="fill: rgb(66, 135, 245); stroke: rgb(59, 122, 221);"></rect><circle  cx="200" cy="88.88888888888889" r="88.88888888888889" id="v-1277" stroke="#3b7add" stroke-width="2" pointer-events="visiblePainted" fill="#4287f5" style="fill: rgb(66, 135, 245); stroke: rgb(59, 122, 221);"></circle><line  x1="80" y1="266.6666666666667" x2="80" y2="400" id="v-1284" stroke="#3b7add" stroke-width="2" style="stroke: rgb(59, 122, 221);"></line><line  x1="320" y1="266.6666666666667" x2="320" y2="400" id="v-1285" stroke="#3b7add" stroke-width="2" style="stroke: rgb(59, 122, 221);"></line><text  id="v-1279" font-size="34" xml:space="preserve" y="0.8em" font-weight="bold" text-anchor="middle" pointer-events="visible" font-family="Open Sans" fill="#000000" transform="matrix(1,0,0,1,200,189.3)" style="fill: rgb(0, 0, 0);"><tspan dy="0" >Customer</tspan></text><text  id="v-1280" font-size="17" xml:space="preserve" y="0.8em" text-anchor="middle" font-family="Open Sans" fill="#000000" transform="matrix(1,0,0,1,200,230.1)" style="fill: rgb(0, 0, 0);"><tspan dy="0" >[Person]</tspan></text><text  id="v-1281" font-size="24" xml:space="preserve" y="0.8em" text-anchor="middle" font-family="Open Sans" fill="#000000" transform="matrix(1,0,0,1,200,260.5)" style="fill: rgb(0, 0, 0);"><tspan dy="0" >Can buy books (either e- form</tspan><tspan dy="1.2em" x="0" >or dead trees form) online,</tspan><tspan dy="1.2em" x="0" >including those available in</tspan><tspan dy="1.2em" x="0" >'beta'</tspan></text><g  id="v-1282" font-weight="normal" text-anchor="middle" color="#000000" transform="matrix(1,0,0,1,197.5,368)" display="none" style="fill: rgb(0, 0, 0);"><g ></g><g ></g><g ></g><g ></g></g><image  id="v-1283"></image></g></g><!--z-index:29--><g   id="j_112" ><path  stroke="#aaaaaa" d="M 1395 1205 L 1208 1505" id="v-1308" stroke-width="2" stroke-dasharray="30 30" fill="none" style="opacity: 1;"></path><path  fill="black" stroke="black" d="M 0 0 0 0" transform="matrix(-0.5299989865422612,0.8479982749181605,-0.8479982749181605,-0.5299989865422612,1395.25,1205)"></path><path  fill="#aaaaaa" stroke="#aaaaaa" d="M 20 0 L 0 10 L 20 20 z" id="v-1310" transform="matrix(0.5299987607066415,-0.8479984160653982,0.8479984160653982,0.5299987607066415,1199.2700770604044,1499.7000160848377)" style="opacity: 1;"></path><path  d="M 1395 1205 L 1208 1505" id="v-1309" fill="none" style="cursor: auto; pointer-events: visiblepainted;"></path><g ><g id="v-1302"  label-idx="0" cursor="move" transform="matrix(1,0,0,1,1301.5,1355)" style="cursor: default; opacity: 1;"><rect joint-selector="rect" id="v-1305" fill="#111111" rx="3" ry="3" pointer-events="none" width="128.47360229492188" height="32.509958267211914" transform="matrix(1,0,0,1,-64.2,-16.2)"></rect><text joint-selector="text" id="v-1304" font-size="24px" xml:space="preserve" y="0.8em" fill="#aaaaaa" text-anchor="middle" pointer-events="none" font-family="Open Sans" font-weight="normal" transform="matrix(1,0,0,1,0,-9.7)"><tspan dy="0" >Reads from</tspan></text></g><g id="v-1303"  label-idx="1" cursor="move" transform="matrix(1,0,0,1,1291.5,1381.4000244140625)" style="cursor: default; opacity: 1;"><rect joint-selector="rect" id="v-1307" fill="#ffffff" rx="3" ry="3"  width="0" height="0" transform="matrix(1,0,0,1,0,0)" display="none"></rect><text joint-selector="text" id="v-1306" fill="#000000" font-size="14" text-anchor="middle" pointer-events="none"></text></g></g><g  display="none" style="display: none;"></g><g  id="v-1312" display="none"><g  id="v-1300"><path  end="source" d="M 26 0 L 0 13 L 26 26 z"></path></g><g  id="v-1301"><path  end="target" d="M 26 0 L 0 13 L 26 26 z"></path></g></g><g  id="v-1311" display="none"><g  id="v-1299" transform="translate(1373.8407411961143, 1238.9453349794958) "><g  event="remove"><circle r="11"></circle><path transform="scale(.8) translate(-16, -16)" d="M24.778,21.419 19.276,15.917 24.777,10.415 21.949,7.585 16.447,13.087 10.945,7.585 8.117,10.415 13.618,15.917 8.116,21.419 10.946,24.248 16.447,18.746 21.948,24.248z"></path><title>Remove link.</title></g><g  event="link:options"><circle r="11" transform="translate(25)"></circle><path fill="white" transform="scale(.55) translate(29, -16)" d="M31.229,17.736c0.064-0.571,0.104-1.148,0.104-1.736s-0.04-1.166-0.104-1.737l-4.377-1.557c-0.218-0.716-0.504-1.401-0.851-2.05l1.993-4.192c-0.725-0.91-1.549-1.734-2.458-2.459l-4.193,1.994c-0.647-0.347-1.334-0.632-2.049-0.849l-1.558-4.378C17.165,0.708,16.588,0.667,16,0.667s-1.166,0.041-1.737,0.105L12.707,5.15c-0.716,0.217-1.401,0.502-2.05,0.849L6.464,4.005C5.554,4.73,4.73,5.554,4.005,6.464l1.994,4.192c-0.347,0.648-0.632,1.334-0.849,2.05l-4.378,1.557C0.708,14.834,0.667,15.412,0.667,16s0.041,1.165,0.105,1.736l4.378,1.558c0.217,0.715,0.502,1.401,0.849,2.049l-1.994,4.193c0.725,0.909,1.549,1.733,2.459,2.458l4.192-1.993c0.648,0.347,1.334,0.633,2.05,0.851l1.557,4.377c0.571,0.064,1.148,0.104,1.737,0.104c0.588,0,1.165-0.04,1.736-0.104l1.558-4.377c0.715-0.218,1.399-0.504,2.049-0.851l4.193,1.993c0.909-0.725,1.733-1.549,2.458-2.458l-1.993-4.193c0.347-0.647,0.633-1.334,0.851-2.049L31.229,17.736zM16,20.871c-2.69,0-4.872-2.182-4.872-4.871c0-2.69,2.182-4.872,4.872-4.872c2.689,0,4.871,2.182,4.871,4.872C20.871,18.689,18.689,20.871,16,20.871z"></path><title>Link options.</title></g></g></g></g><!--z-index:30--><g   id="j_113" ><path  stroke="#aaaaaa" d="M 1583 1205 L 1770 1505" id="v-1322" stroke-width="2" stroke-dasharray="30 30" fill="none" style="opacity: 1;"></path><path  fill="black" stroke="black" d="M 0 0 0 0" transform="matrix(0.52999893008336,0.8479983102049754,-0.8479983102049754,0.52999893008336,1582.75,1205)"></path><path  fill="#aaaaaa" stroke="#aaaaaa" d="M 20 0 L 0 10 L 20 20 z" id="v-1324" transform="matrix(-0.5299989865422614,-0.8479982749181603,0.8479982749181603,-0.5299989865422614,1761.769958288116,1510.2999921458543)" style="opacity: 1;"></path><path  d="M 1583 1205 L 1770 1505" id="v-1323" fill="none" style="cursor: auto; pointer-events: visiblepainted;"></path><g ><g id="v-1316"  label-idx="0" cursor="move" transform="matrix(1,0,0,1,1676.5,1355)" style="cursor: default; opacity: 1;"><rect joint-selector="rect" id="v-1319" fill="#111111" rx="3" ry="3" pointer-events="none" width="128.47360229492188" height="32.509958267211914" transform="matrix(1,0,0,1,-64.2,-16.2)"></rect><text joint-selector="text" id="v-1318" font-size="24px" xml:space="preserve" y="0.8em" fill="#aaaaaa" text-anchor="middle" pointer-events="none" font-family="Open Sans" font-weight="normal" transform="matrix(1,0,0,1,0,-9.7)"><tspan dy="0" >Reads from</tspan></text></g><g id="v-1317"  label-idx="1" cursor="move" transform="matrix(1,0,0,1,1666.5,1381.4000244140625)" style="cursor: default; opacity: 1;"><rect joint-selector="rect" id="v-1321" fill="#ffffff" rx="3" ry="3"  width="0" height="0" transform="matrix(1,0,0,1,0,0)" display="none"></rect><text joint-selector="text" id="v-1320" fill="#000000" font-size="14" text-anchor="middle" pointer-events="none"></text></g></g><g  display="none" style="display: none;"></g><g  id="v-1326" display="none"><g  id="v-1314"><path  end="source" d="M 26 0 L 0 13 L 26 26 z"></path></g><g  id="v-1315"><path  end="target" d="M 26 0 L 0 13 L 26 26 z"></path></g></g><g  id="v-1325" display="none"><g  id="v-1313" transform="translate(1604.159258803886, 1238.9453349794958) "><g  event="remove"><circle r="11"></circle><path transform="scale(.8) translate(-16, -16)" d="M24.778,21.419 19.276,15.917 24.777,10.415 21.949,7.585 16.447,13.087 10.945,7.585 8.117,10.415 13.618,15.917 8.116,21.419 10.946,24.248 16.447,18.746 21.948,24.248z"></path><title>Remove link.</title></g><g  event="link:options"><circle r="11" transform="translate(25)"></circle><path fill="white" transform="scale(.55) translate(29, -16)" d="M31.229,17.736c0.064-0.571,0.104-1.148,0.104-1.736s-0.04-1.166-0.104-1.737l-4.377-1.557c-0.218-0.716-0.504-1.401-0.851-2.05l1.993-4.192c-0.725-0.91-1.549-1.734-2.458-2.459l-4.193,1.994c-0.647-0.347-1.334-0.632-2.049-0.849l-1.558-4.378C17.165,0.708,16.588,0.667,16,0.667s-1.166,0.041-1.737,0.105L12.707,5.15c-0.716,0.217-1.401,0.502-2.05,0.849L6.464,4.005C5.554,4.73,4.73,5.554,4.005,6.464l1.994,4.192c-0.347,0.648-0.632,1.334-0.849,2.05l-4.378,1.557C0.708,14.834,0.667,15.412,0.667,16s0.041,1.165,0.105,1.736l4.378,1.558c0.217,0.715,0.502,1.401,0.849,2.049l-1.994,4.193c0.725,0.909,1.549,1.733,2.459,2.458l4.192-1.993c0.648,0.347,1.334,0.633,2.05,0.851l1.557,4.377c0.571,0.064,1.148,0.104,1.737,0.104c0.588,0,1.165-0.04,1.736-0.104l1.558-4.377c0.715-0.218,1.399-0.504,2.049-0.851l4.193,1.993c0.909-0.725,1.733-1.549,2.458-2.458l-1.993-4.193c0.347-0.647,0.633-1.334,0.851-2.049L31.229,17.736zM16,20.871c-2.69,0-4.872-2.182-4.872-4.871c0-2.69,2.182-4.872,4.872-4.872c2.689,0,4.871,2.182,4.871,4.872C20.871,18.689,18.689,20.871,16,20.871z"></path><title>Link options.</title></g></g></g></g><!--z-index:31--><g   id="j_114" ><path  stroke="#aaaaaa" d="M 1731 605 L 1570 905" id="v-1336" stroke-width="2" stroke-dasharray="30 30" fill="none" style="opacity: 1;"></path><path  fill="black" stroke="black" d="M 0 0 0 0" transform="matrix(-0.47410338017583303,0.8804691845293903,-0.8804691845293903,-0.47410338017583303,1731.31005859375,605)"></path><path  fill="#aaaaaa" stroke="#aaaaaa" d="M 20 0 L 0 10 L 20 20 z" id="v-1338" transform="matrix(0.4741034974173923,-0.8804691213986988,0.8804691213986988,0.4741034974173923,1560.965260139964,900.2589687398131)" style="opacity: 1;"></path><path  d="M 1731 605 L 1570 905" id="v-1337" fill="none" style="cursor: auto; pointer-events: visiblepainted;"></path><g ><g id="v-1330"  label-idx="0" cursor="move" transform="matrix(1,0,0,1,1650.5,755)" style="cursor: default; opacity: 1;"><rect joint-selector="rect" id="v-1333" fill="#111111" rx="3" ry="3" pointer-events="none" width="53.84462356567383" height="32.509958267211914" transform="matrix(1,0,0,1,-26.9,-16.2)"></rect><text joint-selector="text" id="v-1332" font-size="24px" xml:space="preserve" y="0.8em" fill="#aaaaaa" text-anchor="middle" pointer-events="none" font-family="Open Sans" font-weight="normal" transform="matrix(1,0,0,1,0,-9.7)"><tspan dy="0" >Uses</tspan></text></g><g id="v-1331"  label-idx="1" cursor="move" transform="matrix(1,0,0,1,1640.5,781.4000244140625)" style="cursor: default; opacity: 1;"><rect joint-selector="rect" id="v-1335" fill="#ffffff" rx="3" ry="3"  width="0" height="0" transform="matrix(1,0,0,1,0,0)" display="none"></rect><text joint-selector="text" id="v-1334" fill="#000000" font-size="14" text-anchor="middle" pointer-events="none"></text></g></g><g  display="none" style="display: none;"></g><g  id="v-1340" display="none"><g  id="v-1328"><path  end="source" d="M 26 0 L 0 13 L 26 26 z"></path></g><g  id="v-1329"><path  end="target" d="M 26 0 L 0 13 L 26 26 z"></path></g></g><g  id="v-1339" display="none"><g  id="v-1327" transform="translate(1712.0850669738259, 640.2452168189579) "><g  event="remove"><circle r="11"></circle><path transform="scale(.8) translate(-16, -16)" d="M24.778,21.419 19.276,15.917 24.777,10.415 21.949,7.585 16.447,13.087 10.945,7.585 8.117,10.415 13.618,15.917 8.116,21.419 10.946,24.248 16.447,18.746 21.948,24.248z"></path><title>Remove link.</title></g><g  event="link:options"><circle r="11" transform="translate(25)"></circle><path fill="white" transform="scale(.55) translate(29, -16)" d="M31.229,17.736c0.064-0.571,0.104-1.148,0.104-1.736s-0.04-1.166-0.104-1.737l-4.377-1.557c-0.218-0.716-0.504-1.401-0.851-2.05l1.993-4.192c-0.725-0.91-1.549-1.734-2.458-2.459l-4.193,1.994c-0.647-0.347-1.334-0.632-2.049-0.849l-1.558-4.378C17.165,0.708,16.588,0.667,16,0.667s-1.166,0.041-1.737,0.105L12.707,5.15c-0.716,0.217-1.401,0.502-2.05,0.849L6.464,4.005C5.554,4.73,4.73,5.554,4.005,6.464l1.994,4.192c-0.347,0.648-0.632,1.334-0.849,2.05l-4.378,1.557C0.708,14.834,0.667,15.412,0.667,16s0.041,1.165,0.105,1.736l4.378,1.558c0.217,0.715,0.502,1.401,0.849,2.049l-1.994,4.193c0.725,0.909,1.549,1.733,2.459,2.458l4.192-1.993c0.648,0.347,1.334,0.633,2.05,0.851l1.557,4.377c0.571,0.064,1.148,0.104,1.737,0.104c0.588,0,1.165-0.04,1.736-0.104l1.558-4.377c0.715-0.218,1.399-0.504,2.049-0.851l4.193,1.993c0.909-0.725,1.733-1.549,2.458-2.458l-1.993-4.193c0.347-0.647,0.633-1.334,0.851-2.049L31.229,17.736zM16,20.871c-2.69,0-4.872-2.182-4.872-4.871c0-2.69,2.182-4.872,4.872-4.872c2.689,0,4.871,2.182,4.871,4.872C20.871,18.689,18.689,20.871,16,20.871z"></path><title>Link options.</title></g></g></g></g><!--z-index:32--><g   id="j_115" ><path  stroke="#aaaaaa" d="M 1247 605 L 1408 905" id="v-1350" stroke-width="2" stroke-dasharray="30 30" fill="none" style="opacity: 1;"></path><path  fill="black" stroke="black" d="M 0 0 0 0" transform="matrix(0.47410332155505014,0.8804692160947302,-0.8804692160947302,0.47410332155505014,1246.68994140625,605)"></path><path  fill="#aaaaaa" stroke="#aaaaaa" d="M 20 0 L 0 10 L 20 20 z" id="v-1352" transform="matrix(-0.4741032629342655,-0.8804692476600661,0.8804692476600661,-0.4741032629342655,1399.425353824617,909.7410376059435)" style="opacity: 1;"></path><path  d="M 1247 605 L 1408 905" id="v-1351" fill="none" style="cursor: auto; pointer-events: visiblepainted;"></path><g ><g id="v-1344"  label-idx="0" cursor="move" transform="matrix(1,0,0,1,1327.5,755)" style="cursor: default; opacity: 1;"><rect joint-selector="rect" id="v-1347" fill="#111111" rx="3" ry="3" pointer-events="none" width="53.84462356567383" height="32.509958267211914" transform="matrix(1,0,0,1,-26.9,-16.2)"></rect><text joint-selector="text" id="v-1346" font-size="24px" xml:space="preserve" y="0.8em" fill="#aaaaaa" text-anchor="middle" pointer-events="none" font-family="Open Sans" font-weight="normal" transform="matrix(1,0,0,1,0,-9.7)"><tspan dy="0" >Uses</tspan></text></g><g id="v-1345"  label-idx="1" cursor="move" transform="matrix(1,0,0,1,1317.5,781.4000244140625)" style="cursor: default; opacity: 1;"><rect joint-selector="rect" id="v-1349" fill="#ffffff" rx="3" ry="3"  width="0" height="0" transform="matrix(1,0,0,1,0,0)" display="none"></rect><text joint-selector="text" id="v-1348" fill="#000000" font-size="14" text-anchor="middle" pointer-events="none"></text></g></g><g  display="none" style="display: none;"></g><g  id="v-1354" display="none"><g  id="v-1342"><path  end="source" d="M 26 0 L 0 13 L 26 26 z"></path></g><g  id="v-1343"><path  end="target" d="M 26 0 L 0 13 L 26 26 z"></path></g></g><g  id="v-1353" display="none"><g  id="v-1341" transform="translate(1265.9149330261741, 640.2452168189579) "><g  event="remove"><circle r="11"></circle><path transform="scale(.8) translate(-16, -16)" d="M24.778,21.419 19.276,15.917 24.777,10.415 21.949,7.585 16.447,13.087 10.945,7.585 8.117,10.415 13.618,15.917 8.116,21.419 10.946,24.248 16.447,18.746 21.948,24.248z"></path><title>Remove link.</title></g><g  event="link:options"><circle r="11" transform="translate(25)"></circle><path fill="white" transform="scale(.55) translate(29, -16)" d="M31.229,17.736c0.064-0.571,0.104-1.148,0.104-1.736s-0.04-1.166-0.104-1.737l-4.377-1.557c-0.218-0.716-0.504-1.401-0.851-2.05l1.993-4.192c-0.725-0.91-1.549-1.734-2.458-2.459l-4.193,1.994c-0.647-0.347-1.334-0.632-2.049-0.849l-1.558-4.378C17.165,0.708,16.588,0.667,16,0.667s-1.166,0.041-1.737,0.105L12.707,5.15c-0.716,0.217-1.401,0.502-2.05,0.849L6.464,4.005C5.554,4.73,4.73,5.554,4.005,6.464l1.994,4.192c-0.347,0.648-0.632,1.334-0.849,2.05l-4.378,1.557C0.708,14.834,0.667,15.412,0.667,16s0.041,1.165,0.105,1.736l4.378,1.558c0.217,0.715,0.502,1.401,0.849,2.049l-1.994,4.193c0.725,0.909,1.549,1.733,2.459,2.458l4.192-1.993c0.648,0.347,1.334,0.633,2.05,0.851l1.557,4.377c0.571,0.064,1.148,0.104,1.737,0.104c0.588,0,1.165-0.04,1.736-0.104l1.558-4.377c0.715-0.218,1.399-0.504,2.049-0.851l4.193,1.993c0.909-0.725,1.733-1.549,2.458-2.458l-1.993-4.193c0.347-0.647,0.633-1.334,0.851-2.049L31.229,17.736zM16,20.871c-2.69,0-4.872-2.182-4.872-4.871c0-2.69,2.182-4.872,4.872-4.872c2.689,0,4.871,2.182,4.871,4.872C20.871,18.689,18.689,20.871,16,20.871z"></path><title>Link options.</title></g></g></g></g><!--z-index:33--><g   id="j_116" ><path  stroke="#aaaaaa" d="M 2339 579 L 2197 702 C 2191.6666666666665 706.6666666666666 2186 710.3333333333333 2180 713 L 1714 944" id="v-1365" stroke-width="2" stroke-dasharray="30 30" fill="none" style="opacity: 1;"></path><path  fill="black" stroke="black" d="M 0 0 0 0" transform="matrix(-0.7549661848014887,0.6557637225451591,-0.6557637225451591,-0.7549661848014887,2339,578.7100219726562)"></path><path  fill="#aaaaaa" stroke="#aaaaaa" d="M 20 0 L 0 10 L 20 20 z" id="v-1367" transform="matrix(0.8964636321772589,-0.4431173165015742,0.4431173165015742,0.8964636321772589,1709.5687901225865,934.8253625268369)" style="opacity: 1;"></path><path  d="M 2339 579 L 2197 702 C 2191.6666666666665 706.6666666666666 2186 710.3333333333333 2180 713 L 1714 944" id="v-1366" fill="none" style="cursor: auto; pointer-events: visiblepainted;"></path><g ><g id="v-1359"  label-idx="0" cursor="move" transform="matrix(1,0,0,1,2040.2626953125,782.2689208984375)" style="cursor: default; opacity: 1;"><rect joint-selector="rect" id="v-1362" fill="#111111" rx="3" ry="3" pointer-events="none" width="53.84462356567383" height="32.509958267211914" transform="matrix(1,0,0,1,-26.9,-16.2)"></rect><text joint-selector="text" id="v-1361" font-size="24px" xml:space="preserve" y="0.8em" fill="#aaaaaa" text-anchor="middle" pointer-events="none" font-family="Open Sans" font-weight="normal" transform="matrix(1,0,0,1,0,-9.7)"><tspan dy="0" >Uses</tspan></text></g><g id="v-1360"  label-idx="1" cursor="move" transform="matrix(1,0,0,1,2030.2626953125,808.6689453125)" style="cursor: default; opacity: 1;"><rect joint-selector="rect" id="v-1364" fill="#ffffff" rx="3" ry="3"  width="0" height="0" transform="matrix(1,0,0,1,0,0)" display="none"></rect><text joint-selector="text" id="v-1363" fill="#000000" font-size="14" text-anchor="middle" pointer-events="none"></text></g></g><g  display="none" style="display: none;"><g  transform="translate(2189, 709)" id="v-1385"><circle  idx="0" r="10"></circle><path  idx="0" d="M16,5.333c-7.732,0-14,4.701-14,10.5c0,1.982,0.741,3.833,2.016,5.414L2,25.667l5.613-1.441c2.339,1.317,5.237,2.107,8.387,2.107c7.732,0,14-4.701,14-10.5C30,10.034,23.732,5.333,16,5.333z" transform="translate(5, -33)"></path><path  idx="0" transform="scale(.8) translate(9.5, -37)" d="M24.778,21.419 19.276,15.917 24.777,10.415 21.949,7.585 16.447,13.087 10.945,7.585 8.117,10.415 13.618,15.917 8.116,21.419 10.946,24.248 16.447,18.746 21.948,24.248z"><title>Remove vertex.</title></path></g></g><g  id="v-1369" display="none"><g  id="v-1357"><path  end="source" d="M 26 0 L 0 13 L 26 26 z"></path></g><g  id="v-1358"><path  end="target" d="M 26 0 L 0 13 L 26 26 z"></path></g></g><g  id="v-1368" display="none"><g  id="v-1355" transform="translate(2308.7654125083172, 605.1891145174436) "><g  event="remove"><circle r="11"></circle><path transform="scale(.8) translate(-16, -16)" d="M24.778,21.419 19.276,15.917 24.777,10.415 21.949,7.585 16.447,13.087 10.945,7.585 8.117,10.415 13.618,15.917 8.116,21.419 10.946,24.248 16.447,18.746 21.948,24.248z"></path><title>Remove link.</title></g><g  event="link:options"><circle r="11" transform="translate(25)"></circle><path fill="white" transform="scale(.55) translate(29, -16)" d="M31.229,17.736c0.064-0.571,0.104-1.148,0.104-1.736s-0.04-1.166-0.104-1.737l-4.377-1.557c-0.218-0.716-0.504-1.401-0.851-2.05l1.993-4.192c-0.725-0.91-1.549-1.734-2.458-2.459l-4.193,1.994c-0.647-0.347-1.334-0.632-2.049-0.849l-1.558-4.378C17.165,0.708,16.588,0.667,16,0.667s-1.166,0.041-1.737,0.105L12.707,5.15c-0.716,0.217-1.401,0.502-2.05,0.849L6.464,4.005C5.554,4.73,4.73,5.554,4.005,6.464l1.994,4.192c-0.347,0.648-0.632,1.334-0.849,2.05l-4.378,1.557C0.708,14.834,0.667,15.412,0.667,16s0.041,1.165,0.105,1.736l4.378,1.558c0.217,0.715,0.502,1.401,0.849,2.049l-1.994,4.193c0.725,0.909,1.549,1.733,2.459,2.458l4.192-1.993c0.648,0.347,1.334,0.633,2.05,0.851l1.557,4.377c0.571,0.064,1.148,0.104,1.737,0.104c0.588,0,1.165-0.04,1.736-0.104l1.558-4.377c0.715-0.218,1.399-0.504,2.049-0.851l4.193,1.993c0.909-0.725,1.733-1.549,2.458-2.458l-1.993-4.193c0.347-0.647,0.633-1.334,0.851-2.049L31.229,17.736zM16,20.871c-2.69,0-4.872-2.182-4.872-4.871c0-2.69,2.182-4.872,4.872-4.872c2.689,0,4.871,2.182,4.871,4.872C20.871,18.689,18.689,20.871,16,20.871z"></path><title>Link options.</title></g></g></g></g><!--z-index:34--><g   id="j_117" ><path  stroke="#aaaaaa" d="M 639 579 L 781 702 C 786.3333333333333 706.6666666666666 792 710.3333333333333 798 713 L 1264 944" id="v-1380" stroke-width="2" stroke-dasharray="30 30" fill="none" style="opacity: 1;"></path><path  fill="black" stroke="black" d="M 0 0 0 0" transform="matrix(0.7549662284615978,0.6557636722802435,-0.6557636722802435,0.7549662284615978,639,578.7100219726562)"></path><path  fill="#aaaaaa" stroke="#aaaaaa" d="M 20 0 L 0 10 L 20 20 z" id="v-1382" transform="matrix(-0.896463632177259,-0.4431173165015739,0.4431173165015739,-0.896463632177259,1259.5688635473819,952.7546351703821)" style="opacity: 1;"></path><path  d="M 639 579 L 781 702 C 786.3333333333333 706.6666666666666 792 710.3333333333333 798 713 L 1264 944" id="v-1381" fill="none" style="cursor: auto; pointer-events: visiblepainted;"></path><g ><g id="v-1374"  label-idx="0" cursor="move" transform="matrix(1,0,0,1,937.7373046875,782.2689208984375)" style="cursor: default; opacity: 1;"><rect joint-selector="rect" id="v-1377" fill="#111111" rx="3" ry="3" pointer-events="none" width="53.84462356567383" height="32.509958267211914" transform="matrix(1,0,0,1,-26.9,-16.2)"></rect><text joint-selector="text" id="v-1376" font-size="24px" xml:space="preserve" y="0.8em" fill="#aaaaaa" text-anchor="middle" pointer-events="none" font-family="Open Sans" font-weight="normal" transform="matrix(1,0,0,1,0,-9.7)"><tspan dy="0" >Uses</tspan></text></g><g id="v-1375"  label-idx="1" cursor="move" transform="matrix(1,0,0,1,927.7373046875,808.6689453125)" style="cursor: default; opacity: 1;"><rect joint-selector="rect" id="v-1379" fill="#ffffff" rx="3" ry="3"  width="0" height="0" transform="matrix(1,0,0,1,0,0)" display="none"></rect><text joint-selector="text" id="v-1378" fill="#000000" font-size="14" text-anchor="middle" pointer-events="none"></text></g></g><g  display="none" style="display: none;"><g  transform="translate(789, 709)" id="v-1386"><circle  idx="0" r="10"></circle><path  idx="0" d="M16,5.333c-7.732,0-14,4.701-14,10.5c0,1.982,0.741,3.833,2.016,5.414L2,25.667l5.613-1.441c2.339,1.317,5.237,2.107,8.387,2.107c7.732,0,14-4.701,14-10.5C30,10.034,23.732,5.333,16,5.333z" transform="translate(5, -33)"></path><path  idx="0" transform="scale(.8) translate(9.5, -37)" d="M24.778,21.419 19.276,15.917 24.777,10.415 21.949,7.585 16.447,13.087 10.945,7.585 8.117,10.415 13.618,15.917 8.116,21.419 10.946,24.248 16.447,18.746 21.948,24.248z"><title>Remove vertex.</title></path></g></g><g  id="v-1384" display="none"><g  id="v-1372"><path  end="source" d="M 26 0 L 0 13 L 26 26 z"></path></g><g  id="v-1373"><path  end="target" d="M 26 0 L 0 13 L 26 26 z"></path></g></g><g  id="v-1383" display="none"><g  id="v-1370" transform="translate(669.2345874916829, 605.1891145174436) "><g  event="remove"><circle r="11"></circle><path transform="scale(.8) translate(-16, -16)" d="M24.778,21.419 19.276,15.917 24.777,10.415 21.949,7.585 16.447,13.087 10.945,7.585 8.117,10.415 13.618,15.917 8.116,21.419 10.946,24.248 16.447,18.746 21.948,24.248z"></path><title>Remove link.</title></g><g  event="link:options"><circle r="11" transform="translate(25)"></circle><path fill="white" transform="scale(.55) translate(29, -16)" d="M31.229,17.736c0.064-0.571,0.104-1.148,0.104-1.736s-0.04-1.166-0.104-1.737l-4.377-1.557c-0.218-0.716-0.504-1.401-0.851-2.05l1.993-4.192c-0.725-0.91-1.549-1.734-2.458-2.459l-4.193,1.994c-0.647-0.347-1.334-0.632-2.049-0.849l-1.558-4.378C17.165,0.708,16.588,0.667,16,0.667s-1.166,0.041-1.737,0.105L12.707,5.15c-0.716,0.217-1.401,0.502-2.05,0.849L6.464,4.005C5.554,4.73,4.73,5.554,4.005,6.464l1.994,4.192c-0.347,0.648-0.632,1.334-0.849,2.05l-4.378,1.557C0.708,14.834,0.667,15.412,0.667,16s0.041,1.165,0.105,1.736l4.378,1.558c0.217,0.715,0.502,1.401,0.849,2.049l-1.994,4.193c0.725,0.909,1.549,1.733,2.459,2.458l4.192-1.993c0.648,0.347,1.334,0.633,2.05,0.851l1.557,4.377c0.571,0.064,1.148,0.104,1.737,0.104c0.588,0,1.165-0.04,1.736-0.104l1.558-4.377c0.715-0.218,1.399-0.504,2.049-0.851l4.193,1.993c0.909-0.725,1.733-1.549,2.458-2.458l-1.993-4.193c0.347-0.647,0.633-1.334,0.851-2.049L31.229,17.736zM16,20.871c-2.69,0-4.872-2.182-4.872-4.871c0-2.69,2.182-4.872,4.872-4.872c2.689,0,4.871,2.182,4.871,4.872C20.871,18.689,18.689,20.871,16,20.871z"></path><title>Link options.</title></g></g></g></g><!--z-index:35--><!--z-index:36--><!--z-index:37--><!--z-index:38--><!--z-index:39--><!--z-index:40--><!--z-index:41--><!--z-index:42--><!--z-index:43--><!--z-index:44--><!--z-index:45--><!--z-index:46--><!--z-index:47--><!--z-index:48--><!--z-index:49--><!--z-index:50--><!--z-index:51--><!--z-index:52--><!--z-index:53--><!--z-index:54--><!--z-index:55--><!--z-index:56--><!--z-index:57--><!--z-index:58--><!--z-index:59--><!--z-index:60--><!--z-index:61--><!--z-index:62--><!--z-index:63--><!--z-index:64--><!--z-index:65--><!--z-index:66--><!--z-index:67--><!--z-index:68--><!--z-index:69--><!--z-index:70--><!--z-index:71--><!--z-index:72--><!--z-index:73--><!--z-index:74--><!--z-index:75--><!--z-index:76--><!--z-index:77--></g><g ></g><g ></g><g ></g></g></svg>